STARTFONT 2.1
COMMENT
COMMENT Converted from OpenType font "Ubuntu-Regular.ttf" by "otf2bdf 3.0".
COMMENT
FONT -FreeType-Ubuntu-Medium-R-Normal--89-640-100-100-P-467-ISO10646-1
SIZE 64 100 100
FONTBOUNDINGBOX 324 103 -15 -17
STARTPROPERTIES 19
FOUNDRY "FreeType"
FAMILY_NAME "Ubuntu"
WEIGHT_NAME "Medium"
SLANT "R"
SETWIDTH_NAME "Normal"
ADD_STYLE_NAME ""
PIXEL_SIZE 89
POINT_SIZE 640
RESOLUTION_X 100
RESOLUTION_Y 100
SPACING "P"
AVERAGE_WIDTH 467
CHARSET_REGISTRY "ISO10646"
CHARSET_ENCODING "1"
FONT_ASCENT 82
FONT_DESCENT 16
COPYRIGHT "Copyright 2011 Canonical Ltd.  Licensed under the Ubuntu Font Licence 1.0"
_OTF_FONTFILE "Ubuntu-Regular.ttf"
_OTF_PSNAME "Ubuntu-Regular"
ENDPROPERTIES
CHARS 1194
STARTCHAR 0000
ENCODING 0
SWIDTH 0 0
DWIDTH 0 0
BBX 0 0 0 0
BITMAP
ENDCHAR
STARTCHAR 0008
ENCODING 8
SWIDTH 0 0
DWIDTH 0 0
BBX 0 0 0 0
BITMAP
ENDCHAR
STARTCHAR 0009
ENCODING 9
SWIDTH 225 0
DWIDTH 20 0
BBX 0 0 0 0
BITMAP
ENDCHAR
STARTCHAR 000D
ENCODING 13
SWIDTH 225 0
DWIDTH 20 0
BBX 0 0 0 0
BITMAP
ENDCHAR
STARTCHAR 001D
ENCODING 29
SWIDTH 0 0
DWIDTH 0 0
BBX 0 0 0 0
BITMAP
ENDCHAR
STARTCHAR 0020
ENCODING 32
SWIDTH 225 0
DWIDTH 20 0
BBX 0 0 0 0
BITMAP
ENDCHAR
STARTCHAR 0021
ENCODING 33
SWIDTH 270 0
DWIDTH 24 0
BBX 12 63 6 -1
BITMAP
3FE0
3FE0
3FE0
3FE0
3FE0
3FE0
3FE0
3FE0
3FE0
3FE0
3FE0
3FE0
3FE0
3FE0
3FE0
3FE0
3FE0
3FE0
3FE0
3FE0
3FE0
3FE0
3FE0
3FE0
3FE0
3FE0
3FC0
3FC0
3FC0
3FC0
3FC0
3FC0
1FC0
1FC0
1FC0
1FC0
1FC0
1F80
1F80
1F80
1F80
0F80
0F80
0000
0000
0000
0000
0000
0000
0000
0000
0700
3FC0
3FE0
7FF0
7FF0
FFF0
FFF0
FFF0
7FF0
7FE0
3FC0
1F80
ENDCHAR
STARTCHAR 0022
ENCODING 34
SWIDTH 416 0
DWIDTH 37 0
BBX 25 23 6 45
BITMAP
FF80FF80
FF80FF80
FF80FF80
FF80FF80
FF80FF80
FF80FF80
FF80FF80
FF80FF80
FF80FF80
7F80FF80
7F80FF80
7F80FF00
7F80FF00
7F807F00
7F007F00
7F007F00
7F007F00
7F007F00
7F007F00
3F007F00
3F003E00
3E003E00
3E003E00
ENDCHAR
STARTCHAR 0023
ENCODING 35
SWIDTH 663 0
DWIDTH 59 0
BBX 51 62 4 0
BITMAP
00007F0001FC00
00007F0001FC00
0000FF0003FC00
0000FF0003FC00
0000FF0003F800
0000FE0003F800
0000FE0003F800
0000FE0007F800
0001FE0007F800
0001FE0007F000
0001FC0007F000
0001FC0007F000
0001FC000FF000
0003FC000FF000
0003FC000FF000
0003F8000FE000
0003F8000FE000
FFFFFFFFFFFFE0
FFFFFFFFFFFFE0
FFFFFFFFFFFFE0
FFFFFFFFFFFFE0
FFFFFFFFFFFFE0
FFFFFFFFFFFFE0
000FF0003FC000
000FF0003FC000
000FF0003F8000
000FE0003F8000
000FE0003F8000
001FE0007F8000
001FE0007F8000
001FE0007F0000
001FC0007F0000
001FC0007F0000
003FC000FF0000
003FC000FF0000
003FC000FE0000
003F8000FE0000
003F8000FE0000
003F8001FE0000
FFFFFFFFFFFFE0
FFFFFFFFFFFFE0
FFFFFFFFFFFFE0
FFFFFFFFFFFFE0
FFFFFFFFFFFFE0
FFFFFFFFFFFFE0
FFFFFFFFFFFFE0
00FF0003F80000
00FE0003F80000
00FE0003F80000
01FE0007F80000
01FE0007F80000
01FE0007F00000
01FC0007F00000
01FC0007F00000
03FC000FF00000
03FC000FF00000
03FC000FE00000
03F8000FE00000
03F8000FE00000
03F8001FE00000
07F8001FE00000
07F8001FE00000
ENDCHAR
STARTCHAR 0024
ENCODING 36
SWIDTH 562 0
DWIDTH 50 0
BBX 38 79 6 -10
BITMAP
0001FE0000
0001FE0000
0001FE0000
0001FE0000
0001FE0000
0001FE0000
0001FE0000
0001FE0000
0001FE0000
0001FE0000
0003FFF000
003FFFFF00
00FFFFFFE0
01FFFFFFE0
07FFFFFFE0
0FFFFFFFE0
1FFFFFFFC0
1FFE001FC0
3FF80001C0
3FF0000000
7FE0000000
7FC0000000
7FC0000000
7F80000000
7F80000000
7F80000000
7F80000000
7FC0000000
7FC0000000
7FE0000000
7FF0000000
3FFC000000
3FFF000000
1FFFC00000
0FFFF80000
07FFFE0000
03FFFFC000
01FFFFF000
007FFFFC00
001FFFFF00
0003FFFF80
00007FFFC0
00001FFFE0
000003FFF0
000000FFF0
0000007FF8
0000001FF8
0000000FFC
0000000FFC
00000007FC
00000007FC
00000003FC
00000003FC
00000003FC
00000007FC
00000007FC
00000007FC
0000000FFC
7800001FF8
7F00007FF8
7FFF1FFFF0
FFFFFFFFE0
FFFFFFFFE0
FFFFFFFF80
7FFFFFFF00
1FFFFFFC00
01FFFFE000
0001FE0000
0001FE0000
0001FE0000
0001FE0000
0001FE0000
0001FE0000
0001FE0000
0001FE0000
0001FE0000
0001FE0000
0001FE0000
0001FE0000
ENDCHAR
STARTCHAR 0025
ENCODING 37
SWIDTH 855 0
DWIDTH 76 0
BBX 68 64 4 -1
BITMAP
001FC0000000000000
00FFF8000001FF0000
01FFFE000001FE0000
07FFFF000003FC0000
0FFFFF800003FC0000
1FFFFFC00007F80000
1FF87FC00007F80000
3FE01FE0000FF00000
3FC00FE0001FF00000
7F800FF0001FE00000
7F0007F0003FC00000
7F0007F0003FC00000
7F0007F0007F800000
7F0003F8007F800000
FE0003F800FF000000
FE0003F800FF000000
FE0003F801FE000000
FE0003F803FE000000
7E0003F803FC000000
7F0003F807F8000000
7F0007F007F8000000
7F0007F00FF0000000
7F0007F00FF0000000
3F800FF01FE0000000
3FC01FE03FE0000000
3FE03FE03FC0000000
1FF8FFC07F80000000
0FFFFFC07F80000000
0FFFFF80FF00000000
07FFFF00FF00000000
01FFFC01FE00000000
00FFF803FE00000000
000FC003FC007FE000
00000007F803FFF800
00000007F807FFFC00
0000000FF00FFFFE00
0000000FF01FFFFF00
0000001FE03FFFFF80
0000001FE03FE07FC0
0000003FC07F803FC0
0000007FC07F001FE0
0000007F80FF000FE0
000000FF00FE000FE0
000000FF00FE000FE0
000001FE00FE0007F0
000001FE00FE0007F0
000003FC00FE0007F0
000007FC00FC0007F0
000007F800FC0007F0
00000FF000FE0007F0
00000FF000FE0007F0
00001FE000FE0007F0
00001FE000FE000FE0
00003FC000FE000FE0
00007FC000FF000FE0
00007F80007F001FE0
0000FF00007F803FC0
0000FF00003FE07FC0
0001FE00003FFFFF80
0001FE00001FFFFF00
0003FC00000FFFFE00
0003FC000007FFFC00
0007F8000001FFF800
0000000000007FE000
ENDCHAR
STARTCHAR 0026
ENCODING 38
SWIDTH 663 0
DWIDTH 59 0
BBX 54 64 4 -1
BITMAP
00003FE0000000
0001FFFC000000
0007FFFF000000
000FFFFF800000
001FFFFFC00000
003FFFFFE00000
007FFDFFF00000
00FFC01FF00000
00FF800FF80000
00FF0007F80000
01FE0007F80000
01FE0003F80000
01FE0003F80000
01FC0003F80000
01FC0003F80000
01FC0003F80000
01FE0003F80000
01FE0007F80000
01FE0007F80000
01FE000FF00000
00FF000FF00000
00FF801FE00000
00FF803FC00000
007FC07FC00000
003FE1FF800000
003FF7FF000000
001FFFFE000000
000FFFF8000000
0007FFF0000000
000FFFC0000000
003FFF80000000
007FFFC0000000
01FFFFE0000000
03FFBFF0001FC0
07FE1FF8001FC0
0FFC0FFC001FC0
1FF807FE001FC0
1FF003FF003F80
3FE001FF803F80
3FC000FFC03F80
7FC0007FE07F80
7F80003FF07F00
7F80001FF87F00
FF80000FFCFF00
FF000007FEFE00
FF000003FFFE00
FF000001FFFC00
FF000000FFFC00
FF8000007FF800
FF8000003FF000
7F8000001FF800
7FC000003FFC00
7FC000007FFC00
7FE00000FFFE00
3FF00003FFFF00
3FFC000FFFFF80
1FFF007FFEFFC0
0FFFFFFFFC7FE0
07FFFFFFF03FE0
03FFFFFFE01FF0
01FFFFFF800FF8
007FFFFE0007F8
001FFFF80007FC
0001FF80000000
ENDCHAR
STARTCHAR 0027
ENCODING 39
SWIDTH 236 0
DWIDTH 21 0
BBX 9 23 6 45
BITMAP
FF80
FF80
FF80
FF80
FF80
FF80
FF80
FF80
FF80
7F80
7F80
7F80
7F80
7F80
7F00
7F00
7F00
7F00
7F00
3F00
3F00
3E00
3E00
ENDCHAR
STARTCHAR 0028
ENCODING 40
SWIDTH 315 0
DWIDTH 28 0
BBX 21 85 7 -15
BITMAP
000380
0003C0
0007F0
000FF8
000FF0
001FF0
003FE0
003FC0
007FC0
00FF80
00FF00
01FF00
01FE00
03FE00
03FC00
07FC00
07F800
07F800
0FF800
0FF000
0FF000
1FE000
1FE000
1FE000
3FE000
3FC000
3FC000
3FC000
7FC000
7F8000
7F8000
7F8000
7F8000
FF8000
FF8000
FF8000
FF0000
FF0000
FF0000
FF0000
FF0000
FF0000
FF0000
FF0000
FF0000
FF0000
FF0000
FF0000
FF0000
FF8000
FF8000
FF8000
7F8000
7F8000
7F8000
7F8000
7FC000
3FC000
3FC000
3FC000
3FE000
1FE000
1FE000
1FE000
0FF000
0FF000
0FF800
07F800
07F800
03FC00
03FC00
03FE00
01FE00
01FF00
00FF00
007F80
007FC0
003FC0
003FE0
001FF0
000FF0
000FF8
0007F0
0003C0
000180
ENDCHAR
STARTCHAR 0029
ENCODING 41
SWIDTH 315 0
DWIDTH 28 0
BBX 21 86 1 -16
BITMAP
040000
0C0000
3E0000
7F0000
FF8000
FF8000
7FC000
3FE000
1FE000
1FF000
0FF000
0FF800
07F800
07FC00
03FC00
03FE00
01FE00
01FF00
00FF00
00FF80
007F80
007F80
007FC0
003FC0
003FC0
003FE0
001FE0
001FE0
001FE0
001FE0
001FF0
000FF0
000FF0
000FF0
000FF0
000FF0
000FF8
000FF8
000FF8
000FF8
0007F8
0007F8
0007F8
0007F8
0007F8
0007F8
0007F8
000FF8
000FF8
000FF8
000FF8
000FF0
000FF0
000FF0
000FF0
000FF0
001FF0
001FE0
001FE0
001FE0
003FE0
003FC0
003FC0
003FC0
007FC0
007F80
007F80
00FF00
00FF00
01FF00
01FE00
03FE00
03FC00
07FC00
07F800
0FF800
0FF000
1FF000
3FE000
3FE000
7FC000
FF8000
FF8000
7F0000
1E0000
0C0000
ENDCHAR
STARTCHAR 002A
ENCODING 42
SWIDTH 472 0
DWIDTH 42 0
BBX 35 34 4 28
BITMAP
0007F80000
0007F80000
0007F80000
0007F80000
0007F80000
0003F80000
0003F80000
0003F80000
0003F80000
3003F00180
7C03F00F80
7F01F03FC0
7FC1F0FFC0
FFF1F1FFC0
FFFDE7FFE0
FFFFFFFFE0
FFFFFFFFE0
1FFFFFFE00
007FFF8000
0003F80000
0007FC0000
001FBE0000
003FBF0000
007F1FC000
00FF1FE000
01FE0FF000
03FE0FF000
07FC0FF800
07FC07FC00
0FF803FE00
07F803FC00
03F001F800
01E001E000
006000C000
ENDCHAR
STARTCHAR 002B
ENCODING 43
SWIDTH 562 0
DWIDTH 50 0
BBX 40 43 5 5
BITMAP
00007F0000
00007F0000
00007F0000
00007F0000
00007F0000
00007F0000
00007F0000
00007F0000
00007F0000
00007F0000
00007F0000
00007F0000
00007F0000
00007F0000
00007F0000
00007F0000
00007F0000
00007F0000
FFFFFFFFFF
FFFFFFFFFF
FFFFFFFFFF
FFFFFFFFFF
FFFFFFFFFF
FFFFFFFFFF
FFFFFFFFFF
00007F0000
00007F0000
00007F0000
00007F0000
00007F0000
00007F0000
00007F0000
00007F0000
00007F0000
00007F0000
00007F0000
00007F0000
00007F0000
00007F0000
00007F0000
00007F0000
00007F0000
00007F0000
ENDCHAR
STARTCHAR 002C
ENCODING 44
SWIDTH 236 0
DWIDTH 21 0
BBX 12 24 4 -14
BITMAP
1FF0
1FF0
1FF0
1FF0
1FF0
1FF0
1FF0
1FF0
1FE0
1FE0
1FE0
3FE0
3FE0
3FC0
3FC0
3FC0
7F80
7F80
7F80
FF00
FF00
FE00
7E00
0C00
ENDCHAR
STARTCHAR 002D
ENCODING 45
SWIDTH 292 0
DWIDTH 26 0
BBX 22 7 2 23
BITMAP
FFFFFC
FFFFFC
FFFFFC
FFFFFC
FFFFFC
FFFFFC
FFFFFC
ENDCHAR
STARTCHAR 002E
ENCODING 46
SWIDTH 236 0
DWIDTH 21 0
BBX 12 12 5 -1
BITMAP
0600
3FC0
7FE0
7FE0
FFF0
FFF0
FFF0
FFF0
FFE0
7FE0
3FC0
1F80
ENDCHAR
STARTCHAR 002F
ENCODING 47
SWIDTH 382 0
DWIDTH 34 0
BBX 38 86 -2 -16
BITMAP
00000003FC
00000003FC
00000007FC
00000007F8
00000007F8
0000000FF8
0000000FF0
0000001FF0
0000001FE0
0000001FE0
0000003FE0
0000003FC0
0000003FC0
0000007FC0
0000007F80
0000007F80
000000FF80
000000FF00
000000FF00
000001FF00
000001FE00
000001FE00
000003FE00
000003FC00
000003FC00
000007FC00
000007F800
00000FF800
00000FF800
00000FF000
00001FF000
00001FE000
00001FE000
00003FE000
00003FC000
00003FC000
00007FC000
00007F8000
00007F8000
0000FF8000
0000FF0000
0000FF0000
0001FF0000
0001FE0000
0001FE0000
0003FE0000
0003FC0000
0007FC0000
0007FC0000
0007F80000
000FF80000
000FF00000
000FF00000
001FF00000
001FE00000
001FE00000
003FE00000
003FC00000
003FC00000
007FC00000
007F800000
007F800000
00FF800000
00FF000000
00FF000000
01FF000000
01FE000000
03FE000000
03FE000000
03FC000000
07FC000000
07FC000000
07F8000000
0FF8000000
0FF0000000
0FF0000000
1FF0000000
1FE0000000
1FE0000000
3FE0000000
3FC0000000
3FC0000000
7FC0000000
7F80000000
7F80000000
FF80000000
ENDCHAR
STARTCHAR 0030
ENCODING 48
SWIDTH 562 0
DWIDTH 50 0
BBX 42 64 4 -1
BITMAP
00007FC00000
0003FFF80000
000FFFFC0000
003FFFFF0000
007FFFFF8000
00FFFFFFC000
01FFFFFFE000
03FFE1FFF000
03FF003FF000
07FE001FF800
07FC000FF800
0FF80007FC00
0FF80007FC00
1FF00003FE00
1FF00003FE00
1FE00001FE00
3FE00001FF00
3FE00001FF00
3FC00000FF00
3FC00000FF80
7FC00000FF80
7FC00000FF80
7FC00000FF80
7FC000007F80
7FC000007F80
7F8000007F80
7F8000007F80
7F8000007FC0
FF8000007FC0
FF8000007FC0
FF8000007FC0
FF8000007FC0
FF8000007FC0
FF8000007FC0
FF8000007FC0
FF8000007FC0
7F8000007FC0
7F8000007FC0
7F8000007F80
7F8000007F80
7FC000007F80
7FC00000FF80
7FC00000FF80
7FC00000FF80
7FC00000FF80
3FC00000FF00
3FE00001FF00
3FE00001FF00
3FE00001FF00
1FF00003FE00
1FF00003FE00
0FF80003FE00
0FF80007FC00
0FFC000FFC00
07FE001FF800
03FF003FF800
03FFC0FFF000
01FFFFFFE000
00FFFFFFC000
007FFFFF8000
003FFFFF0000
001FFFFE0000
0007FFF80000
0001FFE00000
ENDCHAR
STARTCHAR 0031
ENCODING 49
SWIDTH 562 0
DWIDTH 50 0
BBX 25 62 8 0
BITMAP
00001F80
00003F80
00007F80
0000FF80
0001FF80
0003FF80
000FFF80
001FFF80
007FFF80
00FFFF80
03FFFF80
0FFFFF80
3FFF7F80
FFFC7F80
7FF87F80
7FE07F80
3F807F80
3E007F80
38007F80
00007F80
00007F80
00007F80
00007F80
00007F80
00007F80
00007F80
00007F80
00007F80
00007F80
00007F80
00007F80
00007F80
00007F80
00007F80
00007F80
00007F80
00007F80
00007F80
00007F80
00007F80
00007F80
00007F80
00007F80
00007F80
00007F80
00007F80
00007F80
00007F80
00007F80
00007F80
00007F80
00007F80
00007F80
00007F80
00007F80
00007F80
00007F80
00007F80
00007F80
00007F80
00007F80
00007F80
ENDCHAR
STARTCHAR 0032
ENCODING 50
SWIDTH 562 0
DWIDTH 50 0
BBX 39 63 5 0
BITMAP
000FFE0000
007FFFE000
01FFFFF800
07FFFFFC00
1FFFFFFF00
3FFFFFFF80
7FFFFFFF80
FFFE1FFFC0
7FE001FFE0
7F8000FFE0
3E00007FF0
1C00003FF0
0800001FF0
0000001FF0
0000001FF0
0000000FF0
0000000FF0
0000000FF8
0000000FF0
0000000FF0
0000001FF0
0000001FF0
0000001FF0
0000003FE0
0000003FE0
0000007FC0
000000FFC0
000001FF80
000001FF00
000003FF00
000007FE00
00000FFC00
00001FF800
00003FF000
00007FE000
0000FFC000
0001FF8000
0003FF0000
0007FE0000
000FFC0000
001FFC0000
003FF00000
007FF00000
00FFE00000
01FFC00000
01FF800000
03FF000000
07FE000000
07FC000000
0FF8000000
0FF8000000
1FF0000000
1FE0000000
3FE0000000
3FC0000000
3FC0000000
3FFFFFFFFE
7FFFFFFFFE
7FFFFFFFFE
7FFFFFFFFE
7FFFFFFFFE
7FFFFFFFFE
7FFFFFFFFE
ENDCHAR
STARTCHAR 0033
ENCODING 51
SWIDTH 562 0
DWIDTH 50 0
BBX 38 64 5 -1
BITMAP
000FFE0000
00FFFFC000
07FFFFF000
1FFFFFFC00
7FFFFFFE00
7FFFFFFF00
3FFFFFFF80
3FFC1FFF80
1F8003FFC0
1E0000FFC0
0800007FE0
0000003FE0
0000003FE0
0000001FF0
0000001FF0
0000001FF0
0000001FF0
0000001FF0
0000001FF0
0000001FE0
0000003FE0
0000003FE0
0000007FC0
000000FFC0
000001FF80
000007FF00
00007FFE00
001FFFFC00
001FFFF000
001FFFC000
001FFFF800
001FFFFE00
001FFFFF00
001FFFFF80
000007FFC0
000001FFE0
0000007FF0
0000001FF0
0000001FF8
0000000FF8
00000007FC
00000007FC
00000003FC
00000003FC
00000003FC
00000003FC
00000003FC
00000003FC
00000007FC
00000007FC
00000007FC
0000000FFC
0000000FF8
0000001FF8
6000003FF0
7C0000FFF0
7FC00FFFE0
7FFFFFFFC0
FFFFFFFF80
FFFFFFFF00
FFFFFFFE00
7FFFFFF800
0FFFFFE000
00FFFF0000
ENDCHAR
STARTCHAR 0034
ENCODING 52
SWIDTH 562 0
DWIDTH 50 0
BBX 42 62 4 0
BITMAP
0000001FE000
0000003FE000
0000007FE000
000000FFE000
000001FFE000
000003FFE000
000003FFE000
000007FFE000
00000FFFE000
00001FFFE000
00003FFFE000
00003FDFE000
00007F9FE000
0000FF1FE000
0001FE1FE000
0001FE1FE000
0003FC1FE000
0007F81FE000
000FF01FE000
000FF01FE000
001FE01FE000
003FC01FE000
003F801FE000
007F801FE000
00FF001FE000
00FE001FE000
01FE001FE000
01FC001FE000
03F8001FE000
07F8001FE000
07F0001FE000
0FF0001FE000
0FE0001FE000
1FE0001FE000
1FC0001FE000
3FC0001FE000
7F80001FE000
7F80001FE000
7F00001FE000
FF00001FE000
FFFFFFFFFFC0
FFFFFFFFFFC0
FFFFFFFFFFC0
FFFFFFFFFFC0
FFFFFFFFFFC0
FFFFFFFFFFC0
0000001FE000
0000001FE000
0000001FE000
0000001FE000
0000001FE000
0000001FE000
0000001FE000
0000001FE000
0000001FE000
0000001FE000
0000001FE000
0000001FE000
0000001FE000
0000001FE000
0000001FE000
0000001FE000
ENDCHAR
STARTCHAR 0035
ENCODING 53
SWIDTH 562 0
DWIDTH 50 0
BBX 38 63 6 -1
BITMAP
03FFFFFFF0
03FFFFFFF0
03FFFFFFF0
03FFFFFFF0
03FFFFFFF0
03FFFFFFF0
03FFFFFFF0
07F8000000
07F8000000
07F8000000
07F8000000
07F8000000
07F8000000
07F8000000
07F0000000
07F0000000
07F0000000
07F0000000
07F0000000
07F0000000
07F0000000
07F0000000
0FF0000000
0FF0000000
0FFF000000
0FFFFC0000
0FFFFF8000
0FFFFFF000
0FFFFFF800
0FFFFFFE00
0FFFFFFF00
0003FFFF80
00001FFFC0
000003FFE0
000000FFE0
0000007FF0
0000003FF0
0000001FF8
0000000FF8
0000000FF8
0000000FF8
00000007F8
00000007FC
00000007FC
00000007FC
00000007FC
00000007FC
00000007F8
0000000FF8
0000000FF8
0000000FF8
0000001FF0
0000003FF0
6000007FF0
780001FFE0
7F800FFFC0
7FFFFFFFC0
FFFFFFFF80
FFFFFFFE00
FFFFFFFC00
7FFFFFF000
0FFFFFC000
00FFFE0000
ENDCHAR
STARTCHAR 0036
ENCODING 54
SWIDTH 562 0
DWIDTH 50 0
BBX 40 63 6 -1
BITMAP
00000003E0
000000FFE0
000007FFE0
00003FFFE0
0000FFFFE0
0001FFFFE0
0007FFFFF0
000FFFFC00
001FFF8000
007FFC0000
007FF00000
00FFE00000
01FF800000
03FF000000
07FE000000
07FC000000
0FF8000000
0FF8000000
1FF0000000
1FF0000000
3FE0000000
3FE0000000
3FC0000000
7FC0000000
7FC07F0000
7F8FFFF000
7FBFFFFE00
FFFFFFFF00
FFFFFFFFC0
FFFFFFFFE0
FFFFFFFFF0
FFFC00FFF0
FFC0003FF8
FF00001FFC
FF00000FFC
FF000007FC
FF000003FE
FF000003FE
FF000003FE
FF000001FE
FF000001FE
FF000001FF
FF000001FF
FF800001FF
FF800001FF
FF800001FE
FF800001FE
7F800001FE
7FC00003FE
7FC00003FE
3FE00007FC
3FE00007FC
1FF0000FFC
1FF8001FF8
0FFC003FF0
0FFE007FF0
07FFFFFFE0
03FFFFFFC0
01FFFFFF80
00FFFFFF00
007FFFFE00
001FFFF800
0003FFC000
ENDCHAR
STARTCHAR 0037
ENCODING 55
SWIDTH 562 0
DWIDTH 50 0
BBX 40 62 5 0
BITMAP
FFFFFFFFFF
FFFFFFFFFF
FFFFFFFFFF
FFFFFFFFFF
FFFFFFFFFF
FFFFFFFFFF
FFFFFFFFFF
FFFFFFFFFE
00000003FC
00000007FC
0000000FF8
0000001FF0
0000001FF0
0000003FE0
0000007FC0
0000007FC0
000000FF80
000000FF00
000001FF00
000001FE00
000003FE00
000003FC00
000007FC00
000007F800
00000FF800
00000FF000
00001FF000
00001FE000
00003FE000
00003FC000
00007FC000
00007FC000
00007F8000
0000FF8000
0000FF0000
0000FF0000
0001FF0000
0001FE0000
0003FE0000
0003FE0000
0003FC0000
0003FC0000
0007FC0000
0007F80000
0007F80000
000FF80000
000FF80000
000FF00000
000FF00000
001FF00000
001FF00000
001FF00000
001FE00000
001FE00000
003FE00000
003FE00000
003FE00000
003FE00000
003FC00000
003FC00000
003FC00000
003FC00000
ENDCHAR
STARTCHAR 0038
ENCODING 56
SWIDTH 562 0
DWIDTH 50 0
BBX 40 64 5 -1
BITMAP
0001FF8000
000FFFF800
003FFFFE00
00FFFFFF00
01FFFFFFC0
03FFFFFFE0
07FFFFFFE0
0FFF00FFF0
0FFC003FF8
1FF0001FF8
1FF0000FFC
3FE00007FC
3FC00003FC
3FC00003FC
7FC00003FE
7FC00003FE
7FC00003FE
7FC00003FE
7FC00003FE
7FC00003FC
3FC00003FC
3FE00007FC
3FE00007F8
1FF0000FF8
1FF8000FF0
0FFC001FF0
0FFF003FE0
07FFC0FFC0
03FFF9FF80
01FFFFFF00
00FFFFFE00
003FFFFC00
007FFFFF00
01FFFFFF80
03FF3FFFE0
07FE07FFF0
0FF800FFF8
1FF0003FF8
1FE0001FFC
3FE00007FE
3FC00007FE
7F800003FE
7F800001FF
FF800001FF
FF800000FF
FF000000FF
FF000000FF
FF000000FF
FF000000FF
FF000000FF
FF800001FF
FF800001FF
7FC00003FE
7FC00003FE
7FE00007FE
3FF8000FFC
1FFC003FFC
1FFFFFFFF8
0FFFFFFFF0
07FFFFFFE0
03FFFFFFC0
00FFFFFF00
003FFFFC00
0007FFE000
ENDCHAR
STARTCHAR 0039
ENCODING 57
SWIDTH 562 0
DWIDTH 50 0
BBX 40 63 5 0
BITMAP
0003FF0000
001FFFE000
007FFFF800
00FFFFFE00
03FFFFFF00
07FFFFFF80
0FFFFFFFC0
0FFE01FFE0
1FF8007FE0
3FF0003FF0
3FE0001FF0
7FC0000FF8
7FC0000FF8
7F800007FC
FF800007FC
FF800003FC
FF000003FE
FF000003FE
FF000003FE
FF000003FE
FF000001FE
FF000001FE
FF000001FE
FF000001FE
FF800001FE
FF800001FF
FF800001FF
7FC00001FF
7FE00001FE
7FE00001FE
3FF80007FE
1FFE003FFE
1FFFFFFFFE
0FFFFFFFFE
07FFFFFFFE
03FFFFFFFE
00FFFFFFFE
003FFFF3FC
0003FE03FC
00000007FC
00000007FC
00000007F8
0000000FF8
0000000FF8
0000001FF0
0000001FF0
0000003FF0
0000007FE0
0000007FC0
000000FFC0
000001FF80
000007FF00
00000FFF00
00003FFE00
0000FFFC00
000FFFF000
1FFFFFE000
1FFFFFC000
1FFFFF0000
1FFFFC0000
1FFFF00000
1FFF800000
1FF0000000
ENDCHAR
STARTCHAR 003A
ENCODING 58
SWIDTH 236 0
DWIDTH 21 0
BBX 12 47 5 -1
BITMAP
1F80
3FC0
7FE0
FFE0
FFF0
FFF0
FFF0
FFF0
7FE0
7FE0
3FC0
0600
0000
0000
0000
0000
0000
0000
0000
0000
0000
0000
0000
0000
0000
0000
0000
0000
0000
0000
0000
0000
0000
0000
0000
0600
3FC0
7FE0
7FE0
FFF0
FFF0
FFF0
FFF0
FFE0
7FE0
3FC0
1F80
ENDCHAR
STARTCHAR 003B
ENCODING 59
SWIDTH 236 0
DWIDTH 21 0
BBX 13 60 4 -14
BITMAP
0FC0
1FE0
3FF0
7FF0
7FF8
7FF8
7FF8
7FF8
3FF0
3FF0
1FE0
0300
0000
0000
0000
0000
0000
0000
0000
0000
0000
0000
0000
0000
0000
0000
0000
0000
0000
0000
0000
0000
0000
0000
0000
0000
1FF0
1FF0
1FF0
1FF0
1FF0
1FF0
1FF0
1FF0
1FE0
1FE0
1FE0
3FE0
3FE0
3FC0
3FC0
3FC0
7F80
7F80
7F80
FF00
FF00
FE00
7E00
0C00
ENDCHAR
STARTCHAR 003C
ENCODING 60
SWIDTH 562 0
DWIDTH 50 0
BBX 40 39 5 7
BITMAP
000000000C
000000003E
00000001FE
00000007FE
0000001FFF
000000FFFF
000003FFFF
00001FFFFC
00007FFFE0
0001FFFF80
000FFFFE00
003FFFF000
00FFFFC000
07FFFE0000
1FFFF80000
7FFFC00000
FFFF000000
FFFC000000
FFE0000000
FF80000000
FFF0000000
FFFC000000
FFFF000000
7FFFE00000
1FFFF80000
03FFFF0000
00FFFFC000
003FFFF800
0007FFFE00
0001FFFF80
00007FFFF0
00000FFFFC
000003FFFF
0000007FFF
0000001FFF
00000007FE
00000000FE
000000003E
000000000C
ENDCHAR
STARTCHAR 003D
ENCODING 61
SWIDTH 562 0
DWIDTH 50 0
BBX 40 26 5 14
BITMAP
FFFFFFFFFF
FFFFFFFFFF
FFFFFFFFFF
FFFFFFFFFF
FFFFFFFFFF
FFFFFFFFFF
FFFFFFFFFF
0000000000
0000000000
0000000000
0000000000
0000000000
0000000000
0000000000
0000000000
0000000000
0000000000
0000000000
0000000000
FFFFFFFFFF
FFFFFFFFFF
FFFFFFFFFF
FFFFFFFFFF
FFFFFFFFFF
FFFFFFFFFF
FFFFFFFFFF
ENDCHAR
STARTCHAR 003E
ENCODING 62
SWIDTH 562 0
DWIDTH 50 0
BBX 40 39 5 7
BITMAP
3000000000
7E00000000
7F80000000
7FE0000000
FFFC000000
FFFF000000
FFFFC00000
3FFFF80000
07FFFE0000
01FFFF8000
003FFFF000
000FFFFC00
0003FFFF80
00007FFFE0
00001FFFF8
000003FFFF
000000FFFF
0000001FFF
00000007FF
00000001FF
00000007FF
0000003FFF
000000FFFF
000007FFFE
00001FFFF8
0000FFFFC0
0003FFFF00
000FFFFC00
007FFFE000
01FFFF8000
0FFFFE0000
3FFFF00000
FFFFC00000
FFFF000000
FFF8000000
7FE0000000
7F80000000
7C00000000
3000000000
ENDCHAR
STARTCHAR 003F
ENCODING 63
SWIDTH 393 0
DWIDTH 35 0
BBX 32 64 2 -1
BITMAP
007FF000
07FFFE00
3FFFFF80
FFFFFFE0
FFFFFFF0
FFFFFFF8
7FFFFFF8
7F007FFC
78000FFC
200007FE
000007FE
000003FE
000003FE
000001FE
000001FF
000001FE
000001FE
000001FE
000003FE
000003FE
000007FC
000007FC
00000FF8
00001FF0
00003FE0
00007FE0
0000FFC0
0001FF80
0003FF00
0007FE00
0007FC00
000FF800
001FF000
001FE000
003FC000
003FC000
007F8000
007F8000
007F8000
007F0000
007F0000
007F0000
007F0000
007F0000
00000000
00000000
00000000
00000000
00000000
00000000
00000000
00000000
000E0000
007F8000
00FFC000
00FFC000
01FFE000
01FFE000
01FFE000
01FFE000
00FFE000
00FFC000
007F8000
003F0000
ENDCHAR
STARTCHAR 0040
ENCODING 64
SWIDTH 945 0
DWIDTH 84 0
BBX 73 77 6 -14
BITMAP
00000003FFF000000000
0000003FFFFF00000000
000003FFFFFFE0000000
00000FFFFFFFFC000000
00003FFFFFFFFF000000
0000FFFFFFFFFF800000
0001FFFFFFFFFFE00000
0007FFF8000FFFF00000
000FFFC00000FFF80000
001FFE0000003FFC0000
003FFC0000000FFE0000
007FF000000003FF0000
00FFE000000001FF8000
01FF8000000000FFC000
01FF00000000007FE000
03FE00000000003FE000
07FC00000000001FF000
07FC00000000000FF800
0FF80000FFFF0007F800
0FF00007FFFFF007FC00
1FF0001FFFFFF003FC00
1FE0003FFFFFF003FC00
3FE000FFFFFFF001FE00
3FC001FFFFFFF001FE00
3FC003FFFCFFF001FE00
7F8003FF800FF000FF00
7F8007FE000FF000FF00
7F800FFC000FF000FF00
7F800FF8000FF0007F00
FF000FF8000FF0007F00
FF001FF0000FF0007F00
FF001FF0000FF0007F80
FF001FE0000FF0007F80
FF003FE0000FF0007F80
FF003FE0000FF0007F80
FF003FE0000FF0007F80
FE003FC0000FF0007F80
FE003FC0000FF0007F80
FE003FC0000FF0007F00
FE003FC0000FF0007F00
FE003FC0000FF000FF00
FF003FE0000FF000FF00
FF003FE0000FF000FF00
FF003FE0000FF000FF00
FF001FE0000FF001FE00
FF001FF0000FF001FE00
FF001FF0000FF001FE00
7F000FF8000FF003FC00
7F800FFC000FF003FC00
7F800FFE0007F807FC00
7F8007FF000FF80FF800
7FC003FFC03FFC3FF800
3FC003FFFFFFFFFFF000
3FC001FFFFFFFFFFE000
3FE000FFFFFFFFFFC000
1FE0003FFFFFFFFF8000
1FF0001FFFFEFFFF0000
0FF80007FFF87FFC0000
0FF800007F801FF00000
07FC0000000000000000
07FE0000000000000000
03FF0000000000000000
01FF8000000000000000
01FFC000000000000000
00FFE000000000000000
007FF800000000000000
003FFE00000000000000
001FFF80000000000000
000FFFF0000020000000
0003FFFF8007F0000000
0001FFFFFFFFF0000000
00007FFFFFFFF0000000
00001FFFFFFFF0000000
000007FFFFFFF0000000
000000FFFFFFF0000000
0000000FFFFFC0000000
000000000F8000000000
ENDCHAR
STARTCHAR 0041
ENCODING 65
SWIDTH 652 0
DWIDTH 58 0
BBX 57 62 1 0
BITMAP
000000FF00000000
000000FF80000000
000001FF80000000
000001FFC0000000
000001FFC0000000
000003FFE0000000
000003FFE0000000
000007FFF0000000
000007FFF0000000
00000FFFF8000000
00000FFFF8000000
00001FF7FC000000
00001FE7FC000000
00001FE3FC000000
00003FC3FE000000
00003FC1FE000000
00007F81FF000000
00007F81FF000000
0000FF80FF800000
0000FF00FF800000
0000FF007F800000
0001FE007FC00000
0001FE007FC00000
0003FE003FE00000
0003FC003FE00000
0007FC001FE00000
0007F8001FF00000
0007F8001FF00000
000FF8000FF80000
000FF0000FF80000
000FF0000FF80000
001FF00007FC0000
001FE00007FC0000
003FE00003FE0000
003FC00003FE0000
003FC00003FE0000
007FC00001FF0000
007F800001FF0000
00FF800001FF8000
00FFFFFFFFFF8000
00FFFFFFFFFF8000
01FFFFFFFFFFC000
01FFFFFFFFFFC000
01FFFFFFFFFFC000
03FFFFFFFFFFE000
03FFFFFFFFFFE000
07FC0000003FF000
07FC0000001FF000
07FC0000001FF000
0FF80000001FF800
0FF80000000FF800
0FF00000000FF800
1FF00000000FFC00
1FF000000007FC00
3FE000000007FC00
3FE000000007FE00
3FE000000003FE00
7FC000000003FF00
7FC000000003FF00
7FC000000001FF00
FF8000000001FF80
FF8000000000FF80
ENDCHAR
STARTCHAR 0042
ENCODING 66
SWIDTH 641 0
DWIDTH 57 0
BBX 45 63 8 -1
BITMAP
0FFFFFC00000
FFFFFFFC0000
FFFFFFFF8000
FFFFFFFFE000
FFFFFFFFF000
FFFFFFFFF800
FFFFFFFFFC00
FF0001FFFE00
FF00003FFF00
FF000007FF00
FF000003FF80
FF000001FF80
FF000000FF80
FF000000FF80
FF000000FFC0
FF0000007FC0
FF0000007FC0
FF0000007FC0
FF0000007F80
FF000000FF80
FF000000FF80
FF000001FF80
FF000001FF00
FF000007FF00
FF00000FFE00
FF00007FFC00
FFFFFFFFF800
FFFFFFFFF000
FFFFFFFFC000
FFFFFFFFC000
FFFFFFFFF000
FFFFFFFFFC00
FFFFFFFFFF00
FF0001FFFF80
FF000007FFC0
FF000001FFC0
FF0000007FE0
FF0000003FE0
FF0000003FF0
FF0000001FF0
FF0000001FF0
FF0000001FF0
FF0000000FF8
FF0000000FF8
FF0000000FF8
FF0000000FF8
FF0000001FF0
FF0000001FF0
FF0000001FF0
FF0000003FF0
FF0000007FF0
FF000000FFE0
FF000001FFE0
FF000007FFC0
FF00003FFF80
FFFFFFFFFF80
FFFFFFFFFF00
FFFFFFFFFC00
FFFFFFFFF800
FFFFFFFFE000
FFFFFFFF0000
3FFFFFF00000
000180000000
ENDCHAR
STARTCHAR 0043
ENCODING 67
SWIDTH 618 0
DWIDTH 55 0
BBX 48 64 5 -1
BITMAP
000000FFF000
00000FFFFF80
00007FFFFFF0
0001FFFFFFFC
0003FFFFFFFE
000FFFFFFFFE
001FFFFFFFFE
003FFFFFFFFC
007FFF0003FC
00FFF800007C
01FFE0000018
03FFC0000000
03FF80000000
07FF00000000
0FFE00000000
0FFC00000000
1FF800000000
1FF800000000
3FF000000000
3FF000000000
3FE000000000
7FE000000000
7FE000000000
7FC000000000
7FC000000000
7FC000000000
FFC000000000
FFC000000000
FF8000000000
FF8000000000
FF8000000000
FF8000000000
FF8000000000
FF8000000000
FF8000000000
FF8000000000
FFC000000000
FFC000000000
7FC000000000
7FC000000000
7FC000000000
7FC000000000
7FE000000000
7FE000000000
3FE000000000
3FF000000000
3FF000000000
1FF800000000
1FF800000000
0FFC00000000
0FFE00000000
07FF00000000
07FF80000000
03FFC0000004
01FFF000001C
00FFFC0000FC
007FFFE01FFE
003FFFFFFFFE
001FFFFFFFFE
000FFFFFFFFF
0003FFFFFFFF
0000FFFFFFFC
00003FFFFFE0
000007FFFE00
ENDCHAR
STARTCHAR 0044
ENCODING 68
SWIDTH 708 0
DWIDTH 63 0
BBX 50 63 8 -1
BITMAP
0FFFFF80000000
FFFFFFF8000000
FFFFFFFF000000
FFFFFFFFE00000
FFFFFFFFF00000
FFFFFFFFFC0000
FFFFFFFFFF0000
FFC01FFFFF8000
FF00003FFFC000
FF000007FFE000
FF000001FFF000
FF0000007FF000
FF0000003FF800
FF0000001FFC00
FF0000000FFC00
FF00000007FE00
FF00000007FE00
FF00000003FF00
FF00000003FF00
FF00000001FF80
FF00000001FF80
FF00000000FF80
FF00000000FF80
FF00000000FFC0
FF00000000FFC0
FF000000007FC0
FF000000007FC0
FF000000007FC0
FF000000007FC0
FF000000007FC0
FF000000007FC0
FF000000007FC0
FF000000007FC0
FF000000007FC0
FF000000007FC0
FF000000007FC0
FF000000007FC0
FF00000000FFC0
FF00000000FFC0
FF00000000FF80
FF00000000FF80
FF00000001FF80
FF00000001FF80
FF00000001FF00
FF00000003FF00
FF00000007FF00
FF00000007FE00
FF0000000FFE00
FF0000001FFC00
FF0000003FF800
FF0000007FF800
FF000000FFF000
FF000003FFE000
FF00001FFFC000
FF0001FFFF8000
FFFFFFFFFF0000
FFFFFFFFFE0000
FFFFFFFFF80000
FFFFFFFFE00000
FFFFFFFF800000
FFFFFFFC000000
3FFFFFE0000000
00010000000000
ENDCHAR
STARTCHAR 0045
ENCODING 69
SWIDTH 562 0
DWIDTH 50 0
BBX 39 62 8 0
BITMAP
FFFFFFFFF8
FFFFFFFFF8
FFFFFFFFF8
FFFFFFFFF8
FFFFFFFFF8
FFFFFFFFF8
FFFFFFFFF8
FFFFFFFFF8
FF00000000
FF00000000
FF00000000
FF00000000
FF00000000
FF00000000
FF00000000
FF00000000
FF00000000
FF00000000
FF00000000
FF00000000
FF00000000
FF00000000
FF00000000
FF00000000
FF00000000
FF00000000
FFFFFFFFC0
FFFFFFFFC0
FFFFFFFFC0
FFFFFFFFC0
FFFFFFFFC0
FFFFFFFFC0
FFFFFFFFC0
FF00000000
FF00000000
FF00000000
FF00000000
FF00000000
FF00000000
FF00000000
FF00000000
FF00000000
FF00000000
FF00000000
FF00000000
FF00000000
FF00000000
FF00000000
FF00000000
FF00000000
FF00000000
FF00000000
FF00000000
FF00000000
FF00000000
FFFFFFFFFE
FFFFFFFFFE
FFFFFFFFFE
FFFFFFFFFE
FFFFFFFFFE
FFFFFFFFFE
FFFFFFFFFE
ENDCHAR
STARTCHAR 0046
ENCODING 70
SWIDTH 528 0
DWIDTH 47 0
BBX 37 62 8 0
BITMAP
FFFFFFFFF8
FFFFFFFFF8
FFFFFFFFF8
FFFFFFFFF8
FFFFFFFFF8
FFFFFFFFF8
FFFFFFFFF8
FFFFFFFFF8
FF00000000
FF00000000
FF00000000
FF00000000
FF00000000
FF00000000
FF00000000
FF00000000
FF00000000
FF00000000
FF00000000
FF00000000
FF00000000
FF00000000
FF00000000
FF00000000
FF00000000
FF00000000
FFFFFFFFC0
FFFFFFFFC0
FFFFFFFFC0
FFFFFFFFC0
FFFFFFFFC0
FFFFFFFFC0
FFFFFFFFC0
FFFFFFFFC0
FF00000000
FF00000000
FF00000000
FF00000000
FF00000000
FF00000000
FF00000000
FF00000000
FF00000000
FF00000000
FF00000000
FF00000000
FF00000000
FF00000000
FF00000000
FF00000000
FF00000000
FF00000000
FF00000000
FF00000000
FF00000000
FF00000000
FF00000000
FF00000000
FF00000000
FF00000000
FF00000000
FF00000000
ENDCHAR
STARTCHAR 0047
ENCODING 71
SWIDTH 663 0
DWIDTH 59 0
BBX 49 64 5 -1
BITMAP
000000FFF80000
00000FFFFFC000
00007FFFFFF800
0001FFFFFFFE00
0003FFFFFFFF00
000FFFFFFFFF00
001FFFFFFFFF00
003FFFFFFFFE00
007FFF0003FE00
00FFF800003E00
01FFE000000C00
03FFC000000000
03FF8000000000
07FF0000000000
0FFE0000000000
0FFC0000000000
1FF80000000000
1FF80000000000
3FF00000000000
3FF00000000000
3FE00000000000
7FE00000000000
7FE00000000000
7FC00000000000
7FC00000000000
7FC00000000000
FFC00000000000
FFC00000000000
FF800000000000
FF800000000000
FF800000000000
FF800000000000
FF800000000000
FF80000000FF80
FF80000000FF80
FF80000000FF80
FFC0000000FF80
FFC0000000FF80
7FC0000000FF80
7FC0000000FF80
7FC0000000FF80
7FC0000000FF80
7FE0000000FF80
7FE0000000FF80
3FE0000000FF80
3FF0000000FF80
3FF0000000FF80
1FF8000000FF80
1FF8000000FF80
0FFC000000FF80
0FFE000000FF80
07FF000000FF80
07FF800000FF80
03FFC00000FF80
01FFF00000FF80
00FFFC0000FF80
007FFFE01FFF80
003FFFFFFFFF80
001FFFFFFFFF80
000FFFFFFFFF80
0003FFFFFFFF80
0000FFFFFFFF80
00003FFFFFF800
000003FFFE0000
ENDCHAR
STARTCHAR 0048
ENCODING 72
SWIDTH 697 0
DWIDTH 62 0
BBX 47 62 8 0
BITMAP
FF00000003FE
FF00000003FE
FF00000003FE
FF00000003FE
FF00000003FE
FF00000003FE
FF00000003FE
FF00000003FE
FF00000003FE
FF00000003FE
FF00000003FE
FF00000003FE
FF00000003FE
FF00000003FE
FF00000003FE
FF00000003FE
FF00000003FE
FF00000003FE
FF00000003FE
FF00000003FE
FF00000003FE
FF00000003FE
FF00000003FE
FF00000003FE
FF00000003FE
FF00000003FE
FFFFFFFFFFFE
FFFFFFFFFFFE
FFFFFFFFFFFE
FFFFFFFFFFFE
FFFFFFFFFFFE
FFFFFFFFFFFE
FFFFFFFFFFFE
FFFFFFFFFFFE
FF00000003FE
FF00000003FE
FF00000003FE
FF00000003FE
FF00000003FE
FF00000003FE
FF00000003FE
FF00000003FE
FF00000003FE
FF00000003FE
FF00000003FE
FF00000003FE
FF00000003FE
FF00000003FE
FF00000003FE
FF00000003FE
FF00000003FE
FF00000003FE
FF00000003FE
FF00000003FE
FF00000003FE
FF00000003FE
FF00000003FE
FF00000003FE
FF00000003FE
FF00000003FE
FF00000003FE
FF00000003FE
ENDCHAR
STARTCHAR 0049
ENCODING 73
SWIDTH 258 0
DWIDTH 23 0
BBX 8 62 8 0
BITMAP
FF
FF
FF
FF
FF
FF
FF
FF
FF
FF
FF
FF
FF
FF
FF
FF
FF
FF
FF
FF
FF
FF
FF
FF
FF
FF
FF
FF
FF
FF
FF
FF
FF
FF
FF
FF
FF
FF
FF
FF
FF
FF
FF
FF
FF
FF
FF
FF
FF
FF
FF
FF
FF
FF
FF
FF
FF
FF
FF
FF
FF
FF
ENDCHAR
STARTCHAR 004A
ENCODING 74
SWIDTH 495 0
DWIDTH 44 0
BBX 36 63 1 -1
BITMAP
0000000FF0
0000000FF0
0000000FF0
0000000FF0
0000000FF0
0000000FF0
0000000FF0
0000000FF0
0000000FF0
0000000FF0
0000000FF0
0000000FF0
0000000FF0
0000000FF0
0000000FF0
0000000FF0
0000000FF0
0000000FF0
0000000FF0
0000000FF0
0000000FF0
0000000FF0
0000000FF0
0000000FF0
0000000FF0
0000000FF0
0000000FF0
0000000FF0
0000000FF0
0000000FF0
0000000FF0
0000000FF0
0000000FF0
0000000FF0
0000000FF0
0000000FF0
0000000FF0
0000000FF0
0000000FF0
0000000FF0
0000000FF0
0000000FF0
0000000FF0
0000000FF0
0000001FF0
0000001FF0
0000001FF0
0000001FF0
0000001FF0
0000003FF0
0000003FE0
0000007FE0
1800007FE0
3C0000FFC0
3F0003FFC0
7FF01FFF80
7FFFFFFF80
FFFFFFFF00
FFFFFFFE00
7FFFFFFC00
1FFFFFF000
07FFFFC000
007FFE0000
ENDCHAR
STARTCHAR 004B
ENCODING 75
SWIDTH 618 0
DWIDTH 55 0
BBX 47 62 8 0
BITMAP
FF0000001FF8
FF0000003FF0
FF0000007FE0
FF000000FFC0
FF000001FF80
FF000003FF80
FF000007FF00
FF00000FFE00
FF00001FFC00
FF00003FF800
FF00007FF000
FF0000FFE000
FF0000FFC000
FF0001FF8000
FF0003FF0000
FF0007FE0000
FF000FFC0000
FF001FF80000
FF003FF00000
FF007FE00000
FF00FFC00000
FF01FF800000
FF03FF000000
FF07FE000000
FF1FFC000000
FF3FF8000000
FF7FF0000000
FFFFE0000000
FFFFC0000000
FFFFC0000000
FFFFE0000000
FFFFF0000000
FFFFFC000000
FF7FFE000000
FF1FFF000000
FF0FFF800000
FF03FFC00000
FF01FFE00000
FF00FFF00000
FF007FF80000
FF003FFC0000
FF000FFE0000
FF0007FF0000
FF0003FF8000
FF0001FFC000
FF0000FFE000
FF00007FF000
FF00003FF800
FF00001FFC00
FF00000FFC00
FF00000FFE00
FF000007FF00
FF000003FF80
FF000001FFC0
FF000000FFC0
FF0000007FE0
FF0000007FF0
FF0000003FF8
FF0000001FF8
FF0000000FFC
FF0000000FFC
FF00000007FE
ENDCHAR
STARTCHAR 004C
ENCODING 76
SWIDTH 517 0
DWIDTH 46 0
BBX 37 62 8 0
BITMAP
FF00000000
FF00000000
FF00000000
FF00000000
FF00000000
FF00000000
FF00000000
FF00000000
FF00000000
FF00000000
FF00000000
FF00000000
FF00000000
FF00000000
FF00000000
FF00000000
FF00000000
FF00000000
FF00000000
FF00000000
FF00000000
FF00000000
FF00000000
FF00000000
FF00000000
FF00000000
FF00000000
FF00000000
FF00000000
FF00000000
FF00000000
FF00000000
FF00000000
FF00000000
FF00000000
FF00000000
FF00000000
FF00000000
FF00000000
FF00000000
FF00000000
FF00000000
FF00000000
FF00000000
FF00000000
FF00000000
FF00000000
FF00000000
FF00000000
FF00000000
FF00000000
FF00000000
FF00000000
FF00000000
FF00000000
FFFFFFFFF8
FFFFFFFFF8
FFFFFFFFF8
FFFFFFFFF8
FFFFFFFFF8
FFFFFFFFF8
FFFFFFFFF8
ENDCHAR
STARTCHAR 004D
ENCODING 77
SWIDTH 866 0
DWIDTH 77 0
BBX 66 62 6 0
BITMAP
0FF00000000007F800
0FF80000000007F800
0FF8000000000FF800
0FFC000000000FF800
0FFC000000001FF800
0FFE000000003FFC00
0FFF000000003FFC00
0FFF000000007FFC00
0FFF800000007FFC00
1FFF80000000FFFC00
1FFFC0000000FFFC00
1FFFC0000001FFFC00
1FFFE0000001FFFC00
1FFFE0000003FFFC00
1FFFF0000003FFFC00
1FEFF0000007FDFC00
1FEFF8000007F9FE00
1FE7F800000FF9FE00
1FE7FC00000FF1FE00
1FE3FC00001FF1FE00
3FE3FE00001FE1FE00
3FC1FE00003FE1FE00
3FC1FE00003FC1FE00
3FC0FF00003FC1FE00
3FC0FF00007F81FE00
3FC07F80007F81FE00
3FC07F8000FF01FE00
3FC03FC000FF01FE00
3FC03FC001FE00FE00
3FC03FE001FE00FF00
3FC01FE003FE00FF00
3FC01FF003FC00FF00
3FC00FF007FC00FF00
7FC00FF807F800FF00
7FC007F807F800FF00
7FC007F80FF000FF00
7FC003FC0FF000FF00
7F8003FC1FE000FF00
7F8001FE1FE000FF00
7F8001FE3FC000FF00
7F8000FF3FC000FF00
7F8000FF7F8000FF00
7F8000FF7F8000FF00
7F80007FFF8000FF80
7F80007FFF0000FF80
7F80003FFF0000FF80
7F80003FFE0000FF80
7F80001FFE00007F80
7F80001FFC00007F80
7F80000FFC00007F80
FF80000FF800007F80
FF80000FF800007F80
FF800007F800007F80
FF8000000000007F80
FF8000000000007F80
FF8000000000007F80
FF8000000000007F80
FF8000000000007F80
FF8000000000007F80
FF8000000000007F80
FF0000000000007F80
FF0000000000007FC0
ENDCHAR
STARTCHAR 004E
ENCODING 78
SWIDTH 720 0
DWIDTH 64 0
BBX 49 62 8 0
BITMAP
FE000000007F80
FF000000007F80
FF000000007F80
FF800000007F80
FFC00000007F80
FFE00000007F80
FFF00000007F80
FFF80000007F80
FFFC0000007F80
FFFC0000007F80
FFFE0000007F80
FFFF0000007F80
FFFF8000007F80
FFFFC000007F80
FF7FC000007F80
FF7FE000007F80
FF3FF000007F80
FF1FF800007F80
FF0FF800007F80
FF07FC00007F80
FF03FE00007F80
FF03FF00007F80
FF01FF80007F80
FF00FF80007F80
FF007FC0007F80
FF007FE0007F80
FF003FE0007F80
FF001FF0007F80
FF000FF8007F80
FF000FFC007F80
FF0007FC007F80
FF0003FE007F80
FF0003FF007F80
FF0001FF007F80
FF0000FF807F80
FF00007FC07F80
FF00007FC07F80
FF00003FE07F80
FF00001FF07F80
FF00001FF07F80
FF00000FF87F80
FF000007FC7F80
FF000007FC7F80
FF000003FE7F80
FF000001FF7F80
FF000001FF7F80
FF000000FFFF80
FF0000007FFF80
FF0000007FFF80
FF0000003FFF80
FF0000001FFF80
FF0000001FFF80
FF0000000FFF80
FF00000007FF80
FF00000007FF80
FF00000003FF80
FF00000001FF80
FF00000001FF80
FF00000000FF80
FF00000000FF80
FF000000007F80
FF000000003F80
ENDCHAR
STARTCHAR 004F
ENCODING 79
SWIDTH 776 0
DWIDTH 69 0
BBX 59 64 5 -1
BITMAP
000000FFF0000000
00000FFFFF000000
00007FFFFFC00000
0001FFFFFFF00000
0007FFFFFFFC0000
000FFFFFFFFE0000
001FFFFFFFFF8000
003FFFFFFFFFC000
007FFE000FFFE000
00FFF80003FFF000
01FFE00000FFF000
03FF8000003FF800
07FF0000001FFC00
07FE0000000FFC00
0FFC00000007FE00
0FFC00000007FE00
1FF800000003FF00
1FF000000001FF00
3FF000000001FF80
3FF000000001FF80
3FE000000000FF80
7FE000000000FFC0
7FE0000000007FC0
7FC0000000007FC0
7FC0000000007FC0
7FC0000000007FE0
FFC0000000007FE0
FF80000000003FE0
FF80000000003FE0
FF80000000003FE0
FF80000000003FE0
FF80000000003FE0
FF80000000003FE0
FF80000000003FE0
FF80000000003FE0
FF80000000003FE0
FF80000000003FE0
FFC0000000007FE0
7FC0000000007FE0
7FC0000000007FC0
7FC0000000007FC0
7FC0000000007FC0
7FE000000000FFC0
3FE000000000FFC0
3FE000000000FF80
3FF000000001FF80
1FF000000001FF00
1FF800000003FF00
0FFC00000003FF00
0FFC00000007FE00
07FE0000000FFE00
07FF0000001FFC00
03FF8000003FF800
01FFC000007FF800
01FFF00001FFF000
00FFFC0007FFE000
007FFFE07FFFC000
003FFFFFFFFF8000
001FFFFFFFFF0000
0007FFFFFFFC0000
0003FFFFFFF80000
0000FFFFFFE00000
00001FFFFF800000
000003FFF8000000
ENDCHAR
STARTCHAR 0050
ENCODING 80
SWIDTH 607 0
DWIDTH 54 0
BBX 43 62 8 0
BITMAP
0FFFFF800000
FFFFFFF80000
FFFFFFFF0000
FFFFFFFFC000
FFFFFFFFF000
FFFFFFFFF800
FFFFFFFFFC00
FFE00FFFFE00
FF00003FFF00
FF00000FFF00
FF000003FF80
FF000001FF80
FF000000FFC0
FF000000FFC0
FF0000007FC0
FF0000007FE0
FF0000003FE0
FF0000003FE0
FF0000003FE0
FF0000003FE0
FF0000003FE0
FF0000003FE0
FF0000003FE0
FF0000007FE0
FF0000007FC0
FF000000FFC0
FF000000FFC0
FF000001FF80
FF000003FF80
FF00000FFF00
FF00003FFF00
FF000FFFFE00
FFFFFFFFFC00
FFFFFFFFF800
FFFFFFFFF000
FFFFFFFFC000
FFFFFFFF0000
FFFFFFF80000
FFFFFF800000
FF0000000000
FF0000000000
FF0000000000
FF0000000000
FF0000000000
FF0000000000
FF0000000000
FF0000000000
FF0000000000
FF0000000000
FF0000000000
FF0000000000
FF0000000000
FF0000000000
FF0000000000
FF0000000000
FF0000000000
FF0000000000
FF0000000000
FF0000000000
FF0000000000
FF0000000000
FF0000000000
ENDCHAR
STARTCHAR 0051
ENCODING 81
SWIDTH 776 0
DWIDTH 69 0
BBX 59 79 5 -16
BITMAP
000000FFF0000000
00000FFFFF000000
00007FFFFFC00000
0001FFFFFFF00000
0007FFFFFFFC0000
000FFFFFFFFE0000
001FFFFFFFFF8000
003FFFFFFFFFC000
007FFE000FFFE000
00FFF80003FFF000
01FFE00000FFF000
03FF8000003FF800
07FF0000001FFC00
07FE0000000FFC00
0FFC00000007FE00
0FFC00000007FE00
1FF800000003FF00
1FF000000001FF00
3FF000000001FF80
3FF000000001FF80
3FE000000000FF80
7FE000000000FFC0
7FE0000000007FC0
7FC0000000007FC0
7FC0000000007FC0
7FC0000000007FE0
FFC0000000007FE0
FF80000000003FE0
FF80000000003FE0
FF80000000003FE0
FF80000000003FE0
FF80000000003FE0
FF80000000003FE0
FF80000000003FE0
FF80000000003FE0
FF80000000003FE0
FF80000000003FE0
FFC0000000007FE0
7FC0000000007FE0
7FC0000000007FC0
7FC0000000007FC0
7FC0000000007FC0
7FE000000000FFC0
3FE000000000FFC0
3FE000000000FF80
3FF000000001FF80
1FF000000001FF00
1FF800000003FF00
0FFC00000003FF00
0FFC00000007FE00
07FE0000000FFE00
07FF0000001FFC00
03FF8000003FF800
01FFC000007FF800
01FFF00001FFF000
00FFFC0007FFE000
007FFFE07FFFC000
003FFFFFFFFF8000
001FFFFFFFFF0000
0007FFFFFFFC0000
0003FFFFFFF80000
0000FFFFFFE00000
00001FFFFF000000
000003FFF0000000
0000001FF0000000
0000000FF0000000
0000000FF8000000
0000000FFC000000
00000007FE000000
00000007FF800000
00000003FFF00000
00000001FFFF0000
00000000FFFFF800
000000007FFFFC00
000000001FFFFC00
0000000007FFFC00
0000000001FFF800
00000000003FF800
000000000001F800
ENDCHAR
STARTCHAR 0052
ENCODING 82
SWIDTH 618 0
DWIDTH 55 0
BBX 46 62 8 0
BITMAP
0FFFFF800000
FFFFFFF80000
FFFFFFFF0000
FFFFFFFFC000
FFFFFFFFF000
FFFFFFFFF800
FFFFFFFFFC00
FFE00FFFFE00
FF00003FFF00
FF00000FFF00
FF000003FF80
FF000001FF80
FF000000FFC0
FF000000FFC0
FF0000007FC0
FF0000007FC0
FF0000007FC0
FF0000007FE0
FF0000007FE0
FF0000007FE0
FF0000007FE0
FF0000007FC0
FF0000007FC0
FF0000007FC0
FF000000FFC0
FF000000FFC0
FF000001FF80
FF000003FF80
FF000007FF00
FF00003FFF00
FF000FFFFE00
FFFFFFFFFC00
FFFFFFFFF800
FFFFFFFFE000
FFFFFFFFC000
FFFFFFFF0000
FFFFFFFC0000
FFFFFFFE0000
FF0007FF0000
FF0003FF0000
FF0001FF8000
FF0000FFC000
FF0000FFE000
FF00007FE000
FF00003FF000
FF00001FF800
FF00001FF800
FF00000FFC00
FF000007FE00
FF000007FE00
FF000003FF00
FF000001FF80
FF000001FF80
FF000000FFC0
FF0000007FC0
FF0000007FE0
FF0000003FF0
FF0000003FF0
FF0000001FF8
FF0000000FF8
FF0000000FFC
FF00000007FC
ENDCHAR
STARTCHAR 0053
ENCODING 83
SWIDTH 528 0
DWIDTH 47 0
BBX 42 64 3 -1
BITMAP
0000FFF80000
000FFFFF8000
003FFFFFF000
00FFFFFFFC00
01FFFFFFFE00
03FFFFFFFC00
07FFFFFFFC00
0FFFF9FFFC00
1FFF0003F800
1FFC00007800
3FF800000000
3FF000000000
3FE000000000
3FE000000000
7FC000000000
7FC000000000
7FC000000000
7FC000000000
7FE000000000
7FE000000000
3FE000000000
3FF000000000
3FF800000000
3FFC00000000
1FFF00000000
0FFFC0000000
0FFFF0000000
07FFFE000000
03FFFF800000
01FFFFE00000
007FFFFC0000
003FFFFF0000
000FFFFF8000
0001FFFFE000
00007FFFF000
00000FFFF800
000001FFFC00
0000007FFE00
0000001FFE00
0000000FFF00
00000007FF00
00000003FF80
00000001FF80
00000000FF80
00000000FF80
00000000FF80
00000000FFC0
00000000FFC0
00000000FFC0
00000000FF80
00000000FF80
00000000FF80
00000001FF80
30000003FF80
3C000007FF00
3F80001FFF00
7FF800FFFE00
7FFFFFFFFC00
FFFFFFFFF800
FFFFFFFFF000
7FFFFFFFE000
1FFFFFFF8000
03FFFFFE0000
003FFFF00000
ENDCHAR
STARTCHAR 0054
ENCODING 84
SWIDTH 562 0
DWIDTH 50 0
BBX 48 62 1 0
BITMAP
FFFFFFFFFFFF
FFFFFFFFFFFF
FFFFFFFFFFFF
FFFFFFFFFFFF
FFFFFFFFFFFF
FFFFFFFFFFFF
FFFFFFFFFFFF
FFFFFFFFFFFF
00000FF00000
00000FF00000
00000FF00000
00000FF00000
00000FF00000
00000FF00000
00000FF00000
00000FF00000
00000FF00000
00000FF00000
00000FF00000
00000FF00000
00000FF00000
00000FF00000
00000FF00000
00000FF00000
00000FF00000
00000FF00000
00000FF00000
00000FF00000
00000FF00000
00000FF00000
00000FF00000
00000FF00000
00000FF00000
00000FF00000
00000FF00000
00000FF00000
00000FF00000
00000FF00000
00000FF00000
00000FF00000
00000FF00000
00000FF00000
00000FF00000
00000FF00000
00000FF00000
00000FF00000
00000FF00000
00000FF00000
00000FF00000
00000FF00000
00000FF00000
00000FF00000
00000FF00000
00000FF00000
00000FF00000
00000FF00000
00000FF00000
00000FF00000
00000FF00000
00000FF00000
00000FF00000
00000FF00000
ENDCHAR
STARTCHAR 0055
ENCODING 85
SWIDTH 686 0
DWIDTH 61 0
BBX 47 63 7 -1
BITMAP
FF80000003FE
FF80000003FE
FF80000003FE
FF80000003FE
FF80000003FE
FF80000003FE
FF80000003FE
FF80000003FE
FF80000003FE
FF80000003FE
FF80000003FE
FF80000003FE
FF80000003FE
FF80000003FE
FF80000003FE
FF80000003FE
FF80000003FE
FF80000003FE
FF80000003FE
FF80000003FE
FF80000003FE
FF80000003FE
FF80000003FE
FF80000003FE
FF80000003FE
FF80000003FE
FF80000003FE
FF80000003FE
FF80000003FE
FF80000003FE
FF80000003FE
FF80000003FE
FF80000003FE
FF80000003FE
FF80000003FE
FF80000003FE
FF80000003FE
FF80000003FE
FF80000003FE
FF80000003FE
FF80000003FE
FF80000003FE
FF80000003FE
FF80000003FE
7F80000003FE
7FC0000007FC
7FC0000007FC
7FC0000007FC
3FE000000FFC
3FE000000FF8
3FF000001FF8
1FF800003FF0
1FFC00007FF0
0FFE0000FFE0
0FFF8003FFE0
07FFF83FFFC0
03FFFFFFFF80
01FFFFFFFF00
00FFFFFFFE00
007FFFFFFC00
001FFFFFF000
0007FFFFC000
0000FFFE0000
ENDCHAR
STARTCHAR 0056
ENCODING 86
SWIDTH 652 0
DWIDTH 58 0
BBX 56 62 1 0
BITMAP
FF8000000001FF
FFC000000001FF
7FC000000003FF
7FC000000003FE
7FE000000003FE
3FE000000007FE
3FE000000007FC
3FF000000007FC
1FF00000000FFC
1FF80000000FF8
1FF80000000FF8
0FF80000001FF8
0FFC0000001FF0
0FFC0000001FF0
07FC0000003FE0
07FE0000003FE0
03FE0000003FE0
03FE0000007FC0
03FF0000007FC0
01FF0000007FC0
01FF000000FF80
01FF800000FF80
00FF800000FF00
00FF800001FF00
007FC00001FF00
007FC00001FE00
007FC00003FE00
003FE00003FE00
003FE00007FC00
003FF00007FC00
001FF00007F800
001FF0000FF800
000FF8000FF800
000FF8000FF000
000FF8001FF000
0007FC001FE000
0007FC003FE000
0003FE003FE000
0003FE003FC000
0003FE007FC000
0001FF007F8000
0001FF007F8000
0000FF00FF8000
0000FF80FF0000
00007F81FF0000
00007FC1FE0000
00007FC1FE0000
00003FE3FE0000
00003FE3FC0000
00001FE7FC0000
00001FF7F80000
00001FFFF80000
00000FFFF00000
00000FFFF00000
000007FFF00000
000007FFE00000
000003FFE00000
000003FFC00000
000001FFC00000
000001FF800000
000001FF800000
000000FF000000
ENDCHAR
STARTCHAR 0057
ENCODING 87
SWIDTH 922 0
DWIDTH 82 0
BBX 78 62 2 0
BITMAP
FFC000000000000007FC
7FC000000000000007FC
7FC000000000000007FC
7FC000000000000007FC
7FC000000000000007F8
7FC00000000000000FF8
3FE00000000000000FF8
3FE00000000000000FF8
3FE000001FE000000FF8
3FE000001FF000000FF0
3FE000001FF000001FF0
3FF000001FF000001FF0
1FF000003FF800001FF0
1FF000003FF800001FF0
1FF000003FF800001FE0
1FF000007FFC00003FE0
1FF800007FFC00003FE0
0FF800007FFC00003FE0
0FF80000FFFC00003FE0
0FF80000FFFE00003FC0
0FF80000FFFE00007FC0
07FC0001FEFE00007FC0
07FC0001FEFF00007FC0
07FC0001FCFF00007F80
07FC0003FC7F00007F80
07FC0003FC7F8000FF80
03FE0003F87F8000FF80
03FE0007F83FC000FF80
03FE0007F83FC000FF00
03FE0007F03FC000FF00
01FE000FF01FE001FF00
01FF000FF01FE001FF00
01FF000FE01FE001FE00
01FF001FE00FF001FE00
01FF001FE00FF001FE00
00FF803FC00FF003FE00
00FF803FC007F803FC00
00FF803FC007F803FC00
00FF807F8007FC03FC00
007FC07F8003FC07FC00
007FC07F0003FC07F800
007FC0FF0001FE07F800
003FC0FF0001FE07F800
003FE0FE0001FE0FF800
003FE1FE0000FF0FF000
003FE1FE0000FF0FF000
001FE3FC0000FF8FF000
001FF3FC00007F9FF000
001FF3F800007F9FE000
001FF7F800007FDFE000
000FF7F800003FDFE000
000FFFF000003FFFC000
000FFFF000001FFFC000
0007FFE000001FFFC000
0007FFE000001FFF8000
0007FFE000000FFF8000
0003FFC000000FFF8000
0003FFC0000007FF8000
0003FFC0000007FF0000
0001FF80000007FF0000
0001FF80000003FF0000
0001FF00000003FE0000
ENDCHAR
STARTCHAR 0058
ENCODING 88
SWIDTH 630 0
DWIDTH 56 0
BBX 52 62 2 0
BITMAP
7FE00000007FE0
3FF0000000FFC0
3FF0000000FF80
1FF8000001FF80
0FFC000003FF00
0FFC000003FE00
07FE000007FE00
03FF00000FFC00
03FF00000FF800
01FF80001FF800
00FFC0003FF000
00FFC0003FE000
007FE0007FE000
003FE000FFC000
003FF000FF8000
001FF801FF8000
000FF803FF0000
000FFC03FE0000
0007FE07FE0000
0003FE0FFC0000
0003FF0FF80000
0001FF9FF80000
0000FF9FF00000
00007FFFE00000
00007FFFE00000
00003FFFC00000
00001FFF800000
00001FFF800000
00000FFF000000
000007FF000000
00000FFF000000
00001FFF800000
00003FFFC00000
00003FFFE00000
00007FFFE00000
0000FFFFF00000
0000FF9FF80000
0001FF9FF80000
0003FF0FFC0000
0003FE07FE0000
0007FE07FE0000
000FFC03FF0000
000FF801FF8000
001FF801FF8000
003FF000FFC000
003FE0007FE000
007FE0007FE000
00FFC0003FF000
00FF80001FF800
01FF80001FF800
01FF00000FFC00
03FF000007FC00
07FE000007FE00
07FC000003FF00
0FFC000003FF00
0FF8000001FF80
1FF8000000FF80
3FF0000000FFC0
3FE00000007FC0
7FE00000007FE0
7FC00000003FF0
FFC00000003FF0
ENDCHAR
STARTCHAR 0059
ENCODING 89
SWIDTH 596 0
DWIDTH 53 0
BBX 52 62 1 0
BITMAP
FFC00000003FF0
FFC00000007FE0
7FE00000007FC0
7FE0000000FFC0
3FF0000000FF80
3FF0000001FF80
1FF8000001FF00
1FF8000003FF00
0FFC000003FE00
07FC000007FE00
07FE000007FC00
03FE00000FF800
03FF00000FF800
01FF00001FF000
01FF80001FF000
00FF80003FE000
007FC0003FE000
007FE0007FC000
003FE000FF8000
003FF000FF8000
001FF001FF0000
001FF801FF0000
000FF803FE0000
0007FC03FC0000
0007FE07FC0000
0003FE0FF80000
0003FF0FF80000
0001FF1FF00000
0000FF9FE00000
0000FFFFE00000
00007FFFC00000
00003FFF800000
00003FFF800000
00001FFF000000
00001FFF000000
00000FFE000000
000007FC000000
000007FC000000
000007FC000000
000007FC000000
000007FC000000
000007FC000000
000007FC000000
000007FC000000
000007FC000000
000007FC000000
000007FC000000
000007FC000000
000007FC000000
000007FC000000
000007FC000000
000007FC000000
000007FC000000
000007FC000000
000007FC000000
000007FC000000
000007FC000000
000007FC000000
000007FC000000
000007FC000000
000007FC000000
000007FC000000
ENDCHAR
STARTCHAR 005A
ENCODING 90
SWIDTH 562 0
DWIDTH 50 0
BBX 45 62 3 0
BITMAP
3FFFFFFFFFF0
3FFFFFFFFFF0
3FFFFFFFFFF0
3FFFFFFFFFF0
3FFFFFFFFFF0
3FFFFFFFFFF0
3FFFFFFFFFF0
3FFFFFFFFFF0
000000007FE0
00000000FFC0
00000001FF80
00000003FF00
00000007FE00
0000000FFC00
0000000FFC00
0000001FF800
0000003FF000
0000007FE000
0000007FC000
000000FFC000
000001FF8000
000003FF0000
000003FE0000
000007FE0000
00000FFC0000
00001FF80000
00001FF00000
00003FF00000
00007FE00000
00007FC00000
0000FF800000
0001FF800000
0001FF000000
0003FE000000
0007FE000000
000FFC000000
000FF8000000
001FF8000000
001FF0000000
003FE0000000
007FE0000000
007FC0000000
00FF80000000
01FF80000000
01FF00000000
03FE00000000
07FE00000000
07FC00000000
0FFC00000000
0FF800000000
1FF000000000
3FF000000000
3FE000000000
7FE000000000
7FC000000000
FFFFFFFFFFF8
FFFFFFFFFFF8
FFFFFFFFFFF8
FFFFFFFFFFF8
FFFFFFFFFFF8
FFFFFFFFFFF8
FFFFFFFFFFF8
ENDCHAR
STARTCHAR 005B
ENCODING 91
SWIDTH 326 0
DWIDTH 29 0
BBX 20 86 9 -16
BITMAP
FFFFF0
FFFFF0
FFFFF0
FFFFF0
FFFFF0
FFFFF0
FFFFF0
FE0000
FE0000
FE0000
FE0000
FE0000
FE0000
FE0000
FE0000
FE0000
FE0000
FE0000
FE0000
FE0000
FE0000
FE0000
FE0000
FE0000
FE0000
FE0000
FE0000
FE0000
FE0000
FE0000
FE0000
FE0000
FE0000
FE0000
FE0000
FE0000
FE0000
FE0000
FE0000
FE0000
FE0000
FE0000
FE0000
FE0000
FE0000
FE0000
FE0000
FE0000
FE0000
FE0000
FE0000
FE0000
FE0000
FE0000
FE0000
FE0000
FE0000
FE0000
FE0000
FE0000
FE0000
FE0000
FE0000
FE0000
FE0000
FE0000
FE0000
FE0000
FE0000
FE0000
FE0000
FE0000
FE0000
FE0000
FE0000
FE0000
FE0000
FE0000
FE0000
FE0000
FFFFF0
FFFFF0
FFFFF0
FFFFF0
FFFFF0
FFFFF0
ENDCHAR
STARTCHAR 005C
ENCODING 92
SWIDTH 382 0
DWIDTH 34 0
BBX 38 86 -2 -16
BITMAP
FF00000000
FF80000000
7F80000000
7F80000000
7FC0000000
3FC0000000
3FC0000000
3FE0000000
1FE0000000
1FE0000000
1FF0000000
0FF0000000
0FF0000000
0FF8000000
07F8000000
07F8000000
07FC000000
03FC000000
03FC000000
01FE000000
01FE000000
01FF000000
00FF000000
00FF000000
00FF800000
007F800000
007F800000
007FC00000
003FC00000
003FC00000
003FE00000
001FE00000
001FE00000
001FF00000
000FF00000
000FF00000
000FF80000
0007F80000
0007F80000
0007FC0000
0003FC0000
0003FE0000
0001FE0000
0001FE0000
0001FF0000
0000FF0000
0000FF0000
0000FF8000
00007F8000
00007F8000
00007FC000
00003FC000
00003FC000
00003FE000
00001FE000
00001FE000
00001FF000
00000FF000
00000FF000
00000FF800
000007F800
000007FC00
000007FC00
000003FC00
000003FE00
000001FE00
000001FE00
000001FF00
000000FF00
000000FF00
000000FF80
0000007F80
0000007F80
0000007FC0
0000003FC0
0000003FC0
0000003FE0
0000001FE0
0000001FE0
0000001FF0
0000000FF0
0000000FF8
0000000FF8
00000007F8
00000007FC
00000007FC
ENDCHAR
STARTCHAR 005D
ENCODING 93
SWIDTH 326 0
DWIDTH 29 0
BBX 20 86 1 -16
BITMAP
FFFFF0
FFFFF0
FFFFF0
FFFFF0
FFFFF0
FFFFF0
FFFFF0
000FF0
000FF0
000FF0
000FF0
000FF0
000FF0
000FF0
000FF0
000FF0
000FF0
000FF0
000FF0
000FF0
000FF0
000FF0
000FF0
000FF0
000FF0
000FF0
000FF0
000FF0
000FF0
000FF0
000FF0
000FF0
000FF0
000FF0
000FF0
000FF0
000FF0
000FF0
000FF0
000FF0
000FF0
000FF0
000FF0
000FF0
000FF0
000FF0
000FF0
000FF0
000FF0
000FF0
000FF0
000FF0
000FF0
000FF0
000FF0
000FF0
000FF0
000FF0
000FF0
000FF0
000FF0
000FF0
000FF0
000FF0
000FF0
000FF0
000FF0
000FF0
000FF0
000FF0
000FF0
000FF0
000FF0
000FF0
000FF0
000FF0
000FF0
000FF0
000FF0
000FF0
FFFFF0
FFFFF0
FFFFF0
FFFFF0
FFFFF0
FFFFF0
ENDCHAR
STARTCHAR 005E
ENCODING 94
SWIDTH 562 0
DWIDTH 50 0
BBX 42 34 4 28
BITMAP
00007F800000
00007F800000
0000FFC00000
0000FFC00000
0001FFE00000
0001FFF00000
0003FFF00000
0007FFF80000
0007FFF80000
000FFFFC0000
000FF3FC0000
001FF1FE0000
001FE1FF0000
003FC0FF0000
007FC0FF8000
007F807F8000
00FF807FC000
00FF003FC000
01FF001FE000
01FE001FF000
03FC000FF000
07FC000FF800
07F80007F800
0FF80007FC00
0FF00003FC00
1FF00001FE00
1FE00001FF00
3FC00000FF00
7FC00000FF80
7F8000007F80
FF8000007FC0
3F0000003F00
0F0000001C00
020000001000
ENDCHAR
STARTCHAR 005F
ENCODING 95
SWIDTH 483 0
DWIDTH 43 0
BBX 44 7 0 -16
BITMAP
FFFFFFFFFFF0
FFFFFFFFFFF0
FFFFFFFFFFF0
FFFFFFFFFFF0
FFFFFFFFFFF0
FFFFFFFFFFF0
FFFFFFFFFFF0
ENDCHAR
STARTCHAR 0060
ENCODING 96
SWIDTH 371 0
DWIDTH 33 0
BBX 16 17 6 52
BITMAP
0800
1C00
3E00
7F00
FF00
FF80
7FC0
3FE0
1FF0
0FF8
07F8
03FC
01FE
00FF
007E
003C
0018
ENDCHAR
STARTCHAR 0061
ENCODING 97
SWIDTH 517 0
DWIDTH 46 0
BBX 36 48 4 -1
BITMAP
007FFF8000
07FFFFF000
07FFFFFC00
07FFFFFE00
07FFFFFF00
07FFFFFF80
07FFFFFF80
078003FFC0
000000FFC0
0000007FE0
0000003FE0
0000003FE0
0000001FE0
0000001FF0
0000001FF0
0000000FF0
0000000FF0
0000000FF0
0000000FF0
0007FF8FF0
007FFFFFF0
01FFFFFFF0
07FFFFFFF0
0FFFFFFFF0
1FFFFFFFF0
3FFFFFFFF0
7FF8001FF0
7FE0000FF0
7FC0000FF0
FF80000FF0
FF80000FF0
FF00000FF0
FF00000FF0
FF00000FF0
FF00000FF0
FF00000FF0
FF80000FF0
FF80000FF0
7FC0000FF0
7FE0000FF0
7FFC001FF0
3FFFFFFFF0
1FFFFFFFF0
0FFFFFFFF0
07FFFFFFF0
03FFFFFFF0
00FFFFFFC0
000FFFC000
ENDCHAR
STARTCHAR 0062
ENCODING 98
SWIDTH 585 0
DWIDTH 52 0
BBX 41 70 7 -1
BITMAP
030000000000
FF0000000000
FF0000000000
FF0000000000
FF0000000000
FF0000000000
FF0000000000
FF0000000000
FF0000000000
FF0000000000
FF0000000000
FF0000000000
FF0000000000
FF0000000000
FF0000000000
FF0000000000
FF0000000000
FF0000000000
FF0000000000
FF0000000000
FF0000000000
FF0000000000
FF03FFC00000
FF1FFFF80000
FF7FFFFE0000
FFFFFFFF0000
FFFFFFFFC000
FFFFFFFFE000
FFFFFFFFE000
FFFE01FFF000
FFF0007FF800
FFC0001FF800
FF00000FFC00
FF000007FC00
FF000003FE00
FF000003FE00
FF000001FF00
FF000001FF00
FF000001FF00
FF000000FF00
FF000000FF00
FF000000FF80
FF000000FF80
FF000000FF80
FF000000FF80
FF000000FF80
FF000000FF80
FF000000FF80
FF000000FF80
FF000000FF80
FF000000FF80
FF000000FF00
FF000001FF00
FF000001FF00
FF000001FF00
FF000003FE00
FF000003FE00
FF000007FE00
FF00000FFC00
FF00001FFC00
FF00003FF800
FF0000FFF000
FFF007FFF000
FFFFFFFFE000
FFFFFFFFC000
FFFFFFFF0000
FFFFFFFE0000
FFFFFFF80000
1FFFFFE00000
007FFF000000
ENDCHAR
STARTCHAR 0063
ENCODING 99
SWIDTH 461 0
DWIDTH 41 0
BBX 35 48 5 -1
BITMAP
0001FFFC00
000FFFFF80
003FFFFFC0
007FFFFF80
00FFFFFF80
03FFFFFF80
07FFFFFF80
07FFC00F00
0FFE000100
1FFC000000
1FF8000000
3FF0000000
3FE0000000
7FC0000000
7FC0000000
7F80000000
FF80000000
FF80000000
FF80000000
FF00000000
FF00000000
FF00000000
FF00000000
FF00000000
FF00000000
FF00000000
FF00000000
FF00000000
FF00000000
FF80000000
FF80000000
FF80000000
7FC0000000
7FC0000000
7FE0000000
3FE0000000
3FF0000000
1FF8000000
1FFC000000
0FFF0000C0
07FFF01FC0
07FFFFFFC0
03FFFFFFC0
00FFFFFFC0
007FFFFFC0
001FFFFFE0
0007FFFF80
0000FFF000
ENDCHAR
STARTCHAR 0064
ENCODING 100
SWIDTH 585 0
DWIDTH 52 0
BBX 40 70 5 -1
BITMAP
0000000007
00000000FF
00000000FF
00000000FF
00000000FF
00000000FF
00000000FF
00000000FF
00000000FF
00000000FF
00000000FF
00000000FF
00000000FF
00000000FF
00000000FF
00000000FF
00000000FF
00000000FF
00000000FF
00000000FF
00000000FF
00000000FF
0003FFC0FF
001FFFF8FF
003FFFFEFF
00FFFFFFFF
01FFFFFFFF
03FFFFFFFF
07FFFFFFFF
0FFF807FFF
1FFE000FFF
1FF80003FF
3FF00000FF
3FE00000FF
7FE00000FF
7FC00000FF
7FC00000FF
FF800000FF
FF800000FF
FF800000FF
FF800000FF
FF000000FF
FF000000FF
FF000000FF
FF000000FF
FF000000FF
FF000000FF
FF000000FF
FF000000FF
FF000000FF
FF800000FF
FF800000FF
FF800000FF
FF800000FF
7FC00000FF
7FC00000FF
7FE00000FF
3FE00000FF
3FF00000FF
1FF80000FF
1FFE0000FF
0FFF0000FF
07FFF00FFF
03FFFFFFFF
01FFFFFFFF
00FFFFFFFF
007FFFFFFF
001FFFFFFF
0007FFFFF8
00007FFE00
ENDCHAR
STARTCHAR 0065
ENCODING 101
SWIDTH 551 0
DWIDTH 49 0
BBX 40 48 5 -1
BITMAP
0001FFE000
000FFFFC00
003FFFFF00
00FFFFFF80
01FFFFFFC0
03FFFFFFE0
07FFFFFFF0
0FFF007FF0
0FFC001FF8
1FF8000FF8
1FF00007FC
3FE00007FC
3FE00003FE
7FC00003FE
7FC00001FE
7F800001FE
FF800001FE
FF800001FF
FF000001FF
FFFFFFFFFF
FFFFFFFFFF
FFFFFFFFFF
FFFFFFFFFF
FFFFFFFFFF
FFFFFFFFFF
FFFFFFFFFF
FF00000000
FF00000000
FF00000000
FF80000000
FF80000000
FF80000000
7F80000000
7FC0000000
7FC0000000
3FE0000000
3FF0000000
1FF8000000
1FFC000000
0FFF000070
0FFFF00FF0
07FFFFFFF0
03FFFFFFF0
00FFFFFFF0
007FFFFFF8
001FFFFFF8
0007FFFFC0
0000FFFC00
ENDCHAR
STARTCHAR 0066
ENCODING 102
SWIDTH 382 0
DWIDTH 34 0
BBX 28 69 7 0
BITMAP
0007FF00
007FFFF0
01FFFFF0
03FFFFF0
07FFFFE0
0FFFFFE0
1FFFFFE0
1FFE01E0
3FF80020
3FE00000
7FE00000
7FC00000
7F800000
FF800000
FF800000
FF800000
FF000000
FF000000
FF000000
FF000000
FF000000
FF000000
FF000000
FFFFFFC0
FFFFFFC0
FFFFFFC0
FFFFFFC0
FFFFFFC0
FFFFFFC0
FFFFFFC0
FF000000
FF000000
FF000000
FF000000
FF000000
FF000000
FF000000
FF000000
FF000000
FF000000
FF000000
FF000000
FF000000
FF000000
FF000000
FF000000
FF000000
FF000000
FF000000
FF000000
FF000000
FF000000
FF000000
FF000000
FF000000
FF000000
FF000000
FF000000
FF000000
FF000000
FF000000
FF000000
FF000000
FF000000
FF000000
FF000000
FF000000
FF000000
FF000000
ENDCHAR
STARTCHAR 0067
ENCODING 103
SWIDTH 573 0
DWIDTH 51 0
BBX 39 64 5 -17
BITMAP
0000FFFE00
0007FFFFF0
003FFFFFFE
007FFFFFFE
01FFFFFFFE
03FFFFFFFE
07FFFFFFFE
0FFFC00FFE
0FFE0001FE
1FFC0001FE
3FF80001FE
3FF00001FE
7FE00001FE
7FC00001FE
7FC00001FE
FF800001FE
FF800001FE
FF800001FE
FF800001FE
FF000001FE
FF000001FE
FF000001FE
FF000001FE
FF000001FE
FF000001FE
FF000001FE
FF000001FE
FF800001FE
FF800001FE
FF800001FE
FF800001FE
7FC00001FE
7FC00001FE
7FE00001FE
3FF00001FE
3FF80003FE
1FFC0007FE
0FFF803FFE
0FFFFFFFFE
07FFFFFFFE
03FFFFFFFE
01FFFFFFFE
007FFFFFFE
001FFFF9FE
0007FFC1FE
00000001FE
00000001FE
00000001FE
00000001FE
00000003FE
00000003FE
00000003FC
00000007FC
0000000FFC
0800001FF8
1F00007FF8
1FFE1FFFF0
1FFFFFFFE0
1FFFFFFFC0
3FFFFFFF80
3FFFFFFF00
1FFFFFFC00
03FFFFE000
000FF80000
ENDCHAR
STARTCHAR 0068
ENCODING 104
SWIDTH 562 0
DWIDTH 50 0
BBX 37 69 7 0
BITMAP
0300000000
FF00000000
FF00000000
FF00000000
FF00000000
FF00000000
FF00000000
FF00000000
FF00000000
FF00000000
FF00000000
FF00000000
FF00000000
FF00000000
FF00000000
FF00000000
FF00000000
FF00000000
FF00000000
FF00000000
FF00000000
FF00000000
FF0FFF8000
FF7FFFF000
FFFFFFFC00
FFFFFFFE00
FFFFFFFF00
FFFFFFFF80
FFFFFFFFC0
FFF803FFE0
FF8000FFE0
FF00003FF0
FF00001FF0
FF00001FF0
FF00000FF8
FF00000FF8
FF00000FF8
FF000007F8
FF000007F8
FF000007F8
FF000007F8
FF000007F8
FF000007F8
FF000007F8
FF000007F8
FF000007F8
FF000007F8
FF000007F8
FF000007F8
FF000007F8
FF000007F8
FF000007F8
FF000007F8
FF000007F8
FF000007F8
FF000007F8
FF000007F8
FF000007F8
FF000007F8
FF000007F8
FF000007F8
FF000007F8
FF000007F8
FF000007F8
FF000007F8
FF000007F8
FF000007F8
FF000007F8
FF000007F8
ENDCHAR
STARTCHAR 0069
ENCODING 105
SWIDTH 247 0
DWIDTH 22 0
BBX 11 65 6 0
BITMAP
3F00
7F80
FFC0
FFC0
FFE0
FFE0
FFC0
FFC0
7F80
3F00
0000
0000
0000
0000
0000
0000
0000
0000
0000
7F80
7F80
7F80
7F80
7F80
7F80
7F80
7F80
7F80
7F80
7F80
7F80
7F80
7F80
7F80
7F80
7F80
7F80
7F80
7F80
7F80
7F80
7F80
7F80
7F80
7F80
7F80
7F80
7F80
7F80
7F80
7F80
7F80
7F80
7F80
7F80
7F80
7F80
7F80
7F80
7F80
7F80
7F80
7F80
7F80
7F80
ENDCHAR
STARTCHAR 006A
ENCODING 106
SWIDTH 247 0
DWIDTH 22 0
BBX 23 82 -6 -17
BITMAP
0003F0
0007F8
000FFC
000FFC
000FFE
000FFE
000FFC
000FFC
0007F8
0003F0
000000
000000
000000
000000
000000
000000
000000
000000
000000
0007F8
0007F8
0007F8
0007F8
0007F8
0007F8
0007F8
0007F8
0007F8
0007F8
0007F8
0007F8
0007F8
0007F8
0007F8
0007F8
0007F8
0007F8
0007F8
0007F8
0007F8
0007F8
0007F8
0007F8
0007F8
0007F8
0007F8
0007F8
0007F8
0007F8
0007F8
0007F8
0007F8
0007F8
0007F8
0007F8
0007F8
0007F8
0007F8
0007F8
0007F8
0007F8
0007F8
0007F8
0007F8
0007F8
0007F8
0007F8
0007F8
0007F8
000FF8
000FF8
000FF0
001FF0
003FF0
7FFFE0
7FFFE0
7FFFC0
FFFF80
FFFF00
FFFE00
FFF800
0E0000
ENDCHAR
STARTCHAR 006B
ENCODING 107
SWIDTH 517 0
DWIDTH 46 0
BBX 38 69 7 0
BITMAP
0300000000
FF00000000
FF00000000
FF00000000
FF00000000
FF00000000
FF00000000
FF00000000
FF00000000
FF00000000
FF00000000
FF00000000
FF00000000
FF00000000
FF00000000
FF00000000
FF00000000
FF00000000
FF00000000
FF00000000
FF00000000
FF00000000
FF00000000
FF00003FF0
FF00007FE0
FF0000FFC0
FF0001FF80
FF0003FF00
FF0003FE00
FF0007FC00
FF000FF800
FF001FF000
FF003FE000
FF007FE000
FF00FFC000
FF01FF8000
FF03FF0000
FF07FE0000
FF0FFC0000
FF1FF80000
FF3FF00000
FF7FE00000
FFFFC00000
FFFF800000
FFFFC00000
FFFFE00000
FFFFF00000
FF7FF80000
FF1FFC0000
FF0FFE0000
FF07FF0000
FF03FF8000
FF01FFC000
FF00FFE000
FF007FF000
FF003FF800
FF001FF800
FF000FFC00
FF0007FE00
FF0003FF00
FF0003FF00
FF0001FF80
FF0000FFC0
FF00007FE0
FF00007FE0
FF00003FF0
FF00001FF8
FF00000FF8
FF00000FFC
ENDCHAR
STARTCHAR 006C
ENCODING 108
SWIDTH 270 0
DWIDTH 24 0
BBX 15 70 7 -1
BITMAP
0700
FF00
FF00
FF00
FF00
FF00
FF00
FF00
FF00
FF00
FF00
FF00
FF00
FF00
FF00
FF00
FF00
FF00
FF00
FF00
FF00
FF00
FF00
FF00
FF00
FF00
FF00
FF00
FF00
FF00
FF00
FF00
FF00
FF00
FF00
FF00
FF00
FF00
FF00
FF00
FF00
FF00
FF00
FF00
FF00
FF00
FF00
FF00
FF00
FF00
FF00
FF00
FF00
FF00
FF00
FF00
FF00
FF00
FF00
FF80
FF80
FFC0
7FF8
7FFE
3FFE
3FFE
1FFE
0FFC
03FC
003C
ENDCHAR
STARTCHAR 006D
ENCODING 109
SWIDTH 855 0
DWIDTH 76 0
BBX 63 47 7 0
BITMAP
00FFFF0000FFF000
1FFFFFE007FFFE00
FFFFFFF83FFFFF00
FFFFFFFC7FFFFFC0
FFFFFFFFFFFFFFE0
FFFFFFFFFFFFFFF0
FFFFFFFFFFFFFFF0
FFE007FFFF00FFF8
FF0001FFF8001FF8
FF0000FFE0000FFC
FF00007FC00007FC
FF00003FE00007FC
FF00003FE00007FC
FF00003FE00003FC
FF00001FE00003FE
FF00001FE00003FE
FF00001FE00003FE
FF00001FF00003FE
FF00001FF00001FE
FF00001FF00001FE
FF00001FF00001FE
FF00001FF00001FE
FF00001FF00001FE
FF00001FF00001FE
FF00001FF00001FE
FF00001FF00001FE
FF00001FF00001FE
FF00001FF00001FE
FF00001FF00001FE
FF00001FF00001FE
FF00001FF00001FE
FF00001FF00001FE
FF00001FF00001FE
FF00001FF00001FE
FF00001FF00001FE
FF00001FF00001FE
FF00001FF00001FE
FF00001FF00001FE
FF00001FF00001FE
FF00001FF00001FE
FF00001FF00001FE
FF00001FF00001FE
FF00001FF00001FE
FF00001FF00001FE
FF00001FF00001FE
FF00001FF00001FE
FF00001FF00001FE
ENDCHAR
STARTCHAR 006E
ENCODING 110
SWIDTH 573 0
DWIDTH 51 0
BBX 37 47 7 0
BITMAP
00FFFF8000
1FFFFFF000
FFFFFFFC00
FFFFFFFE00
FFFFFFFF00
FFFFFFFF80
FFFFFFFFC0
FFE003FFE0
FF0000FFE0
FF00003FF0
FF00001FF0
FF00001FF0
FF00000FF8
FF00000FF8
FF00000FF8
FF000007F8
FF000007F8
FF000007F8
FF000007F8
FF000007F8
FF000007F8
FF000007F8
FF000007F8
FF000007F8
FF000007F8
FF000007F8
FF000007F8
FF000007F8
FF000007F8
FF000007F8
FF000007F8
FF000007F8
FF000007F8
FF000007F8
FF000007F8
FF000007F8
FF000007F8
FF000007F8
FF000007F8
FF000007F8
FF000007F8
FF000007F8
FF000007F8
FF000007F8
FF000007F8
FF000007F8
FF000007F8
ENDCHAR
STARTCHAR 006F
ENCODING 111
SWIDTH 585 0
DWIDTH 52 0
BBX 43 48 5 -1
BITMAP
0001FFF00000
000FFFFC0000
003FFFFF0000
007FFFFFC000
01FFFFFFE000
03FFFFFFF000
07FFFFFFF800
07FF807FFC00
0FFE001FFE00
1FFC0007FE00
1FF00003FF00
3FF00001FF00
3FE00001FF80
7FC00000FF80
7FC000007F80
7F8000007FC0
FF8000007FC0
FF8000003FC0
FF8000003FC0
FF0000003FE0
FF0000003FE0
FF0000003FE0
FF0000003FE0
FF0000003FE0
FF0000003FE0
FF0000003FE0
FF0000003FE0
FF0000003FE0
FF0000003FE0
FF8000003FC0
FF8000007FC0
FF8000007FC0
7FC000007FC0
7FC00000FF80
7FC00000FF80
3FE00001FF80
3FF00001FF00
1FF80003FF00
1FFC0007FE00
0FFE001FFC00
07FFC0FFFC00
03FFFFFFF800
01FFFFFFF000
00FFFFFFE000
007FFFFF8000
001FFFFF0000
0007FFFC0000
0000FFE00000
ENDCHAR
STARTCHAR 0070
ENCODING 112
SWIDTH 585 0
DWIDTH 52 0
BBX 41 63 7 -16
BITMAP
00FFFF000000
1FFFFFE00000
FFFFFFF80000
FFFFFFFE0000
FFFFFFFF8000
FFFFFFFFC000
FFFFFFFFE000
FFE007FFF000
FF0000FFF000
FF00003FF800
FF00001FFC00
FF00000FFC00
FF000007FE00
FF000003FE00
FF000003FE00
FF000001FF00
FF000001FF00
FF000001FF00
FF000000FF00
FF000000FF80
FF000000FF80
FF000000FF80
FF000000FF80
FF000000FF80
FF000000FF80
FF000000FF80
FF000000FF80
FF000000FF80
FF000000FF80
FF000000FF00
FF000001FF00
FF000001FF00
FF000001FF00
FF000001FE00
FF000003FE00
FF000007FE00
FF000007FC00
FF80000FFC00
FFC0001FF800
FFF0007FF800
FFFF03FFF000
FFFFFFFFE000
FFFFFFFFC000
FFFFFFFF8000
FFFFFFFF0000
FF7FFFFC0000
FF0FFFF00000
FF01FF800000
FF0000000000
FF0000000000
FF0000000000
FF0000000000
FF0000000000
FF0000000000
FF0000000000
FF0000000000
FF0000000000
FF0000000000
FF0000000000
FF0000000000
FF0000000000
FF0000000000
FF0000000000
ENDCHAR
STARTCHAR 0071
ENCODING 113
SWIDTH 585 0
DWIDTH 52 0
BBX 40 63 5 -16
BITMAP
0000FFFF00
0007FFFFF8
001FFFFFFF
007FFFFFFF
00FFFFFFFF
01FFFFFFFF
03FFFFFFFF
07FFE007FF
0FFF0000FF
1FFC0000FF
1FF80000FF
3FF00000FF
3FE00000FF
7FE00000FF
7FC00000FF
7FC00000FF
FF800000FF
FF800000FF
FF800000FF
FF800000FF
FF000000FF
FF000000FF
FF000000FF
FF000000FF
FF000000FF
FF000000FF
FF000000FF
FF000000FF
FF000000FF
FF800000FF
FF800000FF
FF800000FF
7F800000FF
7FC00000FF
7FC00000FF
3FE00000FF
3FF00000FF
3FF80000FF
1FFC0003FF
0FFE000FFF
0FFFE07FFF
07FFFFFFFF
03FFFFFFFF
01FFFFFFFF
00FFFFFFFF
003FFFFEFF
000FFFF8FF
0001FFC0FF
00000000FF
00000000FF
00000000FF
00000000FF
00000000FF
00000000FF
00000000FF
00000000FF
00000000FF
00000000FF
00000000FF
00000000FF
00000000FF
00000000FF
00000000FF
ENDCHAR
STARTCHAR 0072
ENCODING 114
SWIDTH 382 0
DWIDTH 34 0
BBX 26 47 7 0
BITMAP
007FFE00
0FFFFFC0
7FFFFFC0
FFFFFFC0
FFFFFFC0
FFFFFFC0
FFFFFF80
FFE00380
FF000000
FF000000
FF000000
FF000000
FF000000
FF000000
FF000000
FF000000
FF000000
FF000000
FF000000
FF000000
FF000000
FF000000
FF000000
FF000000
FF000000
FF000000
FF000000
FF000000
FF000000
FF000000
FF000000
FF000000
FF000000
FF000000
FF000000
FF000000
FF000000
FF000000
FF000000
FF000000
FF000000
FF000000
FF000000
FF000000
FF000000
FF000000
FF000000
ENDCHAR
STARTCHAR 0073
ENCODING 115
SWIDTH 438 0
DWIDTH 39 0
BBX 32 48 4 -1
BITMAP
003FFF80
00FFFFF8
03FFFFFC
0FFFFFF8
1FFFFFF8
1FFFFFF8
3FFFFFF8
7FF00070
7FC00000
7F800000
FF800000
FF800000
FF800000
FF800000
FF800000
FF800000
7FC00000
7FF00000
7FF80000
3FFF0000
1FFFC000
0FFFF800
07FFFE00
03FFFF80
00FFFFE0
001FFFF0
0007FFF8
0000FFFC
00003FFE
00000FFE
000007FF
000003FF
000001FF
000001FF
000000FF
000000FF
000000FF
000001FF
000001FF
700003FF
7F001FFE
FFFFFFFE
FFFFFFFC
FFFFFFF8
FFFFFFF0
FFFFFFC0
3FFFFF00
03FFF800
ENDCHAR
STARTCHAR 0074
ENCODING 116
SWIDTH 393 0
DWIDTH 35 0
BBX 27 61 7 0
BITMAP
3F000000
FF000000
FF000000
FF000000
FF000000
FF000000
FF000000
FF000000
FF000000
FF000000
FF000000
FF000000
FF000000
FF000000
FFFFFF80
FFFFFF80
FFFFFF80
FFFFFF80
FFFFFF80
FFFFFF80
FFFFFF80
FF000000
FF000000
FF000000
FF000000
FF000000
FF000000
FF000000
FF000000
FF000000
FF000000
FF000000
FF000000
FF000000
FF000000
FF000000
FF000000
FF000000
FF000000
FF000000
FF000000
FF000000
FF000000
FF000000
FF000000
FF000000
FF000000
FF000000
FF800000
FF800000
FF800000
7FC00000
7FE001C0
7FFC1FC0
3FFFFFC0
3FFFFFC0
1FFFFFE0
0FFFFFE0
07FFFFE0
01FFFF00
003FF800
ENDCHAR
STARTCHAR 0075
ENCODING 117
SWIDTH 573 0
DWIDTH 51 0
BBX 37 47 7 -1
BITMAP
FF000007F8
FF000007F8
FF000007F8
FF000007F8
FF000007F8
FF000007F8
FF000007F8
FF000007F8
FF000007F8
FF000007F8
FF000007F8
FF000007F8
FF000007F8
FF000007F8
FF000007F8
FF000007F8
FF000007F8
FF000007F8
FF000007F8
FF000007F8
FF000007F8
FF000007F8
FF000007F8
FF000007F8
FF000007F8
FF000007F8
FF000007F8
FF000007F8
FF000007F8
FF000007F8
FF000007F8
FF800007F8
FF800007F8
FF800007F8
7FC00007F8
7FC00007F8
7FE00007F8
3FF00007F8
3FF80007F8
1FFF80FFF8
1FFFFFFFF8
0FFFFFFFF8
07FFFFFFF8
03FFFFFFF8
00FFFFFFF8
003FFFFF80
0007FFE000
ENDCHAR
STARTCHAR 0076
ENCODING 118
SWIDTH 495 0
DWIDTH 44 0
BBX 41 46 2 0
BITMAP
FF000000FF80
FF800000FF80
FF800000FF00
FF800000FF00
7FC00001FF00
7FC00001FF00
7FC00001FE00
3FC00001FE00
3FE00003FE00
3FE00003FC00
1FE00003FC00
1FF00007FC00
1FF00007F800
0FF00007F800
0FF8000FF800
0FF8000FF000
07F8000FF000
07F8001FF000
07FC001FE000
03FC001FE000
03FE003FE000
03FE003FC000
01FE003FC000
01FF007FC000
01FF007F8000
00FF007F8000
00FF80FF0000
007F80FF0000
007F80FF0000
007FC1FE0000
003FC1FE0000
003FE3FC0000
001FE3FC0000
001FE3F80000
000FF7F80000
000FF7F80000
000FFFF00000
0007FFF00000
0007FFE00000
0003FFE00000
0003FFE00000
0001FFC00000
0001FFC00000
0001FF800000
0000FF800000
0000FF000000
ENDCHAR
STARTCHAR 0077
ENCODING 119
SWIDTH 776 0
DWIDTH 69 0
BBX 65 46 2 0
BITMAP
FF800007F000007F80
FF800007F800007F80
FF800007F80000FF80
7F80000FF80000FF00
7FC0000FF80000FF00
7FC0000FF80000FF00
7FC0000FFC0001FF00
3FC0001FFC0001FE00
3FE0001FFC0001FE00
3FE0001FFC0001FE00
3FE0001FFE0003FE00
1FE0003FFE0003FC00
1FF0003FFE0003FC00
1FF0003FFF0003FC00
0FF0003F7F0007F800
0FF0007F7F0007F800
0FF8007F7F0007F800
07F8007F7F800FF800
07F800FE3F800FF000
07F800FE3F800FF000
07FC00FE3F800FF000
03FC00FC3FC01FE000
03FC01FC1FC01FE000
03FE01FC1FC01FE000
01FE01FC1FE03FC000
01FE03F80FE03FC000
01FF03F80FE03FC000
00FF03F80FF07F8000
00FF07F007F07F8000
00FF87F007F07F8000
007F87F007F8FF0000
007F8FE003F8FF0000
003FCFE003F8FE0000
003FCFE003FDFE0000
003FDFC001FDFE0000
001FFFC001FDFC0000
001FFFC001FFFC0000
001FFF8000FFFC0000
000FFF8000FFF80000
000FFF8000FFF80000
0007FF00007FF00000
0007FF00007FF00000
0007FF00003FF00000
0003FE00003FE00000
0003FE00003FE00000
0001FC00001FC00000
ENDCHAR
STARTCHAR 0078
ENCODING 120
SWIDTH 506 0
DWIDTH 45 0
BBX 42 46 2 0
BITMAP
7FC00001FF00
7FE00003FE00
3FE00003FE00
1FF00007FC00
1FF8000FF800
0FF8000FF000
07FC001FF000
03FE003FE000
03FE003FC000
01FF007FC000
00FF80FF8000
00FF80FF0000
007FC1FF0000
003FE3FE0000
003FF7FC0000
001FF7F80000
000FFFF80000
000FFFF00000
0007FFE00000
0003FFE00000
0001FFC00000
0001FFC00000
0001FFC00000
0003FFE00000
0007FFF00000
0007FFF80000
000FFFF80000
001FF7FC0000
003FE7FE0000
003FC3FE0000
007FC1FF0000
00FF80FF8000
00FF00FFC000
01FF007FC000
03FE003FE000
03FC003FF000
07FC001FF000
0FF8000FF800
0FF0000FFC00
1FF00007FC00
3FE00003FE00
3FE00003FE00
7FC00001FF00
7F800001FF00
FF800000FF80
FF000000FFC0
ENDCHAR
STARTCHAR 0079
ENCODING 121
SWIDTH 495 0
DWIDTH 44 0
BBX 42 63 0 -17
BITMAP
3FC000003FC0
3FE000003FC0
3FE000007FC0
3FE000007FC0
1FF000007F80
1FF000007F80
1FF00000FF80
0FF00000FF80
0FF80000FF00
0FF80000FF00
07F80001FF00
07FC0001FF00
07FC0001FE00
03FC0001FE00
03FE0003FE00
03FE0003FC00
01FE0003FC00
01FF0003FC00
01FF0007F800
00FF0007F800
00FF8007F800
00FF8007F800
007F800FF000
007FC00FF000
003FC00FF000
003FE01FE000
003FE01FE000
001FE01FE000
001FF03FC000
000FF03FC000
000FF83FC000
0007F87F8000
0007F87F8000
0003FC7F8000
0003FCFF0000
0003FEFF0000
0001FEFE0000
0001FFFE0000
0000FFFE0000
0000FFFC0000
00007FFC0000
00007FF80000
00003FF80000
00003FF80000
00001FF00000
00001FF00000
00000FE00000
00001FE00000
00001FE00000
00003FC00000
00003FC00000
00007F800000
0000FF000000
0001FF000000
0003FE000000
701FFC000000
7FFFFC000000
7FFFF8000000
7FFFF0000000
7FFFE0000000
FFFF80000000
7FFE00000000
07E000000000
ENDCHAR
STARTCHAR 007A
ENCODING 122
SWIDTH 461 0
DWIDTH 41 0
BBX 35 46 3 0
BITMAP
7FFFFFFFE0
7FFFFFFFE0
7FFFFFFFE0
7FFFFFFFE0
7FFFFFFFE0
7FFFFFFFE0
7FFFFFFFC0
000000FF80
000001FF80
000003FF00
000007FE00
00000FFC00
00000FF800
00001FF000
00003FF000
00007FE000
0000FFC000
0000FF8000
0001FF0000
0003FF0000
0007FE0000
0007FC0000
000FF80000
001FF80000
001FF00000
003FE00000
007FC00000
00FFC00000
00FF800000
01FF000000
03FF000000
03FE000000
07FC000000
0FFC000000
0FF8000000
1FF0000000
3FF0000000
3FE0000000
7FC0000000
7FFFFFFFE0
FFFFFFFFE0
FFFFFFFFE0
FFFFFFFFE0
FFFFFFFFE0
FFFFFFFFE0
FFFFFFFFE0
ENDCHAR
STARTCHAR 007B
ENCODING 123
SWIDTH 326 0
DWIDTH 29 0
BBX 25 86 4 -16
BITMAP
00000180
0000FF80
0003FF80
000FFF80
001FFF80
003FFF80
003FFF80
007FF000
007FC000
00FF8000
00FF0000
00FF0000
00FF0000
00FF0000
00FF0000
00FE0000
00FE0000
00FE0000
00FE0000
00FE0000
00FE0000
00FE0000
00FE0000
00FE0000
00FE0000
00FE0000
00FE0000
00FE0000
00FE0000
00FE0000
00FE0000
00FE0000
00FE0000
00FE0000
01FE0000
01FE0000
03FE0000
03FC0000
07FC0000
1FF80000
FFF80000
FFF00000
FFE00000
FFC00000
FFE00000
FFF00000
FFF80000
1FF80000
07FC0000
03FC0000
01FE0000
01FE0000
01FE0000
00FE0000
00FE0000
00FE0000
00FE0000
00FE0000
00FE0000
00FE0000
00FE0000
00FE0000
00FE0000
00FE0000
00FE0000
00FE0000
00FE0000
00FE0000
00FE0000
00FE0000
00FE0000
00FE0000
00FF0000
00FF0000
00FF0000
00FF0000
00FF0000
00FF8000
007FC000
007FF800
003FFF80
003FFF80
001FFF80
000FFF80
0003FF80
00007F80
ENDCHAR
STARTCHAR 007C
ENCODING 124
SWIDTH 270 0
DWIDTH 24 0
BBX 7 86 9 -16
BITMAP
FE
FE
FE
FE
FE
FE
FE
FE
FE
FE
FE
FE
FE
FE
FE
FE
FE
FE
FE
FE
FE
FE
FE
FE
FE
FE
FE
FE
FE
FE
FE
FE
FE
FE
FE
FE
FE
FE
FE
FE
FE
FE
FE
FE
FE
FE
FE
FE
FE
FE
FE
FE
FE
FE
FE
FE
FE
FE
FE
FE
FE
FE
FE
FE
FE
FE
FE
FE
FE
FE
FE
FE
FE
FE
FE
FE
FE
FE
FE
FE
FE
FE
FE
FE
FE
FE
ENDCHAR
STARTCHAR 007D
ENCODING 125
SWIDTH 326 0
DWIDTH 29 0
BBX 25 86 1 -16
BITMAP
E0000000
FF000000
FFE00000
FFF00000
FFF80000
FFFC0000
FFFE0000
0FFE0000
01FF0000
00FF0000
00FF0000
007F8000
007F8000
007F8000
007F8000
007F8000
007F8000
007F8000
007F8000
007F8000
007F8000
007F8000
007F8000
007F8000
007F8000
007F8000
007F8000
007F8000
007F8000
007F8000
007F8000
007F8000
007F8000
007F8000
007F8000
003FC000
003FC000
003FE000
001FF000
001FF800
000FFF80
0007FF80
0003FF80
0001FF80
0003FF80
0007FF80
000FFF80
001FF800
001FF000
003FE000
003FC000
003FC000
007F8000
007F8000
007F8000
007F8000
007F8000
007F8000
007F8000
007F8000
007F8000
007F8000
007F8000
007F8000
007F8000
007F8000
007F8000
007F8000
007F8000
007F8000
007F8000
007F8000
007F8000
007F8000
007F8000
007F8000
00FF0000
00FF0000
03FF0000
0FFE0000
FFFE0000
FFFC0000
FFF80000
FFF00000
FFE00000
FF000000
ENDCHAR
STARTCHAR 007E
ENCODING 126
SWIDTH 562 0
DWIDTH 50 0
BBX 42 15 4 19
BITMAP
007E00000000
03FFC0000E00
07FFF0000FC0
0FFFF8000FC0
1FFFFE001FC0
3FFFFF803F80
3FFFFFC07F80
7FC3FFFDFF80
7F00FFFFFF00
7E003FFFFE00
FE001FFFFE00
FC0007FFFC00
FC0001FFF800
1C00007FE000
0000000F0000
ENDCHAR
STARTCHAR 00A0
ENCODING 160
SWIDTH 225 0
DWIDTH 20 0
BBX 0 0 0 0
BITMAP
ENDCHAR
STARTCHAR 00A1
ENCODING 161
SWIDTH 270 0
DWIDTH 24 0
BBX 12 62 6 -16
BITMAP
1F80
3FE0
7FE0
7FF0
FFF0
FFF0
FFF0
7FF0
7FF0
3FE0
1FC0
0E00
0000
0000
0000
0000
0000
0000
0000
0000
0F80
1F80
1F80
1F80
1F80
1F80
1FC0
1FC0
1FC0
1FC0
3FC0
3FC0
3FC0
3FC0
3FC0
3FC0
3FC0
3FE0
3FE0
3FE0
3FE0
3FE0
3FE0
3FE0
3FE0
3FE0
3FE0
3FE0
3FE0
3FE0
3FE0
3FE0
3FE0
3FE0
3FE0
3FE0
3FE0
3FE0
3FE0
3FE0
3FE0
3FE0
ENDCHAR
STARTCHAR 00A2
ENCODING 162
SWIDTH 562 0
DWIDTH 50 0
BBX 35 72 8 -10
BITMAP
00007F0000
00007F0000
00007F0000
00007F0000
00007F0000
00007F0000
00007F0000
00007F0000
00007F0000
00007F0000
00007F0000
00007F0000
00007F0000
0000FFFC00
0007FFFF80
003FFFFFC0
007FFFFFC0
00FFFFFF80
03FFFFFF80
03FFFFFF80
07FF800F00
0FFE000000
1FFC000000
1FF0000000
3FF0000000
3FE0000000
7FC0000000
7FC0000000
7F80000000
FF80000000
FF80000000
FF80000000
FF00000000
FF00000000
FF00000000
FF00000000
FF00000000
FF00000000
FF00000000
FF00000000
FF80000000
FF80000000
FF80000000
7F80000000
7FC0000000
7FC0000000
7FE0000000
3FF0000000
3FF0000000
1FFC000000
0FFE000040
0FFFC003C0
07FFFFFFC0
03FFFFFFC0
01FFFFFFC0
00FFFFFFC0
003FFFFFE0
000FFFFFC0
0001FFFC00
00007F0000
00007F0000
00007F0000
00007F0000
00007F0000
00007F0000
00007F0000
00007F0000
00007F0000
00007F0000
00007F0000
00007F0000
00007F0000
ENDCHAR
STARTCHAR 00A3
ENCODING 163
SWIDTH 562 0
DWIDTH 50 0
BBX 41 63 5 0
BITMAP
000000FF0000
00001FFFF000
00007FFFFE00
0001FFFFFE00
0003FFFFFE00
0007FFFFFE00
000FFFFFFC00
000FFFFFFC00
001FFE003C00
001FF8000400
003FF0000000
003FE0000000
003FE0000000
007FC0000000
007FC0000000
007FC0000000
007F80000000
007F80000000
007F80000000
007F80000000
007F80000000
007F80000000
007F80000000
007F80000000
007F80000000
007F80000000
007F80000000
007F80000000
007F80000000
007F80000000
FFFFFFFFC000
FFFFFFFFC000
FFFFFFFFC000
FFFFFFFFC000
FFFFFFFFC000
FFFFFFFFC000
FFFFFFFFC000
007F80000000
007F80000000
007F80000000
007F80000000
007F80000000
00FF80000000
00FF80000000
00FF80000000
00FF80000000
00FF80000000
00FF00000000
00FF00000000
00FF00000000
00FF00000000
00FF00000000
00FF00000000
01FF00000000
01FF00000000
01FE00000000
01FFFFFFFF80
01FFFFFFFF80
01FFFFFFFF80
01FFFFFFFF80
03FFFFFFFF80
03FFFFFFFF80
03FFFFFFFF80
ENDCHAR
STARTCHAR 00A4
ENCODING 164
SWIDTH 562 0
DWIDTH 50 0
BBX 42 42 4 10
BITMAP
040000000400
0E0000000E00
1F0000001F00
3F8000003F80
7FC07F807FC0
FFE3FFF0FFC0
7FEFFFFDFF80
3FFFFFFFFF00
1FFFFFFFFE00
0FFFFFFFFC00
07FFC0FFF800
03FF003FF000
03FC000FF000
07F80007F800
07F80003F800
07F00003F800
0FE00001FC00
0FE00001FC00
0FE00001FC00
0FE00001FC00
0FE00000FC00
0FE00000FC00
0FE00001FC00
0FE00001FC00
0FE00001FC00
0FE00001FC00
07F00003F800
07F00003F800
07F80007F800
03FC000FF000
03FE001FF000
03FF807FF800
07FFFFFFFC00
0FFFFFFFFE00
1FFFFFFFFF00
3FFFFFFFFF80
7FE7FFF9FFC0
FFC0FFC0FFC0
7F8000007F80
3F0000003F00
1E0000001E00
0C0000000C00
ENDCHAR
STARTCHAR 00A5
ENCODING 165
SWIDTH 562 0
DWIDTH 50 0
BBX 47 62 2 0
BITMAP
FF80000003FE
FF80000007FC
7FC0000007FC
7FC000000FF8
3FE000000FF8
3FE000001FF0
1FF000001FE0
1FF000003FE0
0FF800003FC0
0FF800007FC0
07FC00007F80
07FC0000FF80
03FE0000FF00
01FE0001FF00
01FF0001FE00
00FF0003FC00
00FF8003FC00
007F8007F800
007FC007F800
003FC00FF000
001FE01FF000
001FF01FE000
000FF03FC000
000FF83FC000
0007F87F8000
0007FC7F8000
0003FEFF0000
0001FFFE0000
0001FFFE0000
0000FFFC0000
0000FFFC0000
07FFFFFFFFC0
07FFFFFFFFC0
07FFFFFFFFC0
07FFFFFFFFC0
07FFFFFFFFC0
07FFFFFFFFC0
00001FE00000
00001FE00000
00001FE00000
00001FE00000
00001FE00000
00001FE00000
00001FE00000
00001FE00000
00001FE00000
07FFFFFFFFC0
07FFFFFFFFC0
07FFFFFFFFC0
07FFFFFFFFC0
07FFFFFFFFC0
07FFFFFFFFC0
07FFFFFFFFC0
00001FE00000
00001FE00000
00001FE00000
00001FE00000
00001FE00000
00001FE00000
00001FE00000
00001FE00000
00001FE00000
ENDCHAR
STARTCHAR 00A6
ENCODING 166
SWIDTH 270 0
DWIDTH 24 0
BBX 7 86 9 -16
BITMAP
FE
FE
FE
FE
FE
FE
FE
FE
FE
FE
FE
FE
FE
FE
FE
FE
FE
FE
FE
FE
FE
FE
FE
FE
FE
FE
FE
FE
FE
FE
FE
FE
FE
FE
00
00
00
00
00
00
00
00
00
00
00
00
00
00
00
00
00
00
FE
FE
FE
FE
FE
FE
FE
FE
FE
FE
FE
FE
FE
FE
FE
FE
FE
FE
FE
FE
FE
FE
FE
FE
FE
FE
FE
FE
FE
FE
FE
FE
FE
FE
ENDCHAR
STARTCHAR 00A7
ENCODING 167
SWIDTH 483 0
DWIDTH 43 0
BBX 36 73 4 -10
BITMAP
0003FFC000
001FFFFE00
007FFFFFC0
01FFFFFFC0
03FFFFFF80
07FFFFFF80
07FFFFFF80
0FFE003F80
0FF8000300
1FF0000000
1FE0000000
1FE0000000
1FE0000000
1FE0000000
1FE0000000
1FE0000000
1FF0000000
0FF8000000
0FFE000000
07FF800000
07FFF00000
03FFFE0000
01FFFF8000
01FFFFE000
07FFFFF800
0FFFFFFE00
1FF1FFFF00
3FE03FFF80
3FC00FFFC0
7F8001FFC0
7F8000FFE0
FF00003FE0
FF00001FF0
FE00000FF0
FE00000FF0
FE00000FF0
FF00000FF0
FF00000FF0
FF00000FF0
FF80000FF0
7FC0000FE0
7FE0001FE0
3FF8001FC0
3FFF003FC0
1FFFC07F80
0FFFF9FF00
07FFFFFF00
01FFFFFC00
007FFFF800
001FFFF800
0003FFFC00
00007FFE00
00001FFF00
000007FF80
000001FF80
000000FFC0
0000007FC0
0000003FC0
0000003FC0
0000003FC0
0000003FC0
0000003FC0
0000007FC0
2000007FC0
3C0001FF80
7FC00FFF80
7FFFFFFF00
7FFFFFFE00
FFFFFFFC00
FFFFFFF800
3FFFFFE000
07FFFF8000
001FF00000
ENDCHAR
STARTCHAR 00A8
ENCODING 168
SWIDTH 371 0
DWIDTH 33 0
BBX 27 10 3 55
BITMAP
1F001F80
7F803FC0
7FC03FE0
FFC07FE0
FFC07FE0
FFC07FE0
FFC07FE0
7FC03FE0
7F803FC0
1F001F80
ENDCHAR
STARTCHAR 00A9
ENCODING 169
SWIDTH 810 0
DWIDTH 72 0
BBX 61 64 6 -1
BITMAP
000000FFF0000000
00000FFFFF000000
00003FFFFFE00000
0000FFFFFFF80000
0003FFFFFFFC0000
000FFFFFFFFF0000
001FFF800FFF8000
003FF80001FFC000
007FE000007FE000
00FF8000001FF000
01FF0000000FF800
03FE00000003FC00
03FC00000001FE00
07F800000000FE00
0FF0003FF800FF00
0FE000FFFF007F80
1FC003FFFFC03F80
1FC007FFFFC03FC0
3F801FFFFFC01FC0
3F803FFFFF801FC0
3F003FF00F800FE0
7F007FC001800FE0
7F00FF00000007E0
7E00FE00000007F0
FE00FE00000007F0
FE01FC00000007F0
FE01FC00000003F0
FE01F800000003F0
FC03F800000003F0
FC03F800000003F0
FC03F800000003F8
FC03F800000003F8
FC03F800000003F8
FC03F800000003F8
FC03F800000003F8
FC03F800000003F0
FE01F800000003F0
FE01FC00000003F0
FE01FC00000007F0
FE01FE00000007F0
7E00FE00000007F0
7F00FF00000007E0
7F007F8000000FE0
7F007FC001800FE0
3F803FFC1FC00FE0
3F801FFFFFC01FC0
1FC00FFFFFC01FC0
1FC007FFFFE03F80
0FE001FFFFC07F80
0FF0007FFE007F00
07F000050000FF00
07F800000001FE00
03FC00000003FC00
01FE00000007FC00
00FF8000000FF800
007FC000003FF000
003FF80000FFE000
001FFE0007FFC000
000FFFFFFFFF0000
0007FFFFFFFE0000
0001FFFFFFF80000
00007FFFFFE00000
00001FFFFF800000
000001FFFC000000
ENDCHAR
STARTCHAR 00AA
ENCODING 170
SWIDTH 382 0
DWIDTH 34 0
BBX 27 34 3 29
BITMAP
001F8000
0FFFF800
0FFFFE00
0FFFFF00
0FFFFF80
0FFFFF80
07007FC0
00003FC0
00001FC0
00000FE0
00000FE0
000007E0
000007E0
001FE7E0
01FFFFE0
07FFFFE0
1FFFFFE0
3FFFFFE0
3FFFFFE0
7FC007E0
7F0007E0
FE0007E0
FE0007E0
FE0007E0
FE0007E0
7E0007E0
7F0007E0
7FC007E0
3FFFFFE0
3FFFFFE0
1FFFFFE0
0FFFFFE0
03FFFFE0
003FC000
ENDCHAR
STARTCHAR 00AB
ENCODING 171
SWIDTH 495 0
DWIDTH 44 0
BBX 38 39 3 6
BITMAP
0004000080
00070001E0
000FC003F0
001FE003FC
003FE007F8
003FC00FF0
007F801FF0
00FF801FE0
00FF003FE0
01FF007FC0
03FE007F80
07FC00FF80
07FC01FF00
0FF801FF00
1FF803FE00
1FF007FC00
3FE00FFC00
7FE00FF800
7FC01FF800
FFC03FF000
FFC01FF000
7FC01FF800
3FE00FFC00
3FF007FC00
1FF007FE00
0FF803FE00
0FF801FF00
07FC00FF80
03FE00FF80
01FE007FC0
01FF003FC0
00FF003FE0
007F801FF0
007FC00FF0
003FC007F8
001FE007F8
001FE003F8
000F8001F0
00060001C0
ENDCHAR
STARTCHAR 00AC
ENCODING 172
SWIDTH 562 0
DWIDTH 50 0
BBX 40 30 5 5
BITMAP
FFFFFFFFFF
FFFFFFFFFF
FFFFFFFFFF
FFFFFFFFFF
FFFFFFFFFF
FFFFFFFFFF
FFFFFFFFFF
000000007F
000000007F
000000007F
000000007F
000000007F
000000007F
000000007F
000000007F
000000007F
000000007F
000000007F
000000007F
000000007F
000000007F
000000007F
000000007F
000000007F
000000007F
000000007F
000000007F
000000007F
000000007F
000000007F
ENDCHAR
STARTCHAR 00AD
ENCODING 173
SWIDTH 292 0
DWIDTH 26 0
BBX 22 7 2 23
BITMAP
FFFFFC
FFFFFC
FFFFFC
FFFFFC
FFFFFC
FFFFFC
FFFFFC
ENDCHAR
STARTCHAR 00AE
ENCODING 174
SWIDTH 810 0
DWIDTH 72 0
BBX 61 64 6 -1
BITMAP
000000FFF0000000
00000FFFFF000000
00003FFFFFE00000
0000FFFFFFF80000
0003FFFFFFFC0000
000FFFFFFFFF0000
001FFF800FFF8000
003FF80001FFC000
007FE000007FE000
00FF8000001FF000
01FF0000000FF800
03FE00000003FC00
03FC00000001FE00
07F800000000FE00
0FF000FF0000FF00
0FE03FFFF0007F80
1FC03FFFFC003F80
1FC03FFFFF003FC0
3F803FFFFF801FC0
3F803FFFFFC01FC0
3F003F007FC00FE0
7F003F001FE00FE0
7F003F000FE007E0
7E003F000FE007F0
FE003F0007E007F0
FE003F0007E007F0
FE003F0007E003F0
FE003F000FE003F0
FC003F000FE003F0
FC003F001FE003F0
FC003F007FC003F8
FC003FFFFFC003F8
FC003FFFFF8003F8
FC003FFFFF0003F8
FC003FFFFC0003F8
FC003FFFF80003F0
FE003FFFFC0003F0
FE003F01FC0003F0
FE003F00FE0007F0
FE003F00FF0007F0
7E003F007F0007F0
7F003F003F8007E0
7F003F001FC00FE0
7F003F001FC00FE0
3F803F000FE00FE0
3F803F0007F01FC0
1FC03F0007F01FC0
1FC03F0003F83F80
0FE03F0003F87F80
0FF03F0001FC7F00
07F000000000FF00
07F800000001FE00
03FC00000003FC00
01FE00000007FC00
00FF8000000FF800
007FC000003FF000
003FF80000FFE000
001FFE0007FFC000
000FFFFFFFFF0000
0007FFFFFFFE0000
0001FFFFFFF80000
00007FFFFFE00000
00001FFFFF800000
000001FFFC000000
ENDCHAR
STARTCHAR 00AF
ENCODING 175
SWIDTH 371 0
DWIDTH 33 0
BBX 25 6 4 57
BITMAP
FFFFFF80
FFFFFF80
FFFFFF80
FFFFFF80
FFFFFF80
FFFFFF80
ENDCHAR
STARTCHAR 00B0
ENCODING 176
SWIDTH 326 0
DWIDTH 29 0
BBX 25 25 2 44
BITMAP
007F0000
01FFE000
07FFF800
0FFFFC00
1FFFFE00
3FFFFE00
3F80FF00
7F007F00
7E003F80
7E001F80
FC001F80
FC001F80
FC001F80
FC001F80
FE001F80
7E001F80
7E003F80
7F007F00
3FC0FF00
3FFFFE00
1FFFFC00
0FFFF800
07FFF000
01FFC000
003E0000
ENDCHAR
STARTCHAR 00B1
ENCODING 177
SWIDTH 562 0
DWIDTH 50 0
BBX 40 55 5 0
BITMAP
00007F0000
00007F0000
00007F0000
00007F0000
00007F0000
00007F0000
00007F0000
00007F0000
00007F0000
00007F0000
00007F0000
00007F0000
00007F0000
00007F0000
00007F0000
00007F0000
00007F0000
00007F0000
FFFFFFFFFF
FFFFFFFFFF
FFFFFFFFFF
FFFFFFFFFF
FFFFFFFFFF
FFFFFFFFFF
FFFFFFFFFF
00007F0000
00007F0000
00007F0000
00007F0000
00007F0000
00007F0000
00007F0000
00007F0000
00007F0000
00007F0000
00007F0000
00007F0000
00007F0000
00007F0000
00007F0000
00007F0000
00007F0000
00007F0000
0000000000
0000000000
0000000000
0000000000
0000000000
FFFFFFFFFF
FFFFFFFFFF
FFFFFFFFFF
FFFFFFFFFF
FFFFFFFFFF
FFFFFFFFFF
FFFFFFFFFF
ENDCHAR
STARTCHAR 00B2
ENCODING 178
SWIDTH 348 0
DWIDTH 31 0
BBX 25 35 3 28
BITMAP
01FF0000
0FFFE000
3FFFF000
7FFFF800
FFFFFC00
FFFFFE00
7E01FE00
3800FE00
30007E00
00007E00
00007E00
00007E00
0000FE00
0000FC00
0001FC00
0003F800
0007F800
000FF000
001FE000
003FC000
00FF8000
01FF0000
03FE0000
07FC0000
0FF00000
0FE00000
1FC00000
3F800000
3F800000
3FFFFF80
7FFFFF80
7FFFFF80
7FFFFF80
7FFFFF80
7FFFFF80
ENDCHAR
STARTCHAR 00B3
ENCODING 179
SWIDTH 348 0
DWIDTH 31 0
BBX 25 36 3 27
BITMAP
01FF0000
1FFFC000
7FFFF000
7FFFF800
7FFFF800
3FDFFC00
3C01FC00
2000FE00
0000FE00
0000FE00
0000FE00
0000FC00
0001FC00
0007F800
01FFF000
01FFE000
01FFC000
01FFF000
01FFFC00
003FFE00
0001FE00
0000FF00
00007F00
00003F00
00003F80
00003F80
00003F00
00007F00
40007F00
7801FF00
7FFFFE00
FFFFFC00
FFFFF800
FFFFF000
3FFFC000
03FC0000
ENDCHAR
STARTCHAR 00B4
ENCODING 180
SWIDTH 371 0
DWIDTH 33 0
BBX 17 17 11 52
BITMAP
001000
003800
003C00
007E00
00FF00
01FF80
03FF00
07FE00
07FC00
0FF800
1FF000
3FE000
7FC000
FF8000
7F0000
3C0000
180000
ENDCHAR
STARTCHAR 00B5
ENCODING 181
SWIDTH 573 0
DWIDTH 51 0
BBX 37 62 7 -16
BITMAP
FF000007F8
FF000007F8
FF000007F8
FF000007F8
FF000007F8
FF000007F8
FF000007F8
FF000007F8
FF000007F8
FF000007F8
FF000007F8
FF000007F8
FF000007F8
FF000007F8
FF000007F8
FF000007F8
FF000007F8
FF000007F8
FF000007F8
FF000007F8
FF000007F8
FF000007F8
FF000007F8
FF000007F8
FF000007F8
FF000007F8
FF000007F8
FF000007F8
FF800007F8
FF800007F8
FF800007F8
FF800007F8
FF800007F8
FFC00007F8
FFC00007F8
FFE00007F8
FFE00007F8
FFF00007F8
FFFC0007F8
FFFFC0FFF8
FFFFFFFFF8
FFFFFFFFF8
FFFFFFFFF8
FFFFFFFFF8
FF3FFFFFF8
FF1FFFFFC0
FF01FFF000
FF00000000
FF00000000
FF00000000
FF00000000
FF00000000
FF00000000
FF00000000
FF00000000
FF00000000
FF00000000
FF00000000
FF00000000
FF00000000
FF00000000
FF00000000
ENDCHAR
STARTCHAR 00B6
ENCODING 182
SWIDTH 641 0
DWIDTH 57 0
BBX 44 78 4 -16
BITMAP
00001FFFFF00
0001FFFFFFF0
000FFFFFFFF0
003FFFFFFFF0
00FFFFFFFFF0
01FFFFFFFFF0
07FFFFFFFFF0
0FFFFFF003F0
1FFFFFF003F0
1FFFFFF003F0
3FFFFFF003F0
7FFFFFF003F0
7FFFFFF003F0
7FFFFFF003F0
FFFFFFF003F0
FFFFFFF003F0
FFFFFFF003F0
FFFFFFF003F0
FFFFFFF003F0
FFFFFFF003F0
FFFFFFF003F0
FFFFFFF003F0
FFFFFFF003F0
FFFFFFF003F0
FFFFFFF003F0
7FFFFFF003F0
7FFFFFF003F0
7FFFFFF003F0
3FFFFFF003F0
3FFFFFF003F0
1FFFFFF003F0
0FFFFFF003F0
07FFFFF003F0
03FFFFF003F0
01FFFFF003F0
007FFFF003F0
001FFFF003F0
0003FFF003F0
00001FF003F0
000007F003F0
000007F003F0
000007F003F0
000007F003F0
000007F003F0
000007F003F0
000007F003F0
000007F003F0
000007F003F0
000007F003F0
000007F003F0
000007F003F0
000007F003F0
000007F003F0
000007F003F0
000007F003F0
000007F003F0
000007F003F0
000007F003F0
000007F003F0
000007F003F0
000007F003F0
000007F003F0
000007F003F0
000007F003F0
000007F003F0
000007F003F0
000007F003F0
000007F003F0
000007F003F0
000007F003F0
000007F003F0
000007F003F0
000007F003F0
000007F003F0
000007F003F0
000007F003F0
000007F003F0
000007F003F0
ENDCHAR
STARTCHAR 00B7
ENCODING 183
SWIDTH 236 0
DWIDTH 21 0
BBX 12 12 5 20
BITMAP
1F80
3FC0
7FE0
FFE0
FFF0
FFF0
FFF0
FFF0
7FE0
7FE0
3FC0
0F00
ENDCHAR
STARTCHAR 00B8
ENCODING 184
SWIDTH 371 0
DWIDTH 33 0
BBX 17 19 6 -17
BITMAP
00FC00
00FC00
01F800
01F800
03F000
03F000
03FC00
07FE00
03FF00
00FF00
007F00
007F80
007F80
7FFF00
7FFF00
7FFF00
FFFE00
FFF800
0FC000
ENDCHAR
STARTCHAR 00B9
ENCODING 185
SWIDTH 348 0
DWIDTH 31 0
BBX 16 34 5 28
BITMAP
001F
003F
00FF
01FF
07FF
1FFF
FFFF
FFFF
FFBF
FE3F
703F
003F
003F
003F
003F
003F
003F
003F
003F
003F
003F
003F
003F
003F
003F
003F
003F
003F
003F
003F
003F
003F
003F
003F
ENDCHAR
STARTCHAR 00BA
ENCODING 186
SWIDTH 438 0
DWIDTH 39 0
BBX 32 34 4 29
BITMAP
000FF000
007FFE00
01FFFF80
03FFFFC0
0FFFFFE0
0FFFFFF0
1FF81FF8
3FE007F8
3F8003FC
7F0001FC
7F0000FE
FE0000FE
FE00007E
FE00007F
FE00007F
FC00007F
FC00007F
FC00007F
FC00007F
FE00007F
FE00007F
FE00007E
7E0000FE
7F0000FE
7F8001FC
3F8003FC
3FE007F8
1FF81FF8
0FFFFFF0
07FFFFE0
03FFFFC0
01FFFF00
007FFE00
000FE000
ENDCHAR
STARTCHAR 00BB
ENCODING 187
SWIDTH 495 0
DWIDTH 44 0
BBX 38 39 4 6
BITMAP
0400010000
1C00078000
7E001FC000
FF003FC000
FF001FE000
7F801FF000
3FC00FF000
3FE007F800
1FE007FC00
1FF003FC00
0FF803FE00
0FF801FF00
07FC00FF80
03FE00FF80
03FF007FC0
01FF007FE0
01FF803FE0
00FFC01FF0
007FC01FF8
007FE00FFC
007FE01FF8
00FFC01FF0
00FF803FF0
01FF803FE0
01FF007FC0
03FE00FFC0
07FC00FF80
07FC01FF00
0FF801FF00
0FF003FE00
1FF007FC00
3FE007F800
3FC00FF800
7FC00FF000
7F801FE000
FF001FE000
FE003FC000
3E000F8000
0C00030000
ENDCHAR
STARTCHAR 00BC
ENCODING 188
SWIDTH 866 0
DWIDTH 77 0
BBX 71 62 5 0
BITMAP
001F00000001FE0000
003F00000001FC0000
00FF00000003FC0000
01FF00000007F80000
07FF00000007F80000
1FFF0000000FF00000
FFFF0000000FE00000
FFFF0000001FE00000
FFBF0000001FC00000
FE3F0000003FC00000
703F0000007F800000
003F0000007F800000
003F000000FF000000
003F000000FF000000
003F000001FE000000
003F000001FC000000
003F000003FC000000
003F000003F8000000
003F000007F8000000
003F00000FF0000000
003F00000FF0000000
003F00001FE0000000
003F00001FC0000000
003F00003FC0000000
003F00003F80000000
003F00007F80000000
003F0000FF00000000
003F0000FF00000FC0
003F0001FE00001FC0
003F0001FE00003FC0
003F0003FC00007FC0
003F0003F80000FFC0
003F0007F80001FFC0
003F000FF00003FFC0
0000000FF00003FFC0
0000001FE00007EFC0
0000001FE0000FEFC0
0000003FC0001FCFC0
0000003F80003F8FC0
0000007F80003F0FC0
0000007F00007E0FC0
000000FF0000FC0FC0
000001FE0001F80FC0
000001FE0001F80FC0
000003FC0003F00FC0
000003F80007E00FC0
000007F80007E00FC0
000007F0000FC00FC0
00000FF0001FFFFFFE
00001FE0001FFFFFFE
00001FE0001FFFFFFE
00003FC0001FFFFFFE
00003FC0001FFFFFFE
00007F800000000FC0
00007F000000000FC0
0000FF000000000FC0
0000FE000000000FC0
0001FE000000000FC0
0003FC000000000FC0
0003FC000000000FC0
0007F8000000000FC0
0007F0000000000FC0
ENDCHAR
STARTCHAR 00BD
ENCODING 189
SWIDTH 866 0
DWIDTH 77 0
BBX 69 62 5 0
BITMAP
001F00000007F80000
003F00000007F00000
00FF0000000FF00000
01FF0000000FE00000
07FF0000001FE00000
1FFF0000003FC00000
FFFF0000003FC00000
FFFF0000007F800000
FFBF0000007F800000
FE3F000000FF000000
703F000000FE000000
003F000001FE000000
003F000003FC000000
003F000003FC000000
003F000007F8000000
003F000007F8000000
003F00000FF0000000
003F00000FE0000000
003F00001FE0000000
003F00001FC0000000
003F00003FC0000000
003F00007F80000000
003F00007F80000000
003F0000FF00000000
003F0000FE00000000
003F0001FE00000000
003F0001FC00000000
003F0003FC003FF800
003F0007F800FFFE00
003F0007F803FFFF00
003F000FF00FFFFF80
003F000FF01FFFFFC0
003F001FE00FFC7FC0
003F001FC007C01FE0
0000003FC003000FE0
0000007F8002000FE0
0000007F80000007E0
000000FF00000007E0
000000FF0000000FE0
000001FE0000000FE0
000001FC0000001FC0
000003FC0000003FC0
000003F80000007F80
000007F8000000FF00
00000FF0000001FE00
00000FF0000003FC00
00001FE0000007F800
00001FC000000FF000
00003FC000001FE000
00003F8000003FC000
00007F8000007F8000
0000FF000000FF0000
0000FF000001FE0000
0001FE000001FC0000
0001FE000003F80000
0003FC000003F00000
0003F8000007FFFFF8
0007F8000007FFFFF8
0007F0000007FFFFF8
000FF0000007FFFFF8
001FE0000007FFFFF8
001FE0000007FFFFF8
ENDCHAR
STARTCHAR 00BE
ENCODING 190
SWIDTH 866 0
DWIDTH 77 0
BBX 73 63 3 0
BITMAP
01FF0000000000000000
1FFFC00000003FC00000
7FFFF00000003FC00000
7FFFF80000007F800000
7FFFF80000007F800000
3FDFFC000000FF000000
3C01FC000000FE000000
2000FE000001FE000000
0000FE000003FC000000
0000FE000003FC000000
0000FE000007F8000000
0000FC000007F8000000
0001FC00000FF0000000
0007F800000FE0000000
01FFF000001FE0000000
01FFE000001FC0000000
01FFC000003FC0000000
01FFF000007F80000000
01FFFC00007F80000000
003FFE0000FF00000000
0001FE0000FE00000000
0000FF0001FE00000000
00007F0001FC00000000
00003F0003FC00000000
00003F8007F800000000
00003F8007F800000000
00003F000FF000000000
00007F000FF000000000
40007F001FE00003F000
7801FF001FC00007F000
7FFFFE003FC0000FF000
FFFFFC003F80001FF000
FFFFF8007F80003FF000
FFFFF000FF00007FF000
3FFFC000FF0000FFF000
03FC0001FE0000FFF000
00000001FC0001FBF000
00000003FC0003FBF000
00000003F80007F3F000
00000007F8000FE3F000
0000000FF0000FC3F000
0000000FF0001F83F000
0000001FE0003F03F000
0000001FE0007E03F000
0000003FC0007E03F000
0000003F8000FC03F000
0000007F8001F803F000
000000FF0001F803F000
000000FF0003F003F000
000001FE0007FFFFFF80
000001FE0007FFFFFF80
000003FC0007FFFFFF80
000003F80007FFFFFF80
000007F80007FFFFFF80
000007F000000003F000
00000FF000000003F000
00001FE000000003F000
00001FE000000003F000
00003FC000000003F000
00003F8000000003F000
00007F8000000003F000
00007F0000000003F000
0000FF0000000003F000
ENDCHAR
STARTCHAR 00BF
ENCODING 191
SWIDTH 393 0
DWIDTH 35 0
BBX 32 63 2 -17
BITMAP
0001F800
0003FE00
0007FF00
0007FF00
0007FF00
000FFF00
0007FF00
0007FF00
0007FF00
0003FE00
0001FC00
00006000
00000000
00000000
00000000
00000000
00000000
00000000
00000000
00000000
0001FC00
0000FE00
0001FE00
0001FE00
0001FE00
0001FE00
0001FC00
0003FC00
0003FC00
0007F800
000FF800
000FF000
001FF000
003FE000
007FC000
00FF8000
01FF0000
03FE0000
07FC0000
0FF80000
0FF80000
1FF00000
3FE00000
3FE00000
7FC00000
7FC00000
7F800000
7F800000
FF800000
FF800000
7FC00000
7FC00000
7FE00000
7FF0000C
3FF8003E
3FFF03FE
1FFFFFFE
1FFFFFFF
0FFFFFFF
03FFFFFF
01FFFFF8
007FFFC0
0003F800
ENDCHAR
STARTCHAR 00C0
ENCODING 192
SWIDTH 652 0
DWIDTH 58 0
BBX 57 82 1 1
BITMAP
0000030000000000
0000078000000000
00000FC000000000
00001FE000000000
00003FF000000000
00001FF000000000
00000FF800000000
000007FC00000000
000003FE00000000
000001FF00000000
000000FF80000000
0000007F80000000
0000003FC0000000
0000001FC0000000
0000000F80000000
0000000700000000
0000000000000000
0000000000000000
0000000000000000
0000000000000000
000000FF00000000
000000FF80000000
000001FF80000000
000001FFC0000000
000001FFC0000000
000003FFE0000000
000003FFE0000000
000007FFF0000000
000007FFF0000000
00000FFFF8000000
00000FFFF8000000
00001FF7FC000000
00001FE7FC000000
00001FE3FC000000
00003FC3FE000000
00003FC1FE000000
00007F81FF000000
00007F81FF000000
0000FF80FF800000
0000FF00FF800000
0000FF007F800000
0001FE007FC00000
0001FE007FC00000
0003FE003FE00000
0003FC003FE00000
0007FC001FE00000
0007F8001FF00000
0007F8001FF00000
000FF8000FF80000
000FF0000FF80000
000FF0000FF80000
001FF00007FC0000
001FE00007FC0000
003FE00003FE0000
003FC00003FE0000
003FC00003FE0000
007FC00001FF0000
007F800001FF0000
00FF800001FF8000
00FFFFFFFFFF8000
00FFFFFFFFFF8000
01FFFFFFFFFFC000
01FFFFFFFFFFC000
01FFFFFFFFFFC000
03FFFFFFFFFFE000
03FFFFFFFFFFE000
07FC0000003FF000
07FC0000001FF000
07FC0000001FF000
0FF80000001FF800
0FF80000000FF800
0FF00000000FF800
1FF00000000FFC00
1FF000000007FC00
3FE000000007FC00
3FE000000007FE00
3FE000000003FE00
7FC000000003FF00
7FC000000003FF00
7FC000000001FF00
FF8000000001FF80
FF8000000000FF80
ENDCHAR
STARTCHAR 00C1
ENCODING 193
SWIDTH 652 0
DWIDTH 58 0
BBX 57 83 1 0
BITMAP
0000000020000000
0000000070000000
00000000F8000000
00000001FC000000
00000001FE000000
00000003FF000000
00000007FE000000
0000000FF8000000
0000001FF0000000
0000001FE0000000
0000003FC0000000
0000007F80000000
000000FF00000000
000001FE00000000
000000FC00000000
0000007800000000
0000003000000000
0000000000000000
0000000000000000
0000000000000000
0000000000000000
000000FF00000000
000000FF80000000
000001FF80000000
000001FFC0000000
000001FFC0000000
000003FFE0000000
000003FFE0000000
000007FFF0000000
000007FFF0000000
00000FFFF8000000
00000FFFF8000000
00001FF7FC000000
00001FE7FC000000
00001FE3FC000000
00003FC3FE000000
00003FC1FE000000
00007F81FF000000
00007F81FF000000
0000FF80FF800000
0000FF00FF800000
0000FF007F800000
0001FE007FC00000
0001FE007FC00000
0003FE003FE00000
0003FC003FE00000
0007FC001FE00000
0007F8001FF00000
0007F8001FF00000
000FF8000FF80000
000FF0000FF80000
000FF0000FF80000
001FF00007FC0000
001FE00007FC0000
003FE00003FE0000
003FC00003FE0000
003FC00003FE0000
007FC00001FF0000
007F800001FF0000
00FF800001FF8000
00FFFFFFFFFF8000
00FFFFFFFFFF8000
01FFFFFFFFFFC000
01FFFFFFFFFFC000
01FFFFFFFFFFC000
03FFFFFFFFFFE000
03FFFFFFFFFFE000
07FC0000003FF000
07FC0000001FF000
07FC0000001FF000
0FF80000001FF800
0FF80000000FF800
0FF00000000FF800
1FF00000000FFC00
1FF000000007FC00
3FE000000007FC00
3FE000000007FE00
3FE000000003FE00
7FC000000003FF00
7FC000000003FF00
7FC000000001FF00
FF8000000001FF80
FF8000000000FF80
ENDCHAR
STARTCHAR 00C2
ENCODING 194
SWIDTH 652 0
DWIDTH 58 0
BBX 57 82 1 0
BITMAP
0000000800000000
0000001C00000000
0000003E00000000
0000007F00000000
000000FF80000000
000001FFC0000000
000003FFE0000000
000007FFF0000000
00000FFFF8000000
00001FE7FC000000
00003FC1FE000000
00007F80FF000000
0000FF007F800000
00007E003F000000
00003C001E000000
000018000C000000
0000000000000000
0000000000000000
0000000000000000
0000000000000000
000000FF00000000
000000FF80000000
000001FF80000000
000001FFC0000000
000001FFC0000000
000003FFE0000000
000003FFE0000000
000007FFF0000000
000007FFF0000000
00000FFFF8000000
00000FFFF8000000
00001FF7FC000000
00001FE7FC000000
00001FE3FC000000
00003FC3FE000000
00003FC1FE000000
00007F81FF000000
00007F81FF000000
0000FF80FF800000
0000FF00FF800000
0000FF007F800000
0001FE007FC00000
0001FE007FC00000
0003FE003FE00000
0003FC003FE00000
0007FC001FE00000
0007F8001FF00000
0007F8001FF00000
000FF8000FF80000
000FF0000FF80000
000FF0000FF80000
001FF00007FC0000
001FE00007FC0000
003FE00003FE0000
003FC00003FE0000
003FC00003FE0000
007FC00001FF0000
007F800001FF0000
00FF800001FF8000
00FFFFFFFFFF8000
00FFFFFFFFFF8000
01FFFFFFFFFFC000
01FFFFFFFFFFC000
01FFFFFFFFFFC000
03FFFFFFFFFFE000
03FFFFFFFFFFE000
07FC0000003FF000
07FC0000001FF000
07FC0000001FF000
0FF80000001FF800
0FF80000000FF800
0FF00000000FF800
1FF00000000FFC00
1FF000000007FC00
3FE000000007FC00
3FE000000007FE00
3FE000000003FE00
7FC000000003FF00
7FC000000003FF00
7FC000000001FF00
FF8000000001FF80
FF8000000000FF80
ENDCHAR
STARTCHAR 00C3
ENCODING 195
SWIDTH 652 0
DWIDTH 58 0
BBX 57 79 1 0
BITMAP
0000038003000000
00001FF003C00000
00003FFC07E00000
00007FFF9FC00000
0000FFFFFFC00000
0001FFFFFF800000
0001FFFFFF000000
0003F03FFE000000
0003E007FC000000
0000E001F0000000
0000000000000000
0000000000000000
0000000000000000
0000000000000000
0000000000000000
0000000000000000
0000000000000000
000000FF00000000
000000FF80000000
000001FF80000000
000001FFC0000000
000001FFC0000000
000003FFE0000000
000003FFE0000000
000007FFF0000000
000007FFF0000000
00000FFFF8000000
00000FFFF8000000
00001FF7FC000000
00001FE7FC000000
00001FE3FC000000
00003FC3FE000000
00003FC1FE000000
00007F81FF000000
00007F81FF000000
0000FF80FF800000
0000FF00FF800000
0000FF007F800000
0001FE007FC00000
0001FE007FC00000
0003FE003FE00000
0003FC003FE00000
0007FC001FE00000
0007F8001FF00000
0007F8001FF00000
000FF8000FF80000
000FF0000FF80000
000FF0000FF80000
001FF00007FC0000
001FE00007FC0000
003FE00003FE0000
003FC00003FE0000
003FC00003FE0000
007FC00001FF0000
007F800001FF0000
00FF800001FF8000
00FFFFFFFFFF8000
00FFFFFFFFFF8000
01FFFFFFFFFFC000
01FFFFFFFFFFC000
01FFFFFFFFFFC000
03FFFFFFFFFFE000
03FFFFFFFFFFE000
07FC0000003FF000
07FC0000001FF000
07FC0000001FF000
0FF80000001FF800
0FF80000000FF800
0FF00000000FF800
1FF00000000FFC00
1FF000000007FC00
3FE000000007FC00
3FE000000007FE00
3FE000000003FE00
7FC000000003FF00
7FC000000003FF00
7FC000000001FF00
FF8000000001FF80
FF8000000000FF80
ENDCHAR
STARTCHAR 00C4
ENCODING 196
SWIDTH 652 0
DWIDTH 58 0
BBX 57 79 1 0
BITMAP
00003C003E000000
0000FF007F800000
0001FF00FF800000
0001FF80FFC00000
0001FF80FFC00000
0001FF80FFC00000
0001FF80FFC00000
0001FF80FFC00000
0000FF007F800000
00007E003F000000
0000000000000000
0000000000000000
0000000000000000
0000000000000000
0000000000000000
0000000000000000
0000000000000000
000000FF00000000
000000FF80000000
000001FF80000000
000001FFC0000000
000001FFC0000000
000003FFE0000000
000003FFE0000000
000007FFF0000000
000007FFF0000000
00000FFFF8000000
00000FFFF8000000
00001FF7FC000000
00001FE7FC000000
00001FE3FC000000
00003FC3FE000000
00003FC1FE000000
00007F81FF000000
00007F81FF000000
0000FF80FF800000
0000FF00FF800000
0000FF007F800000
0001FE007FC00000
0001FE007FC00000
0003FE003FE00000
0003FC003FE00000
0007FC001FE00000
0007F8001FF00000
0007F8001FF00000
000FF8000FF80000
000FF0000FF80000
000FF0000FF80000
001FF00007FC0000
001FE00007FC0000
003FE00003FE0000
003FC00003FE0000
003FC00003FE0000
007FC00001FF0000
007F800001FF0000
00FF800001FF8000
00FFFFFFFFFF8000
00FFFFFFFFFF8000
01FFFFFFFFFFC000
01FFFFFFFFFFC000
01FFFFFFFFFFC000
03FFFFFFFFFFE000
03FFFFFFFFFFE000
07FC0000003FF000
07FC0000001FF000
07FC0000001FF000
0FF80000001FF800
0FF80000000FF800
0FF00000000FF800
1FF00000000FFC00
1FF000000007FC00
3FE000000007FC00
3FE000000007FE00
3FE000000003FE00
7FC000000003FF00
7FC000000003FF00
7FC000000001FF00
FF8000000001FF80
FF8000000000FF80
ENDCHAR
STARTCHAR 00C5
ENCODING 197
SWIDTH 652 0
DWIDTH 58 0
BBX 57 75 1 0
BITMAP
0000001800000000
000000FF80000000
000003FFC0000000
000007FFE0000000
000007FFF0000000
00000F81F8000000
00000F00F8000000
00001F0078000000
00001F0078000000
00001F0078000000
00001F0078000000
00001F0078000000
00000F00F8000000
00000FC1F8000000
000007FFF0000000
000007FFE0000000
000003FFC0000000
000001FFC0000000
000003FFE0000000
000003FFE0000000
000007FFF0000000
000007FFF0000000
00000FFFF8000000
00000FFFF8000000
00001FF7F8000000
00001FE7FC000000
00001FE3FC000000
00003FC3FE000000
00003FC1FE000000
00007F81FF000000
00007F81FF000000
0000FF80FF000000
0000FF00FF800000
0000FF007F800000
0001FE007FC00000
0001FE007FC00000
0003FE003FE00000
0003FC003FE00000
0007FC001FE00000
0007F8001FF00000
0007F8001FF00000
000FF8000FF80000
000FF0000FF80000
001FF0000FF80000
001FF00007FC0000
001FE00007FC0000
003FE00003FE0000
003FC00003FE0000
003FC00003FE0000
007FC00001FF0000
007F800001FF0000
00FF800001FF0000
00FFFFFFFFFF8000
00FFFFFFFFFF8000
01FFFFFFFFFFC000
01FFFFFFFFFFC000
03FFFFFFFFFFC000
03FFFFFFFFFFE000
03FFFFFFFFFFE000
07FC0000003FE000
07FC0000001FF000
07F80000001FF000
0FF80000001FF800
0FF80000000FF800
0FF00000000FF800
1FF00000000FFC00
1FF000000007FC00
3FE000000007FC00
3FE000000007FE00
3FE000000003FE00
7FC000000003FF00
7FC000000003FF00
7FC000000001FF00
FF8000000001FF80
FF8000000000FF80
ENDCHAR
STARTCHAR 00C6
ENCODING 198
SWIDTH 933 0
DWIDTH 83 0
BBX 79 62 1 0
BITMAP
0000000007FFFFFFFFF8
000000000FFFFFFFFFF8
000000001FFFFFFFFFF8
000000001FFFFFFFFFF8
000000003FFFFFFFFFF8
000000007FFFFFFFFFF8
000000007FFFFFFFFFF8
00000000FFFFFFFFFFF8
00000001FF7FC0000000
00000001FF7FC0000000
00000003FE7FC0000000
00000007FC7FC0000000
00000007F87FC0000000
0000000FF87FC0000000
0000001FF07FC0000000
0000001FE07FC0000000
0000003FE07FC0000000
0000007FC07FC0000000
0000007FC07FC0000000
000000FF807FC0000000
000001FF007FC0000000
000001FF007FC0000000
000003FE007FC0000000
000003FC007FC0000000
000007FC007FC0000000
00000FF8007FC0000000
00000FF8007FFFFFFF80
00001FF0007FFFFFFF80
00001FE0007FFFFFFF80
00003FE0007FFFFFFF80
00007FC0007FFFFFFF80
00007FC0007FFFFFFF80
0000FF80007FFFFFFF80
0001FF00007FC0000000
0001FF00007FC0000000
0003FE00007FC0000000
0003FE00007FC0000000
0007FC00007FC0000000
0007F800007FC0000000
000FFFFFFFFFC0000000
001FFFFFFFFFC0000000
001FFFFFFFFFC0000000
003FFFFFFFFFC0000000
003FFFFFFFFFC0000000
007FFFFFFFFFC0000000
007FFFFFFFFFC0000000
00FF8000007FC0000000
01FF0000007FC0000000
01FF0000007FC0000000
03FE0000007FC0000000
03FE0000007FC0000000
07FC0000007FC0000000
07FC0000007FC0000000
0FF80000007FC0000000
0FF80000007FC0000000
1FF00000007FFFFFFFFE
3FF00000007FFFFFFFFE
3FE00000007FFFFFFFFE
7FE00000007FFFFFFFFE
7FC00000007FFFFFFFFE
FFC00000007FFFFFFFFE
FF800000007FFFFFFFFE
ENDCHAR
STARTCHAR 00C7
ENCODING 199
SWIDTH 618 0
DWIDTH 55 0
BBX 48 80 5 -17
BITMAP
000000FFF000
00000FFFFF80
00007FFFFFF0
0001FFFFFFFC
0003FFFFFFFE
000FFFFFFFFE
001FFFFFFFFE
003FFFFFFFFC
007FFF0003FC
00FFF800007C
01FFE0000018
03FFC0000000
03FF80000000
07FF00000000
0FFE00000000
0FFC00000000
1FF800000000
1FF800000000
3FF000000000
3FF000000000
3FE000000000
7FE000000000
7FE000000000
7FC000000000
7FC000000000
7FC000000000
FFC000000000
FFC000000000
FF8000000000
FF8000000000
FF8000000000
FF8000000000
FF8000000000
FF8000000000
FF8000000000
FF8000000000
FFC000000000
FFC000000000
7FC000000000
7FC000000000
7FC000000000
7FC000000000
7FE000000000
3FE000000000
3FE000000000
3FF000000000
3FF000000000
1FF800000000
1FF800000000
0FFC00000000
0FFE00000000
07FF00000000
07FF80000000
03FFC0000004
01FFF000001C
00FFFC0000FC
007FFFE01FFE
003FFFFFFFFE
001FFFFFFFFE
000FFFFFFFFF
0003FFFFFFFF
0000FFFFFFFC
00003FFFFFE0
000007FFFE00
000000FC0000
000000F80000
000001F80000
000001FE0000
000003FF0000
000001FF8000
0000007F8000
0000003FC000
0000001FC000
0000003FC000
00003FFFC000
00003FFF8000
00003FFF8000
00003FFF0000
00007FFE0000
000007F00000
ENDCHAR
STARTCHAR 00C8
ENCODING 200
SWIDTH 562 0
DWIDTH 50 0
BBX 39 82 8 1
BITMAP
0003000000
0007800000
000FC00000
001FE00000
003FF00000
001FF00000
000FF80000
0007FC0000
0003FE0000
0001FF0000
0000FF8000
00007F8000
00003FC000
00001FC000
00000F8000
0000070000
0000000000
0000000000
0000000000
0000000000
FFFFFFFFF8
FFFFFFFFF8
FFFFFFFFF8
FFFFFFFFF8
FFFFFFFFF8
FFFFFFFFF8
FFFFFFFFF8
FFFFFFFFF8
FF00000000
FF00000000
FF00000000
FF00000000
FF00000000
FF00000000
FF00000000
FF00000000
FF00000000
FF00000000
FF00000000
FF00000000
FF00000000
FF00000000
FF00000000
FF00000000
FF00000000
FF00000000
FFFFFFFFC0
FFFFFFFFC0
FFFFFFFFC0
FFFFFFFFC0
FFFFFFFFC0
FFFFFFFFC0
FFFFFFFFC0
FF00000000
FF00000000
FF00000000
FF00000000
FF00000000
FF00000000
FF00000000
FF00000000
FF00000000
FF00000000
FF00000000
FF00000000
FF00000000
FF00000000
FF00000000
FF00000000
FF00000000
FF00000000
FF00000000
FF00000000
FF00000000
FF00000000
FFFFFFFFFE
FFFFFFFFFE
FFFFFFFFFE
FFFFFFFFFE
FFFFFFFFFE
FFFFFFFFFE
FFFFFFFFFE
ENDCHAR
STARTCHAR 00C9
ENCODING 201
SWIDTH 562 0
DWIDTH 50 0
BBX 39 82 8 1
BITMAP
0000006000
000000F000
000001F800
000003FC00
000007FE00
000007FC00
00000FF800
00001FF000
00003FE000
00007FC000
0000FF8000
0000FF0000
0001FE0000
0001FC0000
0000F80000
0000700000
0000000000
0000000000
0000000000
0000000000
FFFFFFFFF8
FFFFFFFFF8
FFFFFFFFF8
FFFFFFFFF8
FFFFFFFFF8
FFFFFFFFF8
FFFFFFFFF8
FFFFFFFFF8
FF00000000
FF00000000
FF00000000
FF00000000
FF00000000
FF00000000
FF00000000
FF00000000
FF00000000
FF00000000
FF00000000
FF00000000
FF00000000
FF00000000
FF00000000
FF00000000
FF00000000
FF00000000
FFFFFFFFC0
FFFFFFFFC0
FFFFFFFFC0
FFFFFFFFC0
FFFFFFFFC0
FFFFFFFFC0
FFFFFFFFC0
FF00000000
FF00000000
FF00000000
FF00000000
FF00000000
FF00000000
FF00000000
FF00000000
FF00000000
FF00000000
FF00000000
FF00000000
FF00000000
FF00000000
FF00000000
FF00000000
FF00000000
FF00000000
FF00000000
FF00000000
FF00000000
FF00000000
FFFFFFFFFE
FFFFFFFFFE
FFFFFFFFFE
FFFFFFFFFE
FFFFFFFFFE
FFFFFFFFFE
FFFFFFFFFE
ENDCHAR
STARTCHAR 00CA
ENCODING 202
SWIDTH 562 0
DWIDTH 50 0
BBX 39 82 8 0
BITMAP
0000200000
0000700000
0000F80000
0001FC0000
0003FE0000
0007FF0000
000FFF8000
001FFFC000
003FFFE000
007F9FF000
00FF07F800
01FE03FC00
03FC01FC00
01F800FC00
00F0007800
0060003000
0000000000
0000000000
0000000000
0000000000
FFFFFFFFF8
FFFFFFFFF8
FFFFFFFFF8
FFFFFFFFF8
FFFFFFFFF8
FFFFFFFFF8
FFFFFFFFF8
FFFFFFFFF8
FF00000000
FF00000000
FF00000000
FF00000000
FF00000000
FF00000000
FF00000000
FF00000000
FF00000000
FF00000000
FF00000000
FF00000000
FF00000000
FF00000000
FF00000000
FF00000000
FF00000000
FF00000000
FFFFFFFFC0
FFFFFFFFC0
FFFFFFFFC0
FFFFFFFFC0
FFFFFFFFC0
FFFFFFFFC0
FFFFFFFFC0
FF00000000
FF00000000
FF00000000
FF00000000
FF00000000
FF00000000
FF00000000
FF00000000
FF00000000
FF00000000
FF00000000
FF00000000
FF00000000
FF00000000
FF00000000
FF00000000
FF00000000
FF00000000
FF00000000
FF00000000
FF00000000
FF00000000
FFFFFFFFFE
FFFFFFFFFE
FFFFFFFFFE
FFFFFFFFFE
FFFFFFFFFE
FFFFFFFFFE
FFFFFFFFFE
ENDCHAR
STARTCHAR 00CB
ENCODING 203
SWIDTH 562 0
DWIDTH 50 0
BBX 39 79 8 0
BITMAP
00F000F800
03FC01FE00
07FC03FE00
07FE03FF00
07FE03FF00
07FE03FF00
07FE03FF00
07FE03FE00
03FC01FE00
01F800FC00
0000000000
0000000000
0000000000
0000000000
0000000000
0000000000
0000000000
FFFFFFFFF8
FFFFFFFFF8
FFFFFFFFF8
FFFFFFFFF8
FFFFFFFFF8
FFFFFFFFF8
FFFFFFFFF8
FFFFFFFFF8
FF00000000
FF00000000
FF00000000
FF00000000
FF00000000
FF00000000
FF00000000
FF00000000
FF00000000
FF00000000
FF00000000
FF00000000
FF00000000
FF00000000
FF00000000
FF00000000
FF00000000
FF00000000
FFFFFFFFC0
FFFFFFFFC0
FFFFFFFFC0
FFFFFFFFC0
FFFFFFFFC0
FFFFFFFFC0
FFFFFFFFC0
FF00000000
FF00000000
FF00000000
FF00000000
FF00000000
FF00000000
FF00000000
FF00000000
FF00000000
FF00000000
FF00000000
FF00000000
FF00000000
FF00000000
FF00000000
FF00000000
FF00000000
FF00000000
FF00000000
FF00000000
FF00000000
FF00000000
FFFFFFFFFE
FFFFFFFFFE
FFFFFFFFFE
FFFFFFFFFE
FFFFFFFFFE
FFFFFFFFFE
FFFFFFFFFE
ENDCHAR
STARTCHAR 00CC
ENCODING 204
SWIDTH 258 0
DWIDTH 23 0
BBX 17 83 1 0
BITMAP
040000
0E0000
1F0000
3F0000
7F8000
FFC000
7FE000
3FF000
1FF800
07F800
03FC00
01FE00
00FF00
007F80
003F00
001E00
000C00
000000
000000
000000
000000
01FE00
01FE00
01FE00
01FE00
01FE00
01FE00
01FE00
01FE00
01FE00
01FE00
01FE00
01FE00
01FE00
01FE00
01FE00
01FE00
01FE00
01FE00
01FE00
01FE00
01FE00
01FE00
01FE00
01FE00
01FE00
01FE00
01FE00
01FE00
01FE00
01FE00
01FE00
01FE00
01FE00
01FE00
01FE00
01FE00
01FE00
01FE00
01FE00
01FE00
01FE00
01FE00
01FE00
01FE00
01FE00
01FE00
01FE00
01FE00
01FE00
01FE00
01FE00
01FE00
01FE00
01FE00
01FE00
01FE00
01FE00
01FE00
01FE00
01FE00
01FE00
01FE00
ENDCHAR
STARTCHAR 00CD
ENCODING 205
SWIDTH 258 0
DWIDTH 23 0
BBX 17 83 6 0
BITMAP
001000
003800
007C00
007E00
00FF00
01FF80
03FF00
07FE00
0FFC00
0FF800
1FF000
3FC000
7F8000
FF0000
7E0000
3C0000
180000
000000
000000
000000
000000
3FC000
3FC000
3FC000
3FC000
3FC000
3FC000
3FC000
3FC000
3FC000
3FC000
3FC000
3FC000
3FC000
3FC000
3FC000
3FC000
3FC000
3FC000
3FC000
3FC000
3FC000
3FC000
3FC000
3FC000
3FC000
3FC000
3FC000
3FC000
3FC000
3FC000
3FC000
3FC000
3FC000
3FC000
3FC000
3FC000
3FC000
3FC000
3FC000
3FC000
3FC000
3FC000
3FC000
3FC000
3FC000
3FC000
3FC000
3FC000
3FC000
3FC000
3FC000
3FC000
3FC000
3FC000
3FC000
3FC000
3FC000
3FC000
3FC000
3FC000
3FC000
3FC000
ENDCHAR
STARTCHAR 00CE
ENCODING 206
SWIDTH 258 0
DWIDTH 23 0
BBX 24 82 0 0
BITMAP
001800
003C00
007E00
00FF00
01FF00
01FF80
03FFC0
07FFE0
0FFFF0
1FE7F8
3FC3FC
7F81FE
FF00FF
7E007E
38003C
100008
000000
000000
000000
000000
00FF00
00FF00
00FF00
00FF00
00FF00
00FF00
00FF00
00FF00
00FF00
00FF00
00FF00
00FF00
00FF00
00FF00
00FF00
00FF00
00FF00
00FF00
00FF00
00FF00
00FF00
00FF00
00FF00
00FF00
00FF00
00FF00
00FF00
00FF00
00FF00
00FF00
00FF00
00FF00
00FF00
00FF00
00FF00
00FF00
00FF00
00FF00
00FF00
00FF00
00FF00
00FF00
00FF00
00FF00
00FF00
00FF00
00FF00
00FF00
00FF00
00FF00
00FF00
00FF00
00FF00
00FF00
00FF00
00FF00
00FF00
00FF00
00FF00
00FF00
00FF00
00FF00
ENDCHAR
STARTCHAR 00CF
ENCODING 207
SWIDTH 258 0
DWIDTH 23 0
BBX 28 79 -2 0
BITMAP
1F000F80
3F801FC0
7FC03FE0
7FC07FE0
FFE07FF0
FFE07FF0
7FE07FE0
7FC03FE0
3FC03FC0
1F000F80
00000000
00000000
00000000
00000000
00000000
00000000
00000000
003FC000
003FC000
003FC000
003FC000
003FC000
003FC000
003FC000
003FC000
003FC000
003FC000
003FC000
003FC000
003FC000
003FC000
003FC000
003FC000
003FC000
003FC000
003FC000
003FC000
003FC000
003FC000
003FC000
003FC000
003FC000
003FC000
003FC000
003FC000
003FC000
003FC000
003FC000
003FC000
003FC000
003FC000
003FC000
003FC000
003FC000
003FC000
003FC000
003FC000
003FC000
003FC000
003FC000
003FC000
003FC000
003FC000
003FC000
003FC000
003FC000
003FC000
003FC000
003FC000
003FC000
003FC000
003FC000
003FC000
003FC000
003FC000
003FC000
003FC000
003FC000
003FC000
ENDCHAR
STARTCHAR 00D0
ENCODING 208
SWIDTH 720 0
DWIDTH 64 0
BBX 57 63 2 -1
BITMAP
001FFFFF00000000
01FFFFFFF0000000
01FFFFFFFE000000
01FFFFFFFFC00000
01FFFFFFFFF00000
01FFFFFFFFF80000
01FFFFFFFFFE0000
01FF803FFFFF0000
01FE00007FFF8000
01FE00000FFFC000
01FE000003FFE000
01FE000000FFF000
01FE0000007FF000
01FE0000003FF800
01FE0000001FFC00
01FE0000000FFC00
01FE0000000FFE00
01FE00000007FE00
01FE00000003FE00
01FE00000003FF00
01FE00000003FF00
01FE00000001FF00
01FE00000001FF80
01FE00000001FF80
01FE00000000FF80
01FE00000000FF80
01FE00000000FF80
FFFFFFE00000FF80
FFFFFFE00000FF80
FFFFFFE00000FF80
FFFFFFE00000FF80
FFFFFFE00000FF80
FFFFFFE00000FF80
01FE00000000FF80
01FE00000000FF80
01FE00000000FF80
01FE00000000FF80
01FE00000000FF80
01FE00000001FF80
01FE00000001FF80
01FE00000001FF00
01FE00000001FF00
01FE00000003FF00
01FE00000003FE00
01FE00000007FE00
01FE00000007FE00
01FE0000000FFC00
01FE0000001FFC00
01FE0000003FF800
01FE0000007FF800
01FE000000FFF000
01FE000001FFE000
01FE000007FFC000
01FE00003FFF8000
01FE0003FFFF0000
01FFFFFFFFFE0000
01FFFFFFFFFC0000
01FFFFFFFFF00000
01FFFFFFFFC00000
01FFFFFFFF000000
01FFFFFFF8000000
007FFFFFC0000000
0000034000000000
ENDCHAR
STARTCHAR 00D1
ENCODING 209
SWIDTH 720 0
DWIDTH 64 0
BBX 49 79 8 0
BITMAP
00003800300000
0001FF003C0000
0003FFC07E0000
0007FFF9FC0000
000FFFFFFC0000
001FFFFFF80000
001FFFFFF00000
003F03FFE00000
003E00FFC00000
000E001F000000
00000000000000
00000000000000
00000000000000
00000000000000
00000000000000
00000000000000
00000000000000
FE000000007F80
FF000000007F80
FF000000007F80
FF800000007F80
FFC00000007F80
FFE00000007F80
FFF00000007F80
FFF80000007F80
FFFC0000007F80
FFFC0000007F80
FFFE0000007F80
FFFF0000007F80
FFFF8000007F80
FFFFC000007F80
FF7FC000007F80
FF7FE000007F80
FF3FF000007F80
FF1FF800007F80
FF0FF800007F80
FF07FC00007F80
FF03FE00007F80
FF03FF00007F80
FF01FF80007F80
FF00FF80007F80
FF007FC0007F80
FF007FE0007F80
FF003FE0007F80
FF001FF0007F80
FF000FF8007F80
FF000FFC007F80
FF0007FC007F80
FF0003FE007F80
FF0003FF007F80
FF0001FF007F80
FF0000FF807F80
FF00007FC07F80
FF00007FC07F80
FF00003FE07F80
FF00001FF07F80
FF00001FF07F80
FF00000FF87F80
FF000007FC7F80
FF000007FC7F80
FF000003FE7F80
FF000001FF7F80
FF000001FF7F80
FF000000FFFF80
FF0000007FFF80
FF0000007FFF80
FF0000003FFF80
FF0000001FFF80
FF0000001FFF80
FF0000000FFF80
FF00000007FF80
FF00000007FF80
FF00000003FF80
FF00000001FF80
FF00000001FF80
FF00000000FF80
FF00000000FF80
FF000000007F80
FF000000003F80
ENDCHAR
STARTCHAR 00D2
ENCODING 210
SWIDTH 776 0
DWIDTH 69 0
BBX 59 84 5 -1
BITMAP
0000008000000000
0000018000000000
000003C000000000
000007E000000000
00000FF000000000
00001FF800000000
00000FFC00000000
000007FC00000000
000003FE00000000
000001FF00000000
000000FF80000000
0000007FC0000000
0000003FE0000000
0000001FE0000000
0000000FE0000000
00000007C0000000
0000000380000000
0000000100000000
0000000000000000
0000000000000000
000000FFF0000000
00000FFFFF000000
00007FFFFFC00000
0001FFFFFFF00000
0007FFFFFFFC0000
000FFFFFFFFE0000
001FFFFFFFFF8000
003FFFFFFFFFC000
007FFE000FFFE000
00FFF80003FFF000
01FFE00000FFF000
03FF8000003FF800
07FF0000001FFC00
07FE0000000FFC00
0FFC00000007FE00
0FFC00000007FE00
1FF800000003FF00
1FF000000001FF00
3FF000000001FF80
3FF000000001FF80
3FE000000000FF80
7FE000000000FFC0
7FE0000000007FC0
7FC0000000007FC0
7FC0000000007FC0
7FC0000000007FE0
FFC0000000007FE0
FF80000000003FE0
FF80000000003FE0
FF80000000003FE0
FF80000000003FE0
FF80000000003FE0
FF80000000003FE0
FF80000000003FE0
FF80000000003FE0
FF80000000003FE0
FF80000000003FE0
FFC0000000007FE0
7FC0000000007FE0
7FC0000000007FC0
7FC0000000007FC0
7FC0000000007FC0
7FE000000000FFC0
3FE000000000FFC0
3FE000000000FF80
3FF000000001FF80
1FF000000001FF00
1FF800000003FF00
0FFC00000003FF00
0FFC00000007FE00
07FE0000000FFE00
07FF0000001FFC00
03FF8000003FF800
01FFC000007FF800
01FFF00001FFF000
00FFFC0007FFE000
007FFFE07FFFC000
003FFFFFFFFF8000
001FFFFFFFFF0000
0007FFFFFFFC0000
0003FFFFFFF80000
0000FFFFFFE00000
00001FFFFF800000
000003FFF8000000
ENDCHAR
STARTCHAR 00D3
ENCODING 211
SWIDTH 776 0
DWIDTH 69 0
BBX 59 83 5 0
BITMAP
0000000030000000
0000000078000000
00000000FC000000
00000001FE000000
00000001FF000000
00000003FE000000
00000007FC000000
0000000FF8000000
0000001FF0000000
0000003FE0000000
0000003FC0000000
0000007F80000000
000000FF00000000
000000FE00000000
0000007C00000000
0000001800000000
0000000000000000
0000000000000000
0000000000000000
000000FFF0000000
00000FFFFF000000
00007FFFFFC00000
0001FFFFFFF00000
0007FFFFFFFC0000
000FFFFFFFFE0000
001FFFFFFFFF8000
003FFFFFFFFFC000
007FFE000FFFE000
00FFF80003FFF000
01FFE00000FFF000
03FF8000003FF800
07FF0000001FFC00
07FE0000000FFC00
0FFC00000007FE00
0FFC00000007FE00
1FF800000003FF00
1FF000000001FF00
3FF000000001FF80
3FF000000001FF80
3FE000000000FF80
7FE000000000FFC0
7FE0000000007FC0
7FC0000000007FC0
7FC0000000007FC0
7FC0000000007FE0
FFC0000000007FE0
FF80000000003FE0
FF80000000003FE0
FF80000000003FE0
FF80000000003FE0
FF80000000003FE0
FF80000000003FE0
FF80000000003FE0
FF80000000003FE0
FF80000000003FE0
FF80000000003FE0
FFC0000000007FE0
7FC0000000007FE0
7FC0000000007FC0
7FC0000000007FC0
7FC0000000007FC0
7FE000000000FFC0
3FE000000000FFC0
3FE000000000FF80
3FF000000001FF80
1FF000000001FF00
1FF800000003FF00
0FFC00000003FF00
0FFC00000007FE00
07FE0000000FFE00
07FF0000001FFC00
03FF8000003FF800
01FFC000007FF800
01FFF00001FFF000
00FFFC0007FFE000
007FFFE07FFFC000
003FFFFFFFFF8000
001FFFFFFFFF0000
0007FFFFFFFC0000
0003FFFFFFF80000
0000FFFFFFE00000
00001FFFFF800000
000003FFF8000000
ENDCHAR
STARTCHAR 00D4
ENCODING 212
SWIDTH 776 0
DWIDTH 69 0
BBX 59 83 5 -1
BITMAP
0000000400000000
0000000E00000000
0000001F00000000
0000003F80000000
0000007FC0000000
000000FFE0000000
000001FFF0000000
000003FFF8000000
000007FFFC000000
00000FF9FE000000
00001FE0FF000000
00003FC07F800000
00007F803FC00000
00003F001F800000
00001E000F000000
00000C0006000000
0000000000000000
0000000000000000
0000000000000000
000000FFF0000000
00000FFFFF000000
00007FFFFFC00000
0001FFFFFFF00000
0007FFFFFFFC0000
000FFFFFFFFE0000
001FFFFFFFFF8000
003FFFFFFFFFC000
007FFE000FFFE000
00FFF80003FFF000
01FFE00000FFF000
03FF8000003FF800
07FF0000001FFC00
07FE0000000FFC00
0FFC00000007FE00
0FFC00000007FE00
1FF800000003FF00
1FF000000001FF00
3FF000000001FF80
3FF000000001FF80
3FE000000000FF80
7FE000000000FFC0
7FE0000000007FC0
7FC0000000007FC0
7FC0000000007FC0
7FC0000000007FE0
FFC0000000007FE0
FF80000000003FE0
FF80000000003FE0
FF80000000003FE0
FF80000000003FE0
FF80000000003FE0
FF80000000003FE0
FF80000000003FE0
FF80000000003FE0
FF80000000003FE0
FF80000000003FE0
FFC0000000007FE0
7FC0000000007FE0
7FC0000000007FC0
7FC0000000007FC0
7FC0000000007FC0
7FE000000000FFC0
3FE000000000FFC0
3FE000000000FF80
3FF000000001FF80
1FF000000001FF00
1FF800000003FF00
0FFC00000003FF00
0FFC00000007FE00
07FE0000000FFE00
07FF0000001FFC00
03FF8000003FF800
01FFC000007FF800
01FFF00001FFF000
00FFFC0007FFE000
007FFFE07FFFC000
003FFFFFFFFF8000
001FFFFFFFFF0000
0007FFFFFFFC0000
0003FFFFFFF80000
0000FFFFFFE00000
00001FFFFF800000
000003FFF8000000
ENDCHAR
STARTCHAR 00D5
ENCODING 213
SWIDTH 776 0
DWIDTH 69 0
BBX 59 80 5 -1
BITMAP
000001C000800000
00000FF801E00000
00001FFE03F00000
00003FFFCFF00000
00007FFFFFE00000
0000FFFFFFC00000
0000FFFFFFC00000
0001FC0FFF800000
0001F803FE000000
00007000F8000000
0000000000000000
0000000000000000
0000000000000000
0000000000000000
0000000000000000
0000000000000000
000000FFF0000000
00000FFFFF000000
00007FFFFFC00000
0001FFFFFFF00000
0007FFFFFFFC0000
000FFFFFFFFE0000
001FFFFFFFFF8000
003FFFFFFFFFC000
007FFE000FFFE000
00FFF80003FFF000
01FFE00000FFF000
03FF8000003FF800
07FF0000001FFC00
07FE0000000FFC00
0FFC00000007FE00
0FFC00000007FE00
1FF800000003FF00
1FF000000001FF00
3FF000000001FF80
3FF000000001FF80
3FE000000000FF80
7FE000000000FFC0
7FE0000000007FC0
7FC0000000007FC0
7FC0000000007FC0
7FC0000000007FE0
FFC0000000007FE0
FF80000000003FE0
FF80000000003FE0
FF80000000003FE0
FF80000000003FE0
FF80000000003FE0
FF80000000003FE0
FF80000000003FE0
FF80000000003FE0
FF80000000003FE0
FF80000000003FE0
FFC0000000007FE0
7FC0000000007FE0
7FC0000000007FC0
7FC0000000007FC0
7FC0000000007FC0
7FE000000000FFC0
3FE000000000FFC0
3FE000000000FF80
3FF000000001FF80
1FF000000001FF00
1FF800000003FF00
0FFC00000003FF00
0FFC00000007FE00
07FE0000000FFE00
07FF0000001FFC00
03FF8000003FF800
01FFC000007FF800
01FFF00001FFF000
00FFFC0007FFE000
007FFFE07FFFC000
003FFFFFFFFF8000
001FFFFFFFFF0000
0007FFFFFFFC0000
0003FFFFFFF80000
0000FFFFFFE00000
00001FFFFF800000
000003FFF8000000
ENDCHAR
STARTCHAR 00D6
ENCODING 214
SWIDTH 776 0
DWIDTH 69 0
BBX 59 80 5 -1
BITMAP
00001F000F000000
00007F803FC00000
00007FC07FE00000
0000FFC07FE00000
0000FFC07FE00000
0000FFC07FE00000
0000FFC07FE00000
0000FFC07FE00000
00007F803FC00000
00003F001F800000
0000000000000000
0000000000000000
0000000000000000
0000000000000000
0000000000000000
0000000000000000
000000FFF0000000
00000FFFFF000000
00007FFFFFC00000
0001FFFFFFF00000
0007FFFFFFFC0000
000FFFFFFFFE0000
001FFFFFFFFF8000
003FFFFFFFFFC000
007FFE000FFFE000
00FFF80003FFF000
01FFE00000FFF000
03FF8000003FF800
07FF0000001FFC00
07FE0000000FFC00
0FFC00000007FE00
0FFC00000007FE00
1FF800000003FF00
1FF000000001FF00
3FF000000001FF80
3FF000000001FF80
3FE000000000FF80
7FE000000000FFC0
7FE0000000007FC0
7FC0000000007FC0
7FC0000000007FC0
7FC0000000007FE0
FFC0000000007FE0
FF80000000003FE0
FF80000000003FE0
FF80000000003FE0
FF80000000003FE0
FF80000000003FE0
FF80000000003FE0
FF80000000003FE0
FF80000000003FE0
FF80000000003FE0
FF80000000003FE0
FFC0000000007FE0
7FC0000000007FE0
7FC0000000007FC0
7FC0000000007FC0
7FC0000000007FC0
7FE000000000FFC0
3FE000000000FFC0
3FE000000000FF80
3FF000000001FF80
1FF000000001FF00
1FF800000003FF00
0FFC00000003FF00
0FFC00000007FE00
07FE0000000FFE00
07FF0000001FFC00
03FF8000003FF800
01FFC000007FF800
01FFF00001FFF000
00FFFC0007FFE000
007FFFE07FFFC000
003FFFFFFFFF8000
001FFFFFFFFF0000
0007FFFFFFFC0000
0003FFFFFFF80000
0000FFFFFFE00000
00001FFFFF800000
000003FFF8000000
ENDCHAR
STARTCHAR 00D7
ENCODING 215
SWIDTH 562 0
DWIDTH 50 0
BBX 36 35 7 10
BITMAP
0C00000300
1E00000780
3F00000FC0
7F80001FE0
FFC0003FF0
7FE0007FE0
3FF000FFC0
1FF801FF80
0FFC03FF00
07FE07FE00
03FF0FFC00
01FF9FF800
00FFFFF000
007FFFE000
003FFFC000
001FFF8000
000FFF0000
0007FE0000
000FFF0000
001FFF8000
003FFFC000
007FFFE000
00FFFFF000
01FF9FF800
03FF0FFC00
07FE07FE00
0FFC03FF00
1FF801FF80
3FF000FFC0
7FE0007FE0
FFC0003FF0
7F80001FE0
3F00000FC0
1E00000780
0C00000300
ENDCHAR
STARTCHAR 00D8
ENCODING 216
SWIDTH 776 0
DWIDTH 69 0
BBX 59 68 5 -3
BITMAP
0000000000001000
0000000000001C00
000000FFF0003E00
00000FFFFF007F00
00007FFFFFC0FF80
0001FFFFFFF0FF00
0007FFFFFFFDFE00
000FFFFFFFFFFE00
001FFFFFFFFFFC00
003FFFFFFFFFF800
007FFE000FFFF000
00FFF80003FFF000
01FFE00000FFF000
03FF8000007FF800
07FF0000007FFC00
07FE000000FFFC00
0FFC000001FFFE00
0FFC000003FFFE00
1FF8000003FFFF00
1FF0000007F9FF00
3FF000000FF9FF80
3FF000001FF0FF80
3FE000003FE0FF80
7FE000003FC0FFC0
7FE000007FC07FC0
7FC00000FF807FC0
7FC00001FF007FC0
7FC00001FE007FE0
FFC00003FC007FE0
FF800007FC003FE0
FF80000FF8003FE0
FF80001FF0003FE0
FF80001FE0003FE0
FF80003FE0003FE0
FF80007FC0003FE0
FF8000FF80003FE0
FF8000FF00003FE0
FF8001FF00003FE0
FF8003FE00003FE0
FFC007FC00007FE0
7FC007F800007FE0
7FC00FF000007FC0
7FC01FF000007FC0
7FC03FE000007FC0
7FE07FC00000FFC0
3FE07F800000FFC0
3FE0FF800000FF80
3FF1FF000001FF80
1FF3FE000001FF00
1FFBFC000003FF00
0FFFF8000003FF00
0FFFF8000007FE00
07FFF000000FFE00
07FFE000001FFC00
03FFC000003FF800
01FFC000007FF800
01FFF00001FFF000
01FFFC0007FFE000
01FFFFC07FFFC000
03FFFFFFFFFF8000
07FFFFFFFFFF0000
0FFFFFFFFFFC0000
0FF3FFFFFFF80000
1FE0FFFFFFE00000
1FE01FFFFF800000
0FC003FFF8000000
0780000000000000
0100000000000000
ENDCHAR
STARTCHAR 00D9
ENCODING 217
SWIDTH 686 0
DWIDTH 61 0
BBX 47 84 7 -1
BITMAP
000020000000
000060000000
0000F0000000
0001F8000000
0003FC000000
0007FE000000
0003FF000000
0001FF000000
0000FF800000
00007FC00000
00003FE00000
00001FF00000
00000FF80000
000007F80000
000003F80000
000001F00000
000000E00000
000000400000
000000000000
000000000000
000000000000
FF80000003FE
FF80000003FE
FF80000003FE
FF80000003FE
FF80000003FE
FF80000003FE
FF80000003FE
FF80000003FE
FF80000003FE
FF80000003FE
FF80000003FE
FF80000003FE
FF80000003FE
FF80000003FE
FF80000003FE
FF80000003FE
FF80000003FE
FF80000003FE
FF80000003FE
FF80000003FE
FF80000003FE
FF80000003FE
FF80000003FE
FF80000003FE
FF80000003FE
FF80000003FE
FF80000003FE
FF80000003FE
FF80000003FE
FF80000003FE
FF80000003FE
FF80000003FE
FF80000003FE
FF80000003FE
FF80000003FE
FF80000003FE
FF80000003FE
FF80000003FE
FF80000003FE
FF80000003FE
FF80000003FE
FF80000003FE
FF80000003FE
FF80000003FE
7F80000003FE
7FC0000007FC
7FC0000007FC
7FC0000007FC
3FE000000FFC
3FE000000FF8
3FF000001FF8
1FF800003FF0
1FFC00007FF0
0FFE0000FFE0
0FFF8003FFE0
07FFF83FFFC0
03FFFFFFFF80
01FFFFFFFF00
00FFFFFFFE00
007FFFFFFC00
001FFFFFF000
0007FFFFC000
0000FFFE0000
ENDCHAR
STARTCHAR 00DA
ENCODING 218
SWIDTH 686 0
DWIDTH 61 0
BBX 47 83 7 0
BITMAP
0000000C0000
0000001E0000
0000003F0000
0000007F8000
0000007FC000
000000FF8000
000001FF0000
000003FE0000
000007FC0000
00000FF80000
00000FF00000
00001FE00000
00003FC00000
00003F800000
00001F000000
000006000000
000000000000
000000000000
000000000000
000000000000
FF80000003FE
FF80000003FE
FF80000003FE
FF80000003FE
FF80000003FE
FF80000003FE
FF80000003FE
FF80000003FE
FF80000003FE
FF80000003FE
FF80000003FE
FF80000003FE
FF80000003FE
FF80000003FE
FF80000003FE
FF80000003FE
FF80000003FE
FF80000003FE
FF80000003FE
FF80000003FE
FF80000003FE
FF80000003FE
FF80000003FE
FF80000003FE
FF80000003FE
FF80000003FE
FF80000003FE
FF80000003FE
FF80000003FE
FF80000003FE
FF80000003FE
FF80000003FE
FF80000003FE
FF80000003FE
FF80000003FE
FF80000003FE
FF80000003FE
FF80000003FE
FF80000003FE
FF80000003FE
FF80000003FE
FF80000003FE
FF80000003FE
FF80000003FE
7F80000003FE
7FC0000007FC
7FC0000007FC
7FC0000007FC
3FE000000FFC
3FE000000FF8
3FF000001FF8
1FF800003FF0
1FFC00007FF0
0FFE0000FFE0
0FFF8003FFE0
07FFF83FFFC0
03FFFFFFFF80
01FFFFFFFF00
00FFFFFFFE00
007FFFFFFC00
001FFFFFF000
0007FFFFC000
0000FFFE0000
ENDCHAR
STARTCHAR 00DB
ENCODING 219
SWIDTH 686 0
DWIDTH 61 0
BBX 47 83 7 -1
BITMAP
000001000000
000003800000
000007C00000
00000FE00000
00001FF00000
00003FF80000
00007FFC0000
0000FFFE0000
0001FFFF0000
0003FE7F8000
0007F83FC000
000FF01FE000
001FE00FF000
000FC007E000
00078003C000
000300018000
000000000000
000000000000
000000000000
000000000000
FF80000003FE
FF80000003FE
FF80000003FE
FF80000003FE
FF80000003FE
FF80000003FE
FF80000003FE
FF80000003FE
FF80000003FE
FF80000003FE
FF80000003FE
FF80000003FE
FF80000003FE
FF80000003FE
FF80000003FE
FF80000003FE
FF80000003FE
FF80000003FE
FF80000003FE
FF80000003FE
FF80000003FE
FF80000003FE
FF80000003FE
FF80000003FE
FF80000003FE
FF80000003FE
FF80000003FE
FF80000003FE
FF80000003FE
FF80000003FE
FF80000003FE
FF80000003FE
FF80000003FE
FF80000003FE
FF80000003FE
FF80000003FE
FF80000003FE
FF80000003FE
FF80000003FE
FF80000003FE
FF80000003FE
FF80000003FE
FF80000003FE
FF80000003FE
7F80000003FE
7FC0000007FC
7FC0000007FC
7FC0000007FC
3FE000000FFC
3FE000000FF8
3FF000001FF8
1FF800003FF0
1FFC00007FF0
0FFE0000FFE0
0FFF8003FFE0
07FFF83FFFC0
03FFFFFFFF80
01FFFFFFFF00
00FFFFFFFE00
007FFFFFFC00
001FFFFFF000
0007FFFFC000
0000FFFE0000
ENDCHAR
STARTCHAR 00DC
ENCODING 220
SWIDTH 686 0
DWIDTH 61 0
BBX 47 80 7 -1
BITMAP
0007C003C000
001FE00FF000
001FF01FF800
003FF01FF800
003FF01FF800
003FF01FF800
003FF01FF800
003FF01FF800
001FE00FF000
000FC007E000
000000000000
000000000000
000000000000
000000000000
000000000000
000000000000
000000000000
FF80000003FE
FF80000003FE
FF80000003FE
FF80000003FE
FF80000003FE
FF80000003FE
FF80000003FE
FF80000003FE
FF80000003FE
FF80000003FE
FF80000003FE
FF80000003FE
FF80000003FE
FF80000003FE
FF80000003FE
FF80000003FE
FF80000003FE
FF80000003FE
FF80000003FE
FF80000003FE
FF80000003FE
FF80000003FE
FF80000003FE
FF80000003FE
FF80000003FE
FF80000003FE
FF80000003FE
FF80000003FE
FF80000003FE
FF80000003FE
FF80000003FE
FF80000003FE
FF80000003FE
FF80000003FE
FF80000003FE
FF80000003FE
FF80000003FE
FF80000003FE
FF80000003FE
FF80000003FE
FF80000003FE
FF80000003FE
FF80000003FE
FF80000003FE
7F80000003FE
7FC0000007FC
7FC0000007FC
7FC0000007FC
3FE000000FFC
3FE000000FF8
3FF000001FF8
1FF800003FF0
1FFC00007FF0
0FFE0000FFE0
0FFF8003FFE0
07FFF83FFFC0
03FFFFFFFF80
01FFFFFFFF00
00FFFFFFFE00
007FFFFFFC00
001FFFFFF000
0007FFFFC000
0000FFFE0000
ENDCHAR
STARTCHAR 00DD
ENCODING 221
SWIDTH 596 0
DWIDTH 53 0
BBX 52 82 1 1
BITMAP
00000003000000
00000007800000
0000000FC00000
0000001FF00000
0000001FF00000
0000003FE00000
0000007FC00000
000000FF800000
000001FF000000
000003FE000000
000003FC000000
000007F8000000
00000FF0000000
00000FE0000000
000003C0000000
00000180000000
00000000000000
00000000000000
00000000000000
00000000000000
FFC00000003FF0
FFC00000007FE0
7FE00000007FC0
7FE0000000FFC0
3FF0000000FF80
3FF0000001FF80
1FF8000001FF00
1FF8000003FF00
0FFC000003FE00
07FC000007FE00
07FE000007FC00
03FE00000FF800
03FF00000FF800
01FF00001FF000
01FF80001FF000
00FF80003FE000
007FC0003FE000
007FE0007FC000
003FE000FF8000
003FF000FF8000
001FF001FF0000
001FF801FF0000
000FF803FE0000
0007FC03FC0000
0007FE07FC0000
0003FE0FF80000
0003FF0FF80000
0001FF1FF00000
0000FF9FE00000
0000FFFFE00000
00007FFFC00000
00003FFF800000
00003FFF800000
00001FFF000000
00001FFF000000
00000FFE000000
000007FC000000
000007FC000000
000007FC000000
000007FC000000
000007FC000000
000007FC000000
000007FC000000
000007FC000000
000007FC000000
000007FC000000
000007FC000000
000007FC000000
000007FC000000
000007FC000000
000007FC000000
000007FC000000
000007FC000000
000007FC000000
000007FC000000
000007FC000000
000007FC000000
000007FC000000
000007FC000000
000007FC000000
000007FC000000
000007FC000000
ENDCHAR
STARTCHAR 00DE
ENCODING 222
SWIDTH 607 0
DWIDTH 54 0
BBX 43 62 8 0
BITMAP
FF0000000000
FF0000000000
FF0000000000
FF0000000000
FF0000000000
FF0000000000
FF0000000000
FF0000000000
FF0000000000
FF0000000000
FFFFFC000000
FFFFFFF00000
FFFFFFFE0000
FFFFFFFF8000
FFFFFFFFE000
FFFFFFFFF800
FFFFFFFFFC00
FFFFFFFFFE00
FF0000FFFF00
FF00001FFF00
FF000007FF80
FF000001FF80
FF000000FFC0
FF000000FFC0
FF0000007FC0
FF0000007FE0
FF0000003FE0
FF0000003FE0
FF0000003FE0
FF0000003FE0
FF0000003FE0
FF0000003FE0
FF0000003FE0
FF0000007FE0
FF0000007FE0
FF0000007FC0
FF000000FFC0
FF000001FFC0
FF000003FF80
FF000007FF80
FF00001FFF00
FF0000FFFE00
FFFFFFFFFC00
FFFFFFFFF800
FFFFFFFFF000
FFFFFFFFC000
FFFFFFFF8000
FFFFFFFC0000
FFFFFFC00000
FF0000000000
FF0000000000
FF0000000000
FF0000000000
FF0000000000
FF0000000000
FF0000000000
FF0000000000
FF0000000000
FF0000000000
FF0000000000
FF0000000000
FF0000000000
ENDCHAR
STARTCHAR 00DF
ENCODING 223
SWIDTH 618 0
DWIDTH 55 0
BBX 45 70 7 -1
BITMAP
0003FF800000
001FFFF80000
007FFFFE0000
01FFFFFF0000
03FFFFFFC000
07FFFFFFC000
0FFFFFFFE000
1FFF81FFF000
1FFC007FF000
3FF0001FF800
3FE0000FF800
7FC0000FF800
7FC00007F800
7F800007F800
7F800007F800
FF800007F800
FF800007F800
FF000007F800
FF00000FF800
FF00000FF000
FF00001FF000
FF00003FE000
FF00007FC000
FF0000FFC000
FF0001FF8000
FF0001FF0000
FF0003FE0000
FF0007FC0000
FF000FF80000
FF001FF00000
FF003FE00000
FF003FE00000
FF003FC00000
FF003FC00000
FF003FC00000
FF003FC00000
FF003FE00000
FF003FF00000
FF003FFC0000
FF001FFF0000
FF001FFFC000
FF000FFFF000
FF0003FFF800
FF0001FFFE00
FF00007FFF00
FF00001FFF80
FF000007FFC0
FF000001FFE0
FF000000FFE0
FF0000003FF0
FF0000001FF0
FF0000001FF0
FF0000000FF8
FF0000000FF8
FF0000000FF8
FF0000000FF8
FF0000000FF8
FF0000000FF8
FF0000000FF8
FF0000000FF0
FF0000001FF0
FF0070003FF0
FF00FE00FFE0
FF00FFFFFFE0
FF00FFFFFFC0
FF00FFFFFF80
FF00FFFFFF00
FF01FFFFFE00
FF003FFFF800
000003FF8000
ENDCHAR
STARTCHAR 00E0
ENCODING 224
SWIDTH 517 0
DWIDTH 46 0
BBX 36 69 4 0
BITMAP
0006000000
001F000000
003F800000
007FC00000
007FE00000
003FE00000
001FF00000
000FF80000
0007FC0000
0003FE0000
0001FF0000
0000FF0000
00007F8000
00003F8000
00001E0000
00000C0000
0000000000
0000000000
0000000000
0000000000
0000000000
007FFF8000
07FFFFF000
07FFFFFC00
07FFFFFE00
07FFFFFF00
07FFFFFF80
07FFFFFF80
078003FFC0
000000FFC0
0000007FE0
0000003FE0
0000003FE0
0000001FE0
0000001FF0
0000001FF0
0000000FF0
0000000FF0
0000000FF0
0000000FF0
0007FF8FF0
007FFFFFF0
01FFFFFFF0
07FFFFFFF0
0FFFFFFFF0
1FFFFFFFF0
3FFFFFFFF0
7FF8001FF0
7FE0000FF0
7FC0000FF0
FF80000FF0
FF80000FF0
FF00000FF0
FF00000FF0
FF00000FF0
FF00000FF0
FF00000FF0
FF80000FF0
FF80000FF0
7FC0000FF0
7FE0000FF0
7FFC001FF0
3FFFFFFFF0
1FFFFFFFF0
0FFFFFFFF0
07FFFFFFF0
03FFFFFFF0
00FFFFFFC0
000FFFC000
ENDCHAR
STARTCHAR 00E1
ENCODING 225
SWIDTH 517 0
DWIDTH 46 0
BBX 36 70 4 -1
BITMAP
0000008000
000000C000
000001E000
000003F000
000007F800
00000FFC00
00001FF800
00001FF000
00003FE000
00007FC000
0000FF8000
0001FF0000
0003FE0000
0003FC0000
0003F80000
0001F00000
0000600000
0000000000
0000000000
0000000000
0000000000
0000000000
007FFF8000
07FFFFF000
07FFFFFC00
07FFFFFE00
07FFFFFF00
07FFFFFF80
07FFFFFF80
078003FFC0
000000FFC0
0000007FE0
0000003FE0
0000003FE0
0000001FE0
0000001FF0
0000001FF0
0000000FF0
0000000FF0
0000000FF0
0000000FF0
0007FF8FF0
007FFFFFF0
01FFFFFFF0
07FFFFFFF0
0FFFFFFFF0
1FFFFFFFF0
3FFFFFFFF0
7FF8001FF0
7FE0000FF0
7FC0000FF0
FF80000FF0
FF80000FF0
FF00000FF0
FF00000FF0
FF00000FF0
FF00000FF0
FF00000FF0
FF80000FF0
FF80000FF0
7FC0000FF0
7FE0000FF0
7FFC001FF0
3FFFFFFFF0
1FFFFFFFF0
0FFFFFFFF0
07FFFFFFF0
03FFFFFFF0
00FFFFFFC0
000FFFC000
ENDCHAR
STARTCHAR 00E2
ENCODING 226
SWIDTH 517 0
DWIDTH 46 0
BBX 36 69 4 -1
BITMAP
0000100000
0000380000
00007C0000
0000FE0000
0001FF0000
0003FF8000
0007FFC000
000FFFE000
001FFFF000
003FC7F800
007F83FC00
00FF01FE00
01FE00FE00
00FC007C00
0078003C00
0030001800
0000000000
0000000000
0000000000
0000000000
0000000000
007FFF8000
07FFFFF000
07FFFFFC00
07FFFFFE00
07FFFFFF00
07FFFFFF80
07FFFFFF80
078003FFC0
000000FFC0
0000007FE0
0000003FE0
0000003FE0
0000001FE0
0000001FF0
0000001FF0
0000000FF0
0000000FF0
0000000FF0
0000000FF0
0007FF8FF0
007FFFFFF0
01FFFFFFF0
07FFFFFFF0
0FFFFFFFF0
1FFFFFFFF0
3FFFFFFFF0
7FF8001FF0
7FE0000FF0
7FC0000FF0
FF80000FF0
FF80000FF0
FF00000FF0
FF00000FF0
FF00000FF0
FF00000FF0
FF00000FF0
FF80000FF0
FF80000FF0
7FC0000FF0
7FE0000FF0
7FFC001FF0
3FFFFFFFF0
1FFFFFFFF0
0FFFFFFFF0
07FFFFFFF0
03FFFFFFF0
00FFFFFFC0
000FFFC000
ENDCHAR
STARTCHAR 00E3
ENCODING 227
SWIDTH 517 0
DWIDTH 46 0
BBX 36 66 4 -1
BITMAP
000F000600
003FE00780
007FF80FC0
00FFFFFF80
01FFFFFF80
03FFFFFF00
03FFFFFE00
07E03FFC00
07C00FF800
01C001E000
0000000000
0000000000
0000000000
0000000000
0000000000
0000000000
0000000000
0000000000
007FFF8000
07FFFFF000
07FFFFFC00
07FFFFFE00
07FFFFFF00
07FFFFFF80
07FFFFFF80
078003FFC0
000000FFC0
0000007FE0
0000003FE0
0000003FE0
0000001FE0
0000001FF0
0000001FF0
0000000FF0
0000000FF0
0000000FF0
0000000FF0
0007FF8FF0
007FFFFFF0
01FFFFFFF0
07FFFFFFF0
0FFFFFFFF0
1FFFFFFFF0
3FFFFFFFF0
7FF8001FF0
7FE0000FF0
7FC0000FF0
FF80000FF0
FF80000FF0
FF00000FF0
FF00000FF0
FF00000FF0
FF00000FF0
FF00000FF0
FF80000FF0
FF80000FF0
7FC0000FF0
7FE0000FF0
7FFC001FF0
3FFFFFFFF0
1FFFFFFFF0
0FFFFFFFF0
07FFFFFFF0
03FFFFFFF0
00FFFFFFC0
000FFFC000
ENDCHAR
STARTCHAR 00E4
ENCODING 228
SWIDTH 517 0
DWIDTH 46 0
BBX 36 66 4 -1
BITMAP
00FC007C00
01FE00FF00
03FF01FF00
03FF01FF80
03FF01FF80
03FF01FF80
03FF01FF80
03FF01FF00
01FE00FF00
00FC007E00
0000000000
0000000000
0000000000
0000000000
0000000000
0000000000
0000000000
0000000000
007FFF8000
07FFFFF000
07FFFFFC00
07FFFFFE00
07FFFFFF00
07FFFFFF80
07FFFFFF80
078003FFC0
000000FFC0
0000007FE0
0000003FE0
0000003FE0
0000001FE0
0000001FF0
0000001FF0
0000000FF0
0000000FF0
0000000FF0
0000000FF0
0007FF8FF0
007FFFFFF0
01FFFFFFF0
07FFFFFFF0
0FFFFFFFF0
1FFFFFFFF0
3FFFFFFFF0
7FF8001FF0
7FE0000FF0
7FC0000FF0
FF80000FF0
FF80000FF0
FF00000FF0
FF00000FF0
FF00000FF0
FF00000FF0
FF00000FF0
FF80000FF0
FF80000FF0
7FC0000FF0
7FE0000FF0
7FFC001FF0
3FFFFFFFF0
1FFFFFFFF0
0FFFFFFFF0
07FFFFFFF0
03FFFFFFF0
00FFFFFFC0
000FFFC000
ENDCHAR
STARTCHAR 00E5
ENCODING 229
SWIDTH 517 0
DWIDTH 46 0
BBX 36 70 4 -1
BITMAP
0000FE0000
0003FF8000
0007FFC000
000FFFE000
001F83F000
001F01F000
003E00F000
003E00F000
003E00F800
003E00F800
003E00F000
001E01F000
001F01F000
001FC7E000
000FFFE000
0007FFC000
0003FF0000
00007C0000
0000000000
0000000000
0000000000
0000000000
007FFF8000
07FFFFF000
07FFFFFC00
07FFFFFE00
07FFFFFF00
07FFFFFF80
07FFFFFF80
078003FFC0
000000FFC0
0000007FE0
0000003FE0
0000003FE0
0000001FE0
0000001FF0
0000001FF0
0000000FF0
0000000FF0
0000000FF0
0000000FF0
0007FF8FF0
007FFFFFF0
01FFFFFFF0
07FFFFFFF0
0FFFFFFFF0
1FFFFFFFF0
3FFFFFFFF0
7FF8001FF0
7FE0000FF0
7FC0000FF0
FF80000FF0
FF80000FF0
FF00000FF0
FF00000FF0
FF00000FF0
FF00000FF0
FF00000FF0
FF80000FF0
FF80000FF0
7FC0000FF0
7FE0000FF0
7FFC001FF0
3FFFFFFFF0
1FFFFFFFF0
0FFFFFFFF0
07FFFFFFF0
03FFFFFFF0
00FFFFFFC0
000FFFC000
ENDCHAR
STARTCHAR 00E6
ENCODING 230
SWIDTH 855 0
DWIDTH 76 0
BBX 68 48 4 -1
BITMAP
007FFF80001FFE0000
07FFFFE000FFFF8000
07FFFFF803FFFFE000
07FFFFFC07FFFFF800
07FFFFFE0FFFFFFC00
07FFFFFF1FFFFFFE00
07FFFFFF3FFFFFFE00
078003FFFFF007FF00
000000FFFFC003FF80
0000007FFF8001FF80
0000003FFF0000FF80
0000003FFE00007FC0
0000001FFC00003FC0
0000001FFC00003FC0
0000001FF800003FE0
0000000FF800001FE0
0000000FF800001FE0
0000000FF000001FE0
0000000FF000001FE0
0007FF8FFFFFFFFFE0
007FFFFFFFFFFFFFE0
01FFFFFFFFFFFFFFF0
07FFFFFFFFFFFFFFF0
0FFFFFFFFFFFFFFFF0
1FFFFFFFFFFFFFFFF0
3FFFFFFFFFFFFFFFE0
3FF8001FF000000000
7FE0000FF000000000
7FC0000FF000000000
FF80000FF000000000
FF80000FF800000000
FF00000FF800000000
FF00000FF800000000
FF000007FC00000000
FF000007FC00000000
FF000007FE00000000
FF800003FF00000000
FF800003FF80000000
7FC00003FFC0000000
7FE0000FFFF0000600
7FFC007FFFFF00FF00
3FFFFFFFFFFFFFFF00
1FFFFFFFFFFFFFFF00
0FFFFFFFFFFFFFFF00
07FFFFFF87FFFFFF00
03FFFFFE03FFFFFF00
00FFFFF8007FFFFC00
000FFF80000FFF8000
ENDCHAR
STARTCHAR 00E7
ENCODING 231
SWIDTH 461 0
DWIDTH 41 0
BBX 35 64 5 -17
BITMAP
0001FFFC00
000FFFFF80
003FFFFFC0
007FFFFF80
00FFFFFF80
03FFFFFF80
07FFFFFF80
07FFC00F00
0FFE000100
1FFC000000
1FF8000000
3FF0000000
3FE0000000
7FC0000000
7FC0000000
7F80000000
FF80000000
FF80000000
FF80000000
FF00000000
FF00000000
FF00000000
FF00000000
FF00000000
FF00000000
FF00000000
FF00000000
FF00000000
FF00000000
FF80000000
FF80000000
FF80000000
7FC0000000
7FC0000000
7FE0000000
3FE0000000
3FF0000000
1FF8000000
1FFC000000
0FFF0000C0
07FFF01FC0
07FFFFFFC0
03FFFFFFC0
00FFFFFFC0
007FFFFFC0
001FFFFFE0
0007FFFF80
00007FF000
00007E0000
00007E0000
00007E0000
0000FF0000
0000FFC000
0000FFC000
00003FE000
00000FE000
00000FE000
00000FE000
000FFFE000
001FFFE000
001FFFC000
001FFF8000
001FFF0000
0003F80000
ENDCHAR
STARTCHAR 00E8
ENCODING 232
SWIDTH 551 0
DWIDTH 49 0
BBX 40 69 5 0
BITMAP
0003000000
0007800000
000FC00000
001FE00000
003FF00000
001FF00000
000FF80000
0007FC0000
0003FE0000
0001FF0000
0000FF8000
00007F8000
00003FC000
00001FC000
00000F0000
0000060000
0000000000
0000000000
0000000000
0000000000
0000000000
0001FFE000
000FFFFC00
003FFFFF00
00FFFFFF80
01FFFFFFC0
03FFFFFFE0
07FFFFFFF0
0FFF007FF0
0FFC001FF8
1FF8000FF8
1FF00007FC
3FE00007FC
3FE00003FE
7FC00003FE
7FC00001FE
7F800001FE
FF800001FE
FF800001FF
FF000001FF
FFFFFFFFFF
FFFFFFFFFF
FFFFFFFFFF
FFFFFFFFFF
FFFFFFFFFF
FFFFFFFFFF
FFFFFFFFFF
FF00000000
FF00000000
FF00000000
FF80000000
FF80000000
FF80000000
7F80000000
7FC0000000
7FC0000000
3FE0000000
3FF0000000
1FF8000000
1FFC000000
0FFF000070
0FFFF00FF0
07FFFFFFF0
03FFFFFFF0
00FFFFFFF0
007FFFFFF8
001FFFFFF8
0007FFFFC0
0000FFFC00
ENDCHAR
STARTCHAR 00E9
ENCODING 233
SWIDTH 551 0
DWIDTH 49 0
BBX 40 70 5 -1
BITMAP
0000004000
0000006000
000000F000
000001F800
000003FC00
000007FE00
00000FFC00
00000FF800
00001FF000
00003FE000
00007FC000
0000FF8000
0001FF0000
0001FE0000
0001FC0000
0000F80000
0000300000
0000000000
0000000000
0000000000
0000000000
0000000000
0001FFE000
000FFFFC00
003FFFFF00
00FFFFFF80
01FFFFFFC0
03FFFFFFE0
07FFFFFFF0
0FFF007FF0
0FFC001FF8
1FF8000FF8
1FF00007FC
3FE00007FC
3FE00003FE
7FC00003FE
7FC00001FE
7F800001FE
FF800001FE
FF800001FF
FF000001FF
FFFFFFFFFF
FFFFFFFFFF
FFFFFFFFFF
FFFFFFFFFF
FFFFFFFFFF
FFFFFFFFFF
FFFFFFFFFF
FF00000000
FF00000000
FF00000000
FF80000000
FF80000000
FF80000000
7F80000000
7FC0000000
7FC0000000
3FE0000000
3FF0000000
1FF8000000
1FFC000000
0FFF000070
0FFFF00FF0
07FFFFFFF0
03FFFFFFF0
00FFFFFFF0
007FFFFFF8
001FFFFFF8
0007FFFFC0
0000FFFC00
ENDCHAR
STARTCHAR 00EA
ENCODING 234
SWIDTH 551 0
DWIDTH 49 0
BBX 40 69 5 -1
BITMAP
0000080000
00001C0000
00003E0000
00007F0000
0000FF8000
0001FFC000
0003FFE000
0007FFF000
000FFFF800
001FE3FC00
003FC1FE00
007F80FF00
00FF007F00
007E003F00
003C001E00
0018000C00
0000000000
0000000000
0000000000
0000000000
0000000000
0001FFE000
000FFFFC00
003FFFFF00
00FFFFFF80
01FFFFFFC0
03FFFFFFE0
07FFFFFFF0
0FFF007FF0
0FFC001FF8
1FF8000FF8
1FF00007FC
3FE00007FC
3FE00003FE
7FC00003FE
7FC00001FE
7F800001FE
FF800001FE
FF800001FF
FF000001FF
FFFFFFFFFF
FFFFFFFFFF
FFFFFFFFFF
FFFFFFFFFF
FFFFFFFFFF
FFFFFFFFFF
FFFFFFFFFF
FF00000000
FF00000000
FF00000000
FF80000000
FF80000000
FF80000000
7F80000000
7FC0000000
7FC0000000
3FE0000000
3FF0000000
1FF8000000
1FFC000000
0FFF000070
0FFFF00FF0
07FFFFFFF0
03FFFFFFF0
00FFFFFFF0
007FFFFFF8
001FFFFFF8
0007FFFFC0
0000FFFC00
ENDCHAR
STARTCHAR 00EB
ENCODING 235
SWIDTH 551 0
DWIDTH 49 0
BBX 40 66 5 -1
BITMAP
007E003F00
00FF007F80
01FF80FF80
01FF80FFC0
01FF80FFC0
01FF80FFC0
01FF80FFC0
01FF80FF80
00FF007F80
007E003F00
0000000000
0000000000
0000000000
0000000000
0000000000
0000000000
0000000000
0000000000
0001FFE000
000FFFFC00
003FFFFF00
00FFFFFF80
01FFFFFFC0
03FFFFFFE0
07FFFFFFF0
0FFF007FF0
0FFC001FF8
1FF8000FF8
1FF00007FC
3FE00007FC
3FE00003FE
7FC00003FE
7FC00001FE
7F800001FE
FF800001FE
FF800001FF
FF000001FF
FFFFFFFFFF
FFFFFFFFFF
FFFFFFFFFF
FFFFFFFFFF
FFFFFFFFFF
FFFFFFFFFF
FFFFFFFFFF
FF00000000
FF00000000
FF00000000
FF80000000
FF80000000
FF80000000
7F80000000
7FC0000000
7FC0000000
3FE0000000
3FF0000000
1FF8000000
1FFC000000
0FFF000070
0FFFF00FF0
07FFFFFFF0
03FFFFFFF0
00FFFFFFF0
007FFFFFF8
001FFFFFF8
0007FFFFC0
0000FFFC00
ENDCHAR
STARTCHAR 00EC
ENCODING 236
SWIDTH 247 0
DWIDTH 22 0
BBX 16 69 1 0
BITMAP
0800
1C00
3E00
7F00
FF80
FFC0
7FC0
3FE0
1FF0
0FF8
07FC
03FE
01FE
00FF
007E
003C
0018
0000
0000
0000
0000
0000
0000
03FC
03FC
03FC
03FC
03FC
03FC
03FC
03FC
03FC
03FC
03FC
03FC
03FC
03FC
03FC
03FC
03FC
03FC
03FC
03FC
03FC
03FC
03FC
03FC
03FC
03FC
03FC
03FC
03FC
03FC
03FC
03FC
03FC
03FC
03FC
03FC
03FC
03FC
03FC
03FC
03FC
03FC
03FC
03FC
03FC
03FC
ENDCHAR
STARTCHAR 00ED
ENCODING 237
SWIDTH 247 0
DWIDTH 22 0
BBX 16 69 6 0
BITMAP
0020
0070
0078
00FC
01FE
03FF
07FE
0FFC
0FF8
1FF0
3FE0
7FC0
FF80
FF00
FE00
7C00
3800
0000
0000
0000
0000
0000
0000
7F80
7F80
7F80
7F80
7F80
7F80
7F80
7F80
7F80
7F80
7F80
7F80
7F80
7F80
7F80
7F80
7F80
7F80
7F80
7F80
7F80
7F80
7F80
7F80
7F80
7F80
7F80
7F80
7F80
7F80
7F80
7F80
7F80
7F80
7F80
7F80
7F80
7F80
7F80
7F80
7F80
7F80
7F80
7F80
7F80
7F80
ENDCHAR
STARTCHAR 00EE
ENCODING 238
SWIDTH 247 0
DWIDTH 22 0
BBX 24 68 -1 0
BITMAP
001800
001C00
003E00
007F00
00FF80
01FFC0
03FFE0
07FFF0
0FFFF8
1FE7FC
3FC1FE
7F80FF
FF007F
7E003E
3C001C
18000C
000000
000000
000000
000000
000000
000000
00FF00
00FF00
00FF00
00FF00
00FF00
00FF00
00FF00
00FF00
00FF00
00FF00
00FF00
00FF00
00FF00
00FF00
00FF00
00FF00
00FF00
00FF00
00FF00
00FF00
00FF00
00FF00
00FF00
00FF00
00FF00
00FF00
00FF00
00FF00
00FF00
00FF00
00FF00
00FF00
00FF00
00FF00
00FF00
00FF00
00FF00
00FF00
00FF00
00FF00
00FF00
00FF00
00FF00
00FF00
00FF00
00FF00
ENDCHAR
STARTCHAR 00EF
ENCODING 239
SWIDTH 247 0
DWIDTH 22 0
BBX 27 65 -2 0
BITMAP
3F001F00
7F803FC0
FF807FC0
FFC07FE0
FFC07FE0
FFC07FE0
FFC07FE0
FF807FC0
7F803FC0
3E001F00
00000000
00000000
00000000
00000000
00000000
00000000
00000000
00000000
00000000
007F8000
007F8000
007F8000
007F8000
007F8000
007F8000
007F8000
007F8000
007F8000
007F8000
007F8000
007F8000
007F8000
007F8000
007F8000
007F8000
007F8000
007F8000
007F8000
007F8000
007F8000
007F8000
007F8000
007F8000
007F8000
007F8000
007F8000
007F8000
007F8000
007F8000
007F8000
007F8000
007F8000
007F8000
007F8000
007F8000
007F8000
007F8000
007F8000
007F8000
007F8000
007F8000
007F8000
007F8000
007F8000
007F8000
ENDCHAR
STARTCHAR 00F0
ENCODING 240
SWIDTH 585 0
DWIDTH 52 0
BBX 45 70 5 -1
BITMAP
000002000000
000007800000
00000FC00000
00003FE00000
00007FF00000
00003FF80020
00000FFC01F0
000007FE0FF0
000003FF7FF0
000001FFFFF8
000000FFFFF8
000000FFFFE0
000007FFFF00
00003FFFF800
0000FFFFF000
0000FFFFF800
0000FFFFF800
00007F87FC00
00007C03FC00
00006003FC00
00000001FE00
00000001FE00
00000001FF00
00000000FF00
00000000FF00
00000800FF80
0007FFE07F80
003FFFFC7F80
00FFFFFF7F80
01FFFFFFFF80
03FFFFFFFFC0
07FFFFFFFFC0
0FFFFFFFFFC0
1FFF001FFFC0
1FFC0003FFC0
3FF00000FFC0
3FE000007FC0
7FE000003FC0
7FC000003FC0
FF8000003FC0
FF8000003FC0
FF8000003FC0
FF0000003FC0
FF0000003FC0
FF0000003FC0
FF0000003FC0
FF0000003FC0
FF0000007FC0
FF0000007FC0
FF0000007FC0
FF0000007F80
FF0000007F80
FF800000FF80
FF800000FF80
FF800000FF80
7FC00001FF00
7FC00001FF00
7FE00003FF00
3FE00003FE00
3FF00007FE00
1FF8000FFC00
0FFE003FF800
0FFF81FFF800
07FFFFFFF000
03FFFFFFE000
01FFFFFFC000
00FFFFFF8000
003FFFFE0000
000FFFF80000
0001FFE00000
ENDCHAR
STARTCHAR 00F1
ENCODING 241
SWIDTH 573 0
DWIDTH 51 0
BBX 37 65 7 0
BITMAP
001F000600
007FC00F80
00FFF81F80
01FFFF7F80
03FFFFFF00
07FFFFFE00
07FBFFFE00
0FE07FFC00
07C01FF000
018003C000
0000000000
0000000000
0000000000
0000000000
0000000000
0000000000
0000000000
0000000000
00FFFF8000
1FFFFFF000
FFFFFFFC00
FFFFFFFE00
FFFFFFFF00
FFFFFFFF80
FFFFFFFFC0
FFE003FFE0
FF0000FFE0
FF00003FF0
FF00001FF0
FF00001FF0
FF00000FF8
FF00000FF8
FF00000FF8
FF000007F8
FF000007F8
FF000007F8
FF000007F8
FF000007F8
FF000007F8
FF000007F8
FF000007F8
FF000007F8
FF000007F8
FF000007F8
FF000007F8
FF000007F8
FF000007F8
FF000007F8
FF000007F8
FF000007F8
FF000007F8
FF000007F8
FF000007F8
FF000007F8
FF000007F8
FF000007F8
FF000007F8
FF000007F8
FF000007F8
FF000007F8
FF000007F8
FF000007F8
FF000007F8
FF000007F8
FF000007F8
ENDCHAR
STARTCHAR 00F2
ENCODING 242
SWIDTH 585 0
DWIDTH 52 0
BBX 43 70 5 -1
BITMAP
000100000000
000380000000
0007C0000000
000FE0000000
001FF0000000
001FF0000000
000FF8000000
0007FC000000
0003FE000000
0001FF000000
0000FF800000
00007F800000
00003FC00000
00001FE00000
00000FC00000
000007800000
000003000000
000000000000
000000000000
000000000000
000000000000
000000000000
0001FFF00000
000FFFFC0000
003FFFFF0000
007FFFFFC000
01FFFFFFE000
03FFFFFFF000
07FFFFFFF800
07FF807FFC00
0FFE001FFE00
1FFC0007FE00
1FF00003FF00
3FF00001FF00
3FE00001FF80
7FC00000FF80
7FC000007F80
7F8000007FC0
FF8000007FC0
FF8000003FC0
FF8000003FC0
FF0000003FE0
FF0000003FE0
FF0000003FE0
FF0000003FE0
FF0000003FE0
FF0000003FE0
FF0000003FE0
FF0000003FE0
FF0000003FE0
FF0000003FE0
FF8000003FC0
FF8000007FC0
FF8000007FC0
7FC000007FC0
7FC00000FF80
7FC00000FF80
3FE00001FF80
3FF00001FF00
1FF80003FF00
1FFC0007FE00
0FFE001FFC00
07FFC0FFFC00
03FFFFFFF800
01FFFFFFF000
00FFFFFFE000
007FFFFF8000
001FFFFF0000
0007FFFC0000
0000FFE00000
ENDCHAR
STARTCHAR 00F3
ENCODING 243
SWIDTH 585 0
DWIDTH 52 0
BBX 43 70 5 -1
BITMAP
000000200000
000000700000
000000780000
000000FC0000
000001FE0000
000003FF0000
000007FE0000
00000FFC0000
00000FF80000
00001FF00000
00003FE00000
00007FC00000
0000FF800000
0001FF000000
0000FC000000
000078000000
000030000000
000000000000
000000000000
000000000000
000000000000
000000000000
0001FFF00000
000FFFFC0000
003FFFFF0000
007FFFFFC000
01FFFFFFE000
03FFFFFFF000
07FFFFFFF800
07FF807FFC00
0FFE001FFE00
1FFC0007FE00
1FF00003FF00
3FF00001FF00
3FE00001FF80
7FC00000FF80
7FC000007F80
7F8000007FC0
FF8000007FC0
FF8000003FC0
FF8000003FC0
FF0000003FE0
FF0000003FE0
FF0000003FE0
FF0000003FE0
FF0000003FE0
FF0000003FE0
FF0000003FE0
FF0000003FE0
FF0000003FE0
FF0000003FE0
FF8000003FC0
FF8000007FC0
FF8000007FC0
7FC000007FC0
7FC00000FF80
7FC00000FF80
3FE00001FF80
3FF00001FF00
1FF80003FF00
1FFC0007FE00
0FFE001FFC00
07FFC0FFFC00
03FFFFFFF800
01FFFFFFF000
00FFFFFFE000
007FFFFF8000
001FFFFF0000
0007FFFC0000
0000FFE00000
ENDCHAR
STARTCHAR 00F4
ENCODING 244
SWIDTH 585 0
DWIDTH 52 0
BBX 43 69 5 -1
BITMAP
00000C000000
00001E000000
00003F000000
00003F800000
00007FC00000
0000FFE00000
0001FFF00000
0003FFF80000
0007FFFC0000
000FF3FE0000
001FE1FF0000
003FC07F8000
007F803F8000
003F001F0000
001E000E0000
000800060000
000000000000
000000000000
000000000000
000000000000
000000000000
0001FFF00000
000FFFFC0000
003FFFFF0000
007FFFFFC000
01FFFFFFE000
03FFFFFFF000
07FFFFFFF800
07FF807FFC00
0FFE001FFE00
1FFC0007FE00
1FF00003FF00
3FF00001FF00
3FE00001FF80
7FC00000FF80
7FC000007F80
7F8000007FC0
FF8000007FC0
FF8000003FC0
FF8000003FC0
FF0000003FE0
FF0000003FE0
FF0000003FE0
FF0000003FE0
FF0000003FE0
FF0000003FE0
FF0000003FE0
FF0000003FE0
FF0000003FE0
FF0000003FE0
FF8000003FC0
FF8000007FC0
FF8000007FC0
7FC000007FC0
7FC00000FF80
7FC00000FF80
3FE00001FF80
3FF00001FF00
1FF80003FF00
1FFC0007FE00
0FFE001FFC00
07FFC0FFFC00
03FFFFFFF800
01FFFFFFF000
00FFFFFFE000
007FFFFF8000
001FFFFF0000
0007FFFC0000
0000FFE00000
ENDCHAR
STARTCHAR 00F5
ENCODING 245
SWIDTH 585 0
DWIDTH 52 0
BBX 43 66 5 -1
BITMAP
0003C0018000
000FF803E000
003FFE07F000
007FFFDFE000
007FFFFFE000
00FFFFFFC000
01FEFFFF8000
01F80FFF0000
01F003FE0000
006000F80000
000000000000
000000000000
000000000000
000000000000
000000000000
000000000000
000000000000
000000000000
0001FFF00000
000FFFFC0000
003FFFFF0000
007FFFFFC000
01FFFFFFE000
03FFFFFFF000
07FFFFFFF800
07FF807FFC00
0FFE001FFE00
1FFC0007FE00
1FF00003FF00
3FF00001FF00
3FE00001FF80
7FC00000FF80
7FC000007F80
7F8000007FC0
FF8000007FC0
FF8000003FC0
FF8000003FC0
FF0000003FE0
FF0000003FE0
FF0000003FE0
FF0000003FE0
FF0000003FE0
FF0000003FE0
FF0000003FE0
FF0000003FE0
FF0000003FE0
FF0000003FE0
FF8000003FC0
FF8000007FC0
FF8000007FC0
7FC000007FC0
7FC00000FF80
7FC00000FF80
3FE00001FF80
3FF00001FF00
1FF80003FF00
1FFC0007FE00
0FFE001FFC00
07FFC0FFFC00
03FFFFFFF800
01FFFFFFF000
00FFFFFFE000
007FFFFF8000
001FFFFF0000
0007FFFC0000
0000FFE00000
ENDCHAR
STARTCHAR 00F6
ENCODING 246
SWIDTH 585 0
DWIDTH 52 0
BBX 43 66 5 -1
BITMAP
003E001F0000
007F803FC000
00FF807FC000
00FFC07FE000
00FFC07FE000
00FFC07FE000
00FFC07FE000
00FF807FC000
007F803FC000
003E001F0000
000000000000
000000000000
000000000000
000000000000
000000000000
000000000000
000000000000
000000000000
0001FFF00000
000FFFFC0000
003FFFFF0000
007FFFFFC000
01FFFFFFE000
03FFFFFFF000
07FFFFFFF800
07FF807FFC00
0FFE001FFE00
1FFC0007FE00
1FF00003FF00
3FF00001FF00
3FE00001FF80
7FC00000FF80
7FC000007F80
7F8000007FC0
FF8000007FC0
FF8000003FC0
FF8000003FC0
FF0000003FE0
FF0000003FE0
FF0000003FE0
FF0000003FE0
FF0000003FE0
FF0000003FE0
FF0000003FE0
FF0000003FE0
FF0000003FE0
FF0000003FE0
FF8000003FC0
FF8000007FC0
FF8000007FC0
7FC000007FC0
7FC00000FF80
7FC00000FF80
3FE00001FF80
3FF00001FF00
1FF80003FF00
1FFC0007FE00
0FFE001FFC00
07FFC0FFFC00
03FFFFFFF800
01FFFFFFF000
00FFFFFFE000
007FFFFF8000
001FFFFF0000
0007FFFC0000
0000FFE00000
ENDCHAR
STARTCHAR 00F7
ENCODING 247
SWIDTH 562 0
DWIDTH 50 0
BBX 40 45 5 4
BITMAP
00007E0000
0000FF0000
0001FF8000
0001FF8000
0001FF8000
0001FF8000
0001FF8000
0001FF8000
0000FF0000
00007F0000
0000380000
0000000000
0000000000
0000000000
0000000000
0000000000
0000000000
0000000000
0000000000
FFFFFFFFFF
FFFFFFFFFF
FFFFFFFFFF
FFFFFFFFFF
FFFFFFFFFF
FFFFFFFFFF
FFFFFFFFFF
0000000000
0000000000
0000000000
0000000000
0000000000
0000000000
0000000000
0000000000
00003C0000
0000FF0000
0000FF8000
0001FF8000
0001FF8000
0001FF8000
0001FF8000
0001FF8000
0001FF8000
0000FF0000
00003C0000
ENDCHAR
STARTCHAR 00F8
ENCODING 248
SWIDTH 585 0
DWIDTH 52 0
BBX 43 52 5 -3
BITMAP
000000000600
000000000F00
0001FFE00FC0
000FFFFC1FC0
003FFFFF3F80
007FFFFFFF80
01FFFFFFFF00
03FFFFFFFE00
07FFFFFFFC00
07FF807FFC00
0FFE000FFC00
1FF80007FE00
1FF0000FFF00
3FF0001FFF00
3FE0003FFF80
7FC0003FFF80
7FC0007F7F80
7F8000FE7FC0
FF8001FE7FC0
FF8003FC3FC0
FF8003F83FC0
FF0007F03FE0
FF000FF03FE0
FF001FE03FE0
FF001FC03FE0
FF003F803FE0
FF007F803FE0
FF00FF003FE0
FF01FE003FE0
FF01FC003FE0
FF03F8003FE0
FF87F8003FC0
FF8FF0003FC0
FF8FE0007FC0
7F9FC0007FC0
7FFFC0007F80
7FFF8000FF80
3FFF0001FF80
3FFE0001FF00
1FFC0003FF00
1FFC0007FE00
0FFE001FFC00
07FFC07FFC00
0FFFFFFFF800
1FFFFFFFF000
3FFFFFFFE000
3FFFFFFF8000
7F1FFFFF0000
FF07FFFC0000
7E00FFE00000
3C0000000000
080000000000
ENDCHAR
STARTCHAR 00F9
ENCODING 249
SWIDTH 573 0
DWIDTH 51 0
BBX 37 70 7 -1
BITMAP
0008000000
001C000000
003E000000
007F000000
00FF800000
00FF800000
007FC00000
003FE00000
001FF00000
000FF80000
0007FC0000
0003FC0000
0001FE0000
0000FF0000
00007E0000
00003C0000
0000180000
0000000000
0000000000
0000000000
0000000000
0000000000
0000000000
FF000007F8
FF000007F8
FF000007F8
FF000007F8
FF000007F8
FF000007F8
FF000007F8
FF000007F8
FF000007F8
FF000007F8
FF000007F8
FF000007F8
FF000007F8
FF000007F8
FF000007F8
FF000007F8
FF000007F8
FF000007F8
FF000007F8
FF000007F8
FF000007F8
FF000007F8
FF000007F8
FF000007F8
FF000007F8
FF000007F8
FF000007F8
FF000007F8
FF000007F8
FF000007F8
FF000007F8
FF800007F8
FF800007F8
FF800007F8
7FC00007F8
7FC00007F8
7FE00007F8
3FF00007F8
3FF80007F8
1FFF80FFF8
1FFFFFFFF8
0FFFFFFFF8
07FFFFFFF8
03FFFFFFF8
00FFFFFFF8
003FFFFF80
0007FFE000
ENDCHAR
STARTCHAR 00FA
ENCODING 250
SWIDTH 573 0
DWIDTH 51 0
BBX 37 70 7 -1
BITMAP
0000010000
0000038000
000003C000
000007E000
00000FF000
00001FF800
00003FF000
00007FE000
00007FC000
0000FF8000
0001FF0000
0003FE0000
0007FC0000
000FF80000
0007F00000
0003C00000
0001800000
0000000000
0000000000
0000000000
0000000000
0000000000
0000000000
FF000007F8
FF000007F8
FF000007F8
FF000007F8
FF000007F8
FF000007F8
FF000007F8
FF000007F8
FF000007F8
FF000007F8
FF000007F8
FF000007F8
FF000007F8
FF000007F8
FF000007F8
FF000007F8
FF000007F8
FF000007F8
FF000007F8
FF000007F8
FF000007F8
FF000007F8
FF000007F8
FF000007F8
FF000007F8
FF000007F8
FF000007F8
FF000007F8
FF000007F8
FF000007F8
FF000007F8
FF800007F8
FF800007F8
FF800007F8
7FC00007F8
7FC00007F8
7FE00007F8
3FF00007F8
3FF80007F8
1FFF80FFF8
1FFFFFFFF8
0FFFFFFFF8
07FFFFFFF8
03FFFFFFF8
00FFFFFFF8
003FFFFF80
0007FFE000
ENDCHAR
STARTCHAR 00FB
ENCODING 251
SWIDTH 573 0
DWIDTH 51 0
BBX 37 69 7 -1
BITMAP
0000600000
0000F00000
0000F80000
0001FC0000
0003FE0000
0007FF0000
000FFF8000
001FFFC000
003FFFE000
007F9FF000
00FF07F800
01FE03FC00
03FC01FC00
01F800F800
00F0007000
0040003000
0000000000
0000000000
0000000000
0000000000
0000000000
0000000000
FF000007F8
FF000007F8
FF000007F8
FF000007F8
FF000007F8
FF000007F8
FF000007F8
FF000007F8
FF000007F8
FF000007F8
FF000007F8
FF000007F8
FF000007F8
FF000007F8
FF000007F8
FF000007F8
FF000007F8
FF000007F8
FF000007F8
FF000007F8
FF000007F8
FF000007F8
FF000007F8
FF000007F8
FF000007F8
FF000007F8
FF000007F8
FF000007F8
FF000007F8
FF000007F8
FF000007F8
FF800007F8
FF800007F8
FF800007F8
7FC00007F8
7FC00007F8
7FE00007F8
3FF00007F8
3FF80007F8
1FFF80FFF8
1FFFFFFFF8
0FFFFFFFF8
07FFFFFFF8
03FFFFFFF8
00FFFFFFF8
003FFFFF80
0007FFE000
ENDCHAR
STARTCHAR 00FC
ENCODING 252
SWIDTH 573 0
DWIDTH 51 0
BBX 37 66 7 -1
BITMAP
01F000F800
03FC01FE00
07FC03FE00
07FE03FF00
07FE03FF00
07FE03FF00
07FE03FF00
07FC03FE00
03FC01FE00
01F000F800
0000000000
0000000000
0000000000
0000000000
0000000000
0000000000
0000000000
0000000000
0000000000
FF000007F8
FF000007F8
FF000007F8
FF000007F8
FF000007F8
FF000007F8
FF000007F8
FF000007F8
FF000007F8
FF000007F8
FF000007F8
FF000007F8
FF000007F8
FF000007F8
FF000007F8
FF000007F8
FF000007F8
FF000007F8
FF000007F8
FF000007F8
FF000007F8
FF000007F8
FF000007F8
FF000007F8
FF000007F8
FF000007F8
FF000007F8
FF000007F8
FF000007F8
FF000007F8
FF000007F8
FF800007F8
FF800007F8
FF800007F8
7FC00007F8
7FC00007F8
7FE00007F8
3FF00007F8
3FF80007F8
1FFF80FFF8
1FFFFFFFF8
0FFFFFFFF8
07FFFFFFF8
03FFFFFFF8
00FFFFFFF8
003FFFFF80
0007FFE000
ENDCHAR
STARTCHAR 00FD
ENCODING 253
SWIDTH 495 0
DWIDTH 44 0
BBX 42 86 0 -17
BITMAP
000000080000
0000001C0000
0000001E0000
0000003F0000
0000007F8000
000000FFC000
000001FF8000
000003FF0000
000003FE0000
000007FC0000
00000FF80000
00001FF00000
00003FE00000
00007F800000
00003F000000
00001E000000
00000C000000
000000000000
000000000000
000000000000
000000000000
000000000000
000000000000
3FC000003FC0
3FE000003FC0
3FE000007FC0
3FE000007FC0
1FF000007F80
1FF000007F80
1FF00000FF80
0FF00000FF80
0FF80000FF00
0FF80000FF00
07F80001FF00
07FC0001FF00
07FC0001FE00
03FC0001FE00
03FE0003FE00
03FE0003FC00
01FE0003FC00
01FF0003FC00
01FF0007F800
00FF0007F800
00FF8007F800
00FF8007F800
007F800FF000
007FC00FF000
003FC00FF000
003FE01FE000
003FE01FE000
001FE01FE000
001FF03FC000
000FF03FC000
000FF83FC000
0007F87F8000
0007F87F8000
0003FC7F8000
0003FCFF0000
0003FEFF0000
0001FEFE0000
0001FFFE0000
0000FFFE0000
0000FFFC0000
00007FFC0000
00007FF80000
00003FF80000
00003FF80000
00001FF00000
00001FF00000
00000FE00000
00001FE00000
00001FE00000
00003FC00000
00003FC00000
00007F800000
0000FF000000
0001FF000000
0003FE000000
701FFC000000
7FFFFC000000
7FFFF8000000
7FFFF0000000
7FFFE0000000
FFFF80000000
7FFE00000000
07E000000000
ENDCHAR
STARTCHAR 00FE
ENCODING 254
SWIDTH 585 0
DWIDTH 52 0
BBX 41 85 7 -16
BITMAP
030000000000
FF0000000000
FF0000000000
FF0000000000
FF0000000000
FF0000000000
FF0000000000
FF0000000000
FF0000000000
FF0000000000
FF0000000000
FF0000000000
FF0000000000
FF0000000000
FF0000000000
FF0000000000
FF0000000000
FF0000000000
FF0000000000
FF0000000000
FF0000000000
FF0000000000
FF0FFF000000
FF7FFFE00000
FFFFFFFC0000
FFFFFFFE0000
FFFFFFFF8000
FFFFFFFFC000
FFFFFFFFE000
FFF807FFF000
FF8000FFF000
FF00003FF800
FF00001FFC00
FF00000FFC00
FF000007FE00
FF000003FE00
FF000003FE00
FF000001FF00
FF000001FF00
FF000001FF00
FF000000FF00
FF000000FF80
FF000000FF80
FF000000FF80
FF000000FF80
FF000000FF80
FF000000FF80
FF000000FF80
FF000000FF80
FF000000FF80
FF000000FF80
FF000000FF00
FF000001FF00
FF000001FF00
FF000001FF00
FF000001FE00
FF000003FE00
FF000007FE00
FF000007FC00
FF80000FFC00
FFC0001FF800
FFF0007FF800
FFFF03FFF000
FFFFFFFFE000
FFFFFFFFC000
FFFFFFFF8000
FFFFFFFF0000
FF7FFFFC0000
FF0FFFF00000
FF01FF800000
FF0000000000
FF0000000000
FF0000000000
FF0000000000
FF0000000000
FF0000000000
FF0000000000
FF0000000000
FF0000000000
FF0000000000
FF0000000000
FF0000000000
FF0000000000
FF0000000000
FF0000000000
ENDCHAR
STARTCHAR 00FF
ENCODING 255
SWIDTH 495 0
DWIDTH 44 0
BBX 42 82 0 -17
BITMAP
000F8007C000
001FE00FF000
003FE01FF000
003FF01FF800
003FF03FF800
003FF03FF800
003FF01FF800
003FE01FF000
001FE00FF000
000F8007C000
000000000000
000000000000
000000000000
000000000000
000000000000
000000000000
000000000000
000000000000
000000000000
3FC000003FC0
3FE000003FC0
3FE000007FC0
3FE000007FC0
1FF000007F80
1FF000007F80
1FF00000FF80
0FF00000FF80
0FF80000FF00
0FF80000FF00
07F80001FF00
07FC0001FF00
07FC0001FE00
03FC0001FE00
03FE0003FE00
03FE0003FC00
01FE0003FC00
01FF0003FC00
01FF0007F800
00FF0007F800
00FF8007F800
00FF8007F800
007F800FF000
007FC00FF000
003FC00FF000
003FE01FE000
003FE01FE000
001FE01FE000
001FF03FC000
000FF03FC000
000FF83FC000
0007F87F8000
0007F87F8000
0003FC7F8000
0003FCFF0000
0003FEFF0000
0001FEFE0000
0001FFFE0000
0000FFFE0000
0000FFFC0000
00007FFC0000
00007FF80000
00003FF80000
00003FF80000
00001FF00000
00001FF00000
00000FE00000
00001FE00000
00001FE00000
00003FC00000
00003FC00000
00007F800000
0000FF000000
0001FF000000
0003FE000000
701FFC000000
7FFFFC000000
7FFFF8000000
7FFFF0000000
7FFFE0000000
FFFF80000000
7FFE00000000
07E000000000
ENDCHAR
STARTCHAR 0100
ENCODING 256
SWIDTH 652 0
DWIDTH 58 0
BBX 57 77 1 0
BITMAP
0000FFFFFF800000
0000FFFFFF800000
0000FFFFFF800000
0000FFFFFF800000
0000FFFFFF800000
0000FFFFFF800000
0000000000000000
0000000000000000
0000000000000000
0000000000000000
0000000000000000
0000000000000000
0000000000000000
0000000000000000
0000000000000000
000000FF00000000
000000FF80000000
000001FF80000000
000001FFC0000000
000001FFC0000000
000003FFE0000000
000003FFE0000000
000007FFF0000000
000007FFF0000000
00000FFFF8000000
00000FFFF8000000
00001FF7FC000000
00001FE7FC000000
00001FE3FC000000
00003FC3FE000000
00003FC1FE000000
00007F81FF000000
00007F81FF000000
0000FF80FF800000
0000FF00FF800000
0000FF007F800000
0001FE007FC00000
0001FE007FC00000
0003FE003FE00000
0003FC003FE00000
0007FC001FE00000
0007F8001FF00000
0007F8001FF00000
000FF8000FF80000
000FF0000FF80000
000FF0000FF80000
001FF00007FC0000
001FE00007FC0000
003FE00003FE0000
003FC00003FE0000
003FC00003FE0000
007FC00001FF0000
007F800001FF0000
00FF800001FF8000
00FFFFFFFFFF8000
00FFFFFFFFFF8000
01FFFFFFFFFFC000
01FFFFFFFFFFC000
01FFFFFFFFFFC000
03FFFFFFFFFFE000
03FFFFFFFFFFE000
07FC0000003FF000
07FC0000001FF000
07FC0000001FF000
0FF80000001FF800
0FF80000000FF800
0FF00000000FF800
1FF00000000FFC00
1FF000000007FC00
3FE000000007FC00
3FE000000007FE00
3FE000000003FE00
7FC000000003FF00
7FC000000003FF00
7FC000000001FF00
FF8000000001FF80
FF8000000000FF80
ENDCHAR
STARTCHAR 0101
ENCODING 257
SWIDTH 517 0
DWIDTH 46 0
BBX 36 64 4 -1
BITMAP
01FFFFFF00
01FFFFFF00
01FFFFFF00
01FFFFFF00
01FFFFFF00
01FFFFFF00
0000000000
0000000000
0000000000
0000000000
0000000000
0000000000
0000000000
0000000000
0000000000
0000000000
007FFF8000
07FFFFF000
07FFFFFC00
07FFFFFE00
07FFFFFF00
07FFFFFF80
07FFFFFF80
078003FFC0
000000FFC0
0000007FE0
0000003FE0
0000003FE0
0000001FE0
0000001FF0
0000001FF0
0000000FF0
0000000FF0
0000000FF0
0000000FF0
0007FF8FF0
007FFFFFF0
01FFFFFFF0
07FFFFFFF0
0FFFFFFFF0
1FFFFFFFF0
3FFFFFFFF0
7FF8001FF0
7FE0000FF0
7FC0000FF0
FF80000FF0
FF80000FF0
FF00000FF0
FF00000FF0
FF00000FF0
FF00000FF0
FF00000FF0
FF80000FF0
FF80000FF0
7FC0000FF0
7FE0000FF0
7FFC001FF0
3FFFFFFFF0
1FFFFFFFF0
0FFFFFFFF0
07FFFFFFF0
03FFFFFFF0
00FFFFFFC0
000FFFC000
ENDCHAR
STARTCHAR 0102
ENCODING 258
SWIDTH 652 0
DWIDTH 58 0
BBX 57 80 1 0
BITMAP
00007C001F000000
00007C001F000000
00007E003F000000
00007E003F000000
00007F007F000000
00003FC1FE000000
00003FFFFE000000
00001FFFFC000000
00000FFFF8000000
000007FFF0000000
000001FFE0000000
0000007F00000000
0000000000000000
0000000000000000
0000000000000000
0000000000000000
0000000000000000
0000000000000000
000000FF00000000
000000FF80000000
000001FF80000000
000001FFC0000000
000001FFC0000000
000003FFE0000000
000003FFE0000000
000007FFF0000000
000007FFF0000000
00000FFFF8000000
00000FFFF8000000
00001FF7FC000000
00001FE7FC000000
00001FE3FC000000
00003FC3FE000000
00003FC1FE000000
00007F81FF000000
00007F81FF000000
0000FF80FF800000
0000FF00FF800000
0000FF007F800000
0001FE007FC00000
0001FE007FC00000
0003FE003FE00000
0003FC003FE00000
0007FC001FE00000
0007F8001FF00000
0007F8001FF00000
000FF8000FF80000
000FF0000FF80000
000FF0000FF80000
001FF00007FC0000
001FE00007FC0000
003FE00003FE0000
003FC00003FE0000
003FC00003FE0000
007FC00001FF0000
007F800001FF0000
00FF800001FF8000
00FFFFFFFFFF8000
00FFFFFFFFFF8000
01FFFFFFFFFFC000
01FFFFFFFFFFC000
01FFFFFFFFFFC000
03FFFFFFFFFFE000
03FFFFFFFFFFE000
07FC0000003FF000
07FC0000001FF000
07FC0000001FF000
0FF80000001FF800
0FF80000000FF800
0FF00000000FF800
1FF00000000FFC00
1FF000000007FC00
3FE000000007FC00
3FE000000007FE00
3FE000000003FE00
7FC000000003FF00
7FC000000003FF00
7FC000000001FF00
FF8000000001FF80
FF8000000000FF80
ENDCHAR
STARTCHAR 0103
ENCODING 259
SWIDTH 517 0
DWIDTH 46 0
BBX 36 68 4 -1
BITMAP
00F8003E00
00F8003E00
00F8007E00
00FC007E00
00FC007E00
00FE00FC00
007F83FC00
007FFFFC00
003FFFF800
001FFFF000
000FFFE000
0003FF8000
0000FC0000
0000000000
0000000000
0000000000
0000000000
0000000000
0000000000
0000000000
007FFF8000
07FFFFF000
07FFFFFC00
07FFFFFE00
07FFFFFF00
07FFFFFF80
07FFFFFF80
078003FFC0
000000FFC0
0000007FE0
0000003FE0
0000003FE0
0000001FE0
0000001FF0
0000001FF0
0000000FF0
0000000FF0
0000000FF0
0000000FF0
0007FF8FF0
007FFFFFF0
01FFFFFFF0
07FFFFFFF0
0FFFFFFFF0
1FFFFFFFF0
3FFFFFFFF0
7FF8001FF0
7FE0000FF0
7FC0000FF0
FF80000FF0
FF80000FF0
FF00000FF0
FF00000FF0
FF00000FF0
FF00000FF0
FF00000FF0
FF80000FF0
FF80000FF0
7FC0000FF0
7FE0000FF0
7FFC001FF0
3FFFFFFFF0
1FFFFFFFF0
0FFFFFFFF0
07FFFFFFF0
03FFFFFFF0
00FFFFFFC0
000FFFC000
ENDCHAR
STARTCHAR 0104
ENCODING 260
SWIDTH 652 0
DWIDTH 58 0
BBX 57 79 1 -17
BITMAP
000000FF00000000
000000FF80000000
000001FF80000000
000001FFC0000000
000001FFC0000000
000003FFE0000000
000003FFE0000000
000007FFF0000000
000007FFF0000000
00000FFFF8000000
00000FFFF8000000
00001FF7FC000000
00001FE7FC000000
00001FE3FC000000
00003FC3FE000000
00003FC1FE000000
00007F81FF000000
00007F81FF000000
0000FF80FF800000
0000FF00FF800000
0000FF007F800000
0001FE007FC00000
0001FE007FC00000
0003FE003FE00000
0003FC003FE00000
0007FC001FE00000
0007F8001FF00000
0007F8001FF00000
000FF8000FF80000
000FF0000FF80000
000FF0000FF80000
001FF00007FC0000
001FE00007FC0000
003FE00003FE0000
003FC00003FE0000
003FC00003FE0000
007FC00001FF0000
007F800001FF0000
00FF800001FF0000
00FFFFFFFFFF8000
00FFFFFFFFFF8000
01FFFFFFFFFFC000
01FFFFFFFFFFC000
01FFFFFFFFFFC000
03FFFFFFFFFFE000
03FFFFFFFFFFE000
07FC0000003FE000
07FC0000001FF000
07FC0000001FF000
0FF80000001FF800
0FF80000000FF800
0FF00000000FF800
1FF00000000FFC00
1FF000000007FC00
3FE000000007FC00
3FE000000007FE00
3FE000000003FE00
7FC000000003FF00
7FC000000001FF00
7FC000000001FF00
FF8000000001FF80
FF8000000000FF80
000000000000FF00
000000000003FE00
000000000007F800
000000000007F000
00000000000FF000
00000000001FE000
00000000001FC000
00000000003FC000
00000000003FC000
00000000003FC000
00000000003FE080
00000000003FFF80
00000000003FFF80
00000000001FFF80
00000000000FFF80
000000000007FF80
0000000000003800
ENDCHAR
STARTCHAR 0105
ENCODING 261
SWIDTH 517 0
DWIDTH 46 0
BBX 36 64 4 -17
BITMAP
007FFF8000
07FFFFF000
07FFFFFC00
07FFFFFE00
07FFFFFF00
07FFFFFF80
07FFFFFF80
078003FFC0
000000FFC0
0000007FE0
0000003FE0
0000003FE0
0000001FE0
0000001FF0
0000001FF0
0000000FF0
0000000FF0
0000000FF0
0000000FF0
0007FF8FF0
007FFFFFF0
01FFFFFFF0
07FFFFFFF0
0FFFFFFFF0
1FFFFFFFF0
3FFFFFFFF0
7FF8001FF0
7FE0000FF0
7FC0000FF0
FF80000FF0
FF80000FF0
FF00000FF0
FF00000FF0
FF00000FF0
FF00000FF0
FF00000FF0
FF80000FF0
FF80000FF0
7FC0000FF0
7FE0000FF0
7FFC001FF0
3FFFFFFFF0
1FFFFFFFF0
0FFFFFFFF0
07FFFFFFF0
03FFFFFFF0
00FFFFFFE0
000FFFFFC0
0000007F80
000000FF00
000001FE00
000003FC00
000003F800
000007F000
000007F000
00000FF000
00000FF000
00000FFC20
00000FFFE0
000007FFE0
000007FFF0
000003FFF0
000000FFF0
0000000700
ENDCHAR
STARTCHAR 0106
ENCODING 262
SWIDTH 618 0
DWIDTH 55 0
BBX 48 83 5 0
BITMAP
00000000C000
00000001E000
00000003F000
00000007F800
00000007FC00
0000000FF800
0000001FF000
0000003FE000
0000007FC000
000000FF8000
000000FF0000
000001FE0000
000003FC0000
000003F80000
000000F00000
000000600000
000000000000
000000000000
000000000000
000000FFF000
00000FFFFF80
00007FFFFFF0
0001FFFFFFFC
0003FFFFFFFE
000FFFFFFFFE
001FFFFFFFFE
003FFFFFFFFC
007FFF0003FC
00FFF800007C
01FFE0000018
03FFC0000000
03FF80000000
07FF00000000
0FFE00000000
0FFC00000000
1FF800000000
1FF800000000
3FF000000000
3FF000000000
3FE000000000
7FE000000000
7FE000000000
7FC000000000
7FC000000000
7FC000000000
FFC000000000
FFC000000000
FF8000000000
FF8000000000
FF8000000000
FF8000000000
FF8000000000
FF8000000000
FF8000000000
FF8000000000
FFC000000000
FFC000000000
7FC000000000
7FC000000000
7FC000000000
7FC000000000
7FE000000000
7FE000000000
3FE000000000
3FF000000000
3FF000000000
1FF800000000
1FF800000000
0FFC00000000
0FFE00000000
07FF00000000
07FF80000000
03FFC0000004
01FFF000001C
00FFFC0000FC
007FFFE01FFE
003FFFFFFFFE
001FFFFFFFFE
000FFFFFFFFF
0003FFFFFFFF
0000FFFFFFFC
00003FFFFFE0
000007FFFE00
ENDCHAR
STARTCHAR 0107
ENCODING 263
SWIDTH 461 0
DWIDTH 41 0
BBX 35 69 5 0
BITMAP
0000006000
000000F000
000001F800
000003FE00
000007FE00
000007FC00
00000FF800
00001FF000
00003FE000
00007FC000
0000FF8000
0000FF0000
0001FE0000
0001FC0000
0000780000
0000300000
0000000000
0000000000
0000000000
0000000000
0000000000
0001FFFC00
000FFFFF80
003FFFFFC0
007FFFFF80
00FFFFFF80
03FFFFFF80
07FFFFFF80
07FFC00F00
0FFE000100
1FFC000000
1FF8000000
3FF0000000
3FE0000000
7FC0000000
7FC0000000
7F80000000
FF80000000
FF80000000
FF80000000
FF00000000
FF00000000
FF00000000
FF00000000
FF00000000
FF00000000
FF00000000
FF00000000
FF00000000
FF00000000
FF80000000
FF80000000
FF80000000
7FC0000000
7FC0000000
7FE0000000
3FE0000000
3FF0000000
1FF8000000
1FFC000000
0FFF0000C0
07FFF01FC0
07FFFFFFC0
03FFFFFFC0
00FFFFFFC0
007FFFFFC0
001FFFFFE0
0007FFFF80
0000FFF000
ENDCHAR
STARTCHAR 0108
ENCODING 264
SWIDTH 618 0
DWIDTH 55 0
BBX 48 83 5 -1
BITMAP
000000100000
000000380000
0000007C0000
000000FE0000
000001FF0000
000003FF8000
000007FFC000
00000FFFE000
00001FFFF000
00003FE7F800
00007FC3FC00
0000FF01FE00
0000FE00FF00
0000FC007E00
000078003C00
000030001800
000000000000
000000000000
000000000000
000000FFF000
00000FFFFF80
00007FFFFFF0
0001FFFFFFFC
0003FFFFFFFE
000FFFFFFFFE
001FFFFFFFFE
003FFFFFFFFC
007FFF0003FC
00FFF800007C
01FFE0000018
03FFC0000000
03FF80000000
07FF00000000
0FFE00000000
0FFC00000000
1FF800000000
1FF800000000
3FF000000000
3FF000000000
3FE000000000
7FE000000000
7FE000000000
7FC000000000
7FC000000000
7FC000000000
FFC000000000
FFC000000000
FF8000000000
FF8000000000
FF8000000000
FF8000000000
FF8000000000
FF8000000000
FF8000000000
FF8000000000
FFC000000000
FFC000000000
7FC000000000
7FC000000000
7FC000000000
7FC000000000
7FE000000000
7FE000000000
3FE000000000
3FF000000000
3FF000000000
1FF800000000
1FF800000000
0FFC00000000
0FFE00000000
07FF00000000
07FF80000000
03FFC0000004
01FFF000001C
00FFFC0000FC
007FFFE01FFE
003FFFFFFFFE
001FFFFFFFFE
000FFFFFFFFF
0003FFFFFFFF
0000FFFFFFFC
00003FFFFFE0
000007FFFE00
ENDCHAR
STARTCHAR 0109
ENCODING 265
SWIDTH 461 0
DWIDTH 41 0
BBX 35 69 5 -1
BITMAP
0000080000
00001C0000
00003E0000
00007F0000
0000FF8000
0001FFC000
0003FFE000
0007FFF000
000FF7F800
001FE3FC00
003FC1FE00
007F80FF00
007F007F00
007E003F00
003C001E00
0018000C00
0000000000
0000000000
0000000000
0000000000
0000000000
0001FFFC00
000FFFFF80
003FFFFFC0
007FFFFF80
00FFFFFF80
03FFFFFF80
07FFFFFF80
07FFC00F00
0FFE000100
1FFC000000
1FF8000000
3FF0000000
3FE0000000
7FC0000000
7FC0000000
7F80000000
FF80000000
FF80000000
FF80000000
FF00000000
FF00000000
FF00000000
FF00000000
FF00000000
FF00000000
FF00000000
FF00000000
FF00000000
FF00000000
FF80000000
FF80000000
FF80000000
7FC0000000
7FC0000000
7FE0000000
3FE0000000
3FF0000000
1FF8000000
1FFC000000
0FFF0000C0
07FFF01FC0
07FFFFFFC0
03FFFFFFC0
00FFFFFFC0
007FFFFFC0
001FFFFFE0
0007FFFF80
0000FFF000
ENDCHAR
STARTCHAR 010A
ENCODING 266
SWIDTH 618 0
DWIDTH 55 0
BBX 48 80 5 -1
BITMAP
0000007E0000
000000FF0000
000001FF0000
000003FF8000
000003FF8000
000003FF8000
000003FF8000
000001FF8000
000001FF0000
000000FE0000
000000100000
000000000000
000000000000
000000000000
000000000000
000000000000
000000FFF000
00000FFFFF80
00007FFFFFF0
0001FFFFFFFC
0003FFFFFFFE
000FFFFFFFFE
001FFFFFFFFE
003FFFFFFFFC
007FFF0003FC
00FFF800007C
01FFE0000018
03FFC0000000
03FF80000000
07FF00000000
0FFE00000000
0FFC00000000
1FF800000000
1FF800000000
3FF000000000
3FF000000000
3FE000000000
7FE000000000
7FE000000000
7FC000000000
7FC000000000
7FC000000000
FFC000000000
FFC000000000
FF8000000000
FF8000000000
FF8000000000
FF8000000000
FF8000000000
FF8000000000
FF8000000000
FF8000000000
FFC000000000
FFC000000000
7FC000000000
7FC000000000
7FC000000000
7FC000000000
7FE000000000
7FE000000000
3FE000000000
3FF000000000
3FF000000000
1FF800000000
1FF800000000
0FFC00000000
0FFE00000000
07FF00000000
07FF80000000
03FFC0000004
01FFF000001C
00FFFC0000FC
007FFFE01FFE
003FFFFFFFFE
001FFFFFFFFE
000FFFFFFFFF
0003FFFFFFFF
0000FFFFFFFC
00003FFFFFE0
000007FFFE00
ENDCHAR
STARTCHAR 010B
ENCODING 267
SWIDTH 461 0
DWIDTH 41 0
BBX 35 66 5 -1
BITMAP
00007F0000
0000FF8000
0000FF8000
0001FFC000
0001FFC000
0001FFC000
0001FFC000
0000FF8000
0000FF8000
00007F0000
0000000000
0000000000
0000000000
0000000000
0000000000
0000000000
0000000000
0000000000
0001FFFC00
000FFFFF80
003FFFFFC0
007FFFFF80
00FFFFFF80
03FFFFFF80
07FFFFFF80
07FFC00F00
0FFE000100
1FFC000000
1FF8000000
3FF0000000
3FE0000000
7FC0000000
7FC0000000
7F80000000
FF80000000
FF80000000
FF80000000
FF00000000
FF00000000
FF00000000
FF00000000
FF00000000
FF00000000
FF00000000
FF00000000
FF00000000
FF00000000
FF80000000
FF80000000
FF80000000
7FC0000000
7FC0000000
7FE0000000
3FE0000000
3FF0000000
1FF8000000
1FFC000000
0FFF0000C0
07FFF01FC0
07FFFFFFC0
03FFFFFFC0
00FFFFFFC0
007FFFFFC0
001FFFFFE0
0007FFFF80
0000FFF000
ENDCHAR
STARTCHAR 010C
ENCODING 268
SWIDTH 618 0
DWIDTH 55 0
BBX 48 83 5 0
BITMAP
000030001800
000078003C00
0000FC007E00
0000FF00FF00
00007F81FE00
00003FC3FC00
00001FEFF800
00001FFFF000
00000FFFE000
000007FFC000
000003FF8000
000001FF0000
000000FE0000
0000007C0000
000000380000
000000100000
000000000000
000000000000
000000000000
000000FFF000
00000FFFFF80
00007FFFFFF0
0001FFFFFFFC
0003FFFFFFFE
000FFFFFFFFE
001FFFFFFFFE
003FFFFFFFFC
007FFF0003FC
00FFF800007C
01FFE0000018
03FFC0000000
03FF80000000
07FF00000000
0FFE00000000
0FFC00000000
1FF800000000
1FF800000000
3FF000000000
3FF000000000
3FE000000000
7FE000000000
7FE000000000
7FC000000000
7FC000000000
7FC000000000
FFC000000000
FFC000000000
FF8000000000
FF8000000000
FF8000000000
FF8000000000
FF8000000000
FF8000000000
FF8000000000
FF8000000000
FFC000000000
FFC000000000
7FC000000000
7FC000000000
7FC000000000
7FC000000000
7FE000000000
7FE000000000
3FE000000000
3FF000000000
3FF000000000
1FF800000000
1FF800000000
0FFC00000000
0FFE00000000
07FF00000000
07FF80000000
03FFC0000004
01FFF000001C
00FFFC0000FC
007FFFE01FFE
003FFFFFFFFE
001FFFFFFFFE
000FFFFFFFFF
0003FFFFFFFF
0000FFFFFFFC
00003FFFFFE0
000007FFFE00
ENDCHAR
STARTCHAR 010D
ENCODING 269
SWIDTH 461 0
DWIDTH 41 0
BBX 35 69 5 0
BITMAP
0018000C00
003C001E00
007E003F00
007F80FF00
003FC1FE00
001FE3FC00
000FF7F800
000FFFF800
0007FFF000
0003FFE000
0001FFC000
0000FF8000
00007F0000
00003E0000
00001C0000
0000080000
0000000000
0000000000
0000000000
0000000000
0000000000
0001FFFC00
000FFFFF80
003FFFFFC0
007FFFFF80
00FFFFFF80
03FFFFFF80
07FFFFFF80
07FFC00F00
0FFE000100
1FFC000000
1FF8000000
3FF0000000
3FE0000000
7FC0000000
7FC0000000
7F80000000
FF80000000
FF80000000
FF80000000
FF00000000
FF00000000
FF00000000
FF00000000
FF00000000
FF00000000
FF00000000
FF00000000
FF00000000
FF00000000
FF80000000
FF80000000
FF80000000
7FC0000000
7FC0000000
7FE0000000
3FE0000000
3FF0000000
1FF8000000
1FFC000000
0FFF0000C0
07FFF01FC0
07FFFFFFC0
03FFFFFFC0
00FFFFFFC0
007FFFFFC0
001FFFFFE0
0007FFFF80
0000FFF000
ENDCHAR
STARTCHAR 010E
ENCODING 270
SWIDTH 708 0
DWIDTH 63 0
BBX 50 83 8 0
BITMAP
000C0006000000
001E000F000000
003F001F800000
007F803F800000
003FC0FF000000
001FF1FE000000
000FFBFE000000
0007FFFC000000
0003FFF8000000
0001FFF0000000
0000FFE0000000
00007FC0000000
00003F80000000
00001F00000000
00000E00000000
00000400000000
00000000000000
00000000000000
00000000000000
00000000000000
0FFFFF80000000
FFFFFFF8000000
FFFFFFFF000000
FFFFFFFFE00000
FFFFFFFFF00000
FFFFFFFFFC0000
FFFFFFFFFF0000
FFC01FFFFF8000
FF00003FFFC000
FF000007FFE000
FF000001FFF000
FF0000007FF000
FF0000003FF800
FF0000001FFC00
FF0000000FFC00
FF00000007FE00
FF00000007FE00
FF00000003FF00
FF00000003FF00
FF00000001FF80
FF00000001FF80
FF00000000FF80
FF00000000FF80
FF00000000FFC0
FF00000000FFC0
FF000000007FC0
FF000000007FC0
FF000000007FC0
FF000000007FC0
FF000000007FC0
FF000000007FC0
FF000000007FC0
FF000000007FC0
FF000000007FC0
FF000000007FC0
FF000000007FC0
FF000000007FC0
FF00000000FFC0
FF00000000FFC0
FF00000000FF80
FF00000000FF80
FF00000001FF80
FF00000001FF80
FF00000001FF00
FF00000003FF00
FF00000007FF00
FF00000007FE00
FF0000000FFE00
FF0000001FFC00
FF0000003FF800
FF0000007FF800
FF000000FFF000
FF000003FFE000
FF00001FFFC000
FF0001FFFF8000
FFFFFFFFFF0000
FFFFFFFFFE0000
FFFFFFFFF80000
FFFFFFFFE00000
FFFFFFFF800000
FFFFFFFC000000
3FFFFFE0000000
00010000000000
ENDCHAR
STARTCHAR 010F
ENCODING 271
SWIDTH 618 0
DWIDTH 55 0
BBX 54 70 5 -1
BITMAP
000000000703FC
00000000FF03FC
00000000FF03FC
00000000FF03FC
00000000FF03FC
00000000FF03FC
00000000FF03FC
00000000FF03F8
00000000FF03F8
00000000FF03F8
00000000FF03F8
00000000FF03F8
00000000FF03F8
00000000FF03F8
00000000FF03F8
00000000FF03F8
00000000FF03F0
00000000FF03F0
00000000FF03F0
00000000FF03F0
00000000FF0000
00000000FF0000
0003FFC0FF0000
001FFFF8FF0000
003FFFFEFF0000
00FFFFFFFF0000
01FFFFFFFF0000
03FFFFFFFF0000
07FFFFFFFF0000
0FFF807FFF0000
1FFE000FFF0000
1FF80003FF0000
3FF00000FF0000
3FE00000FF0000
7FE00000FF0000
7FC00000FF0000
7FC00000FF0000
FF800000FF0000
FF800000FF0000
FF800000FF0000
FF800000FF0000
FF000000FF0000
FF000000FF0000
FF000000FF0000
FF000000FF0000
FF000000FF0000
FF000000FF0000
FF000000FF0000
FF000000FF0000
FF000000FF0000
FF800000FF0000
FF800000FF0000
FF800000FF0000
FF800000FF0000
7FC00000FF0000
7FC00000FF0000
7FE00000FF0000
3FE00000FF0000
3FF00000FF0000
1FF80000FF0000
1FFE0000FF0000
0FFF0000FF0000
07FFF00FFF0000
03FFFFFFFF0000
01FFFFFFFF0000
00FFFFFFFF0000
007FFFFFFF0000
001FFFFFFF0000
0007FFFFF80000
00007FFE000000
ENDCHAR
STARTCHAR 0110
ENCODING 272
SWIDTH 720 0
DWIDTH 64 0
BBX 57 63 2 -1
BITMAP
001FFFFF00000000
01FFFFFFF0000000
01FFFFFFFE000000
01FFFFFFFFC00000
01FFFFFFFFF00000
01FFFFFFFFF80000
01FFFFFFFFFE0000
01FF803FFFFF0000
01FE00007FFF8000
01FE00000FFFC000
01FE000003FFE000
01FE000000FFF000
01FE0000007FF000
01FE0000003FF800
01FE0000001FFC00
01FE0000000FFC00
01FE0000000FFE00
01FE00000007FE00
01FE00000003FE00
01FE00000003FF00
01FE00000003FF00
01FE00000001FF00
01FE00000001FF80
01FE00000001FF80
01FE00000000FF80
01FE00000000FF80
01FE00000000FF80
FFFFFFE00000FF80
FFFFFFE00000FF80
FFFFFFE00000FF80
FFFFFFE00000FF80
FFFFFFE00000FF80
FFFFFFE00000FF80
01FE00000000FF80
01FE00000000FF80
01FE00000000FF80
01FE00000000FF80
01FE00000000FF80
01FE00000001FF80
01FE00000001FF80
01FE00000001FF00
01FE00000001FF00
01FE00000003FF00
01FE00000003FE00
01FE00000007FE00
01FE00000007FE00
01FE0000000FFC00
01FE0000001FFC00
01FE0000003FF800
01FE0000007FF800
01FE000000FFF000
01FE000001FFE000
01FE000007FFC000
01FE00003FFF8000
01FE0003FFFF0000
01FFFFFFFFFE0000
01FFFFFFFFFC0000
01FFFFFFFFF00000
01FFFFFFFFC00000
01FFFFFFFF000000
01FFFFFFF8000000
007FFFFFC0000000
0000034000000000
ENDCHAR
STARTCHAR 0111
ENCODING 273
SWIDTH 585 0
DWIDTH 52 0
BBX 47 70 5 -1
BITMAP
000000000700
00000000FF00
00000000FF00
00000000FF00
00000000FF00
00000000FF00
00000000FF00
00000000FF00
0000FFFFFFFE
0000FFFFFFFE
0000FFFFFFFE
0000FFFFFFFE
0000FFFFFFFE
0000FFFFFFFE
00000000FF00
00000000FF00
00000000FF00
00000000FF00
00000000FF00
00000000FF00
00000000FF00
00000000FF00
0000FF80FF00
000FFFF0FF00
003FFFFEFF00
00FFFFFFFF00
01FFFFFFFF00
03FFFFFFFF00
07FFFFFFFF00
0FFFF1FFFF00
0FFF000FFF00
1FFC0003FF00
3FF80001FF00
3FF00000FF00
3FE00000FF00
7FC00000FF00
7FC00000FF00
7F800000FF00
FF800000FF00
FF800000FF00
FF800000FF00
FF000000FF00
FF000000FF00
FF000000FF00
FF000000FF00
FF000000FF00
FF000000FF00
FF000000FF00
FF000000FF00
FF000000FF00
FF800000FF00
FF800000FF00
FF800000FF00
FF800000FF00
7FC00000FF00
7FC00000FF00
7FE00000FF00
3FE00000FF00
3FF00000FF00
1FF80000FF00
1FFE0000FF00
0FFF0000FF00
07FFF00FFF00
03FFFFFFFF00
01FFFFFFFF00
00FFFFFFFF00
007FFFFFFF00
001FFFFFFF00
0007FFFFF800
00007FFE0000
ENDCHAR
STARTCHAR 0112
ENCODING 274
SWIDTH 562 0
DWIDTH 50 0
BBX 39 77 8 0
BITMAP
03FFFFFE00
03FFFFFE00
03FFFFFE00
03FFFFFE00
03FFFFFE00
03FFFFFE00
0000000000
0000000000
0000000000
0000000000
0000000000
0000000000
0000000000
0000000000
0000000000
FFFFFFFFF8
FFFFFFFFF8
FFFFFFFFF8
FFFFFFFFF8
FFFFFFFFF8
FFFFFFFFF8
FFFFFFFFF8
FFFFFFFFF8
FF00000000
FF00000000
FF00000000
FF00000000
FF00000000
FF00000000
FF00000000
FF00000000
FF00000000
FF00000000
FF00000000
FF00000000
FF00000000
FF00000000
FF00000000
FF00000000
FF00000000
FF00000000
FFFFFFFFC0
FFFFFFFFC0
FFFFFFFFC0
FFFFFFFFC0
FFFFFFFFC0
FFFFFFFFC0
FFFFFFFFC0
FF00000000
FF00000000
FF00000000
FF00000000
FF00000000
FF00000000
FF00000000
FF00000000
FF00000000
FF00000000
FF00000000
FF00000000
FF00000000
FF00000000
FF00000000
FF00000000
FF00000000
FF00000000
FF00000000
FF00000000
FF00000000
FF00000000
FFFFFFFFFE
FFFFFFFFFE
FFFFFFFFFE
FFFFFFFFFE
FFFFFFFFFE
FFFFFFFFFE
FFFFFFFFFE
ENDCHAR
STARTCHAR 0113
ENCODING 275
SWIDTH 551 0
DWIDTH 49 0
BBX 40 64 5 -1
BITMAP
01FFFFFF00
01FFFFFF00
01FFFFFF00
01FFFFFF00
01FFFFFF00
01FFFFFF00
0000000000
0000000000
0000000000
0000000000
0000000000
0000000000
0000000000
0000000000
0000000000
0000000000
0001FFE000
000FFFFC00
003FFFFF00
00FFFFFF80
01FFFFFFC0
03FFFFFFE0
07FFFFFFF0
0FFF007FF0
0FFC001FF8
1FF8000FF8
1FF00007FC
3FE00007FC
3FE00003FE
7FC00003FE
7FC00001FE
7F800001FE
FF800001FE
FF800001FF
FF000001FF
FFFFFFFFFF
FFFFFFFFFF
FFFFFFFFFF
FFFFFFFFFF
FFFFFFFFFF
FFFFFFFFFF
FFFFFFFFFF
FF00000000
FF00000000
FF00000000
FF80000000
FF80000000
FF80000000
7F80000000
7FC0000000
7FC0000000
3FE0000000
3FF0000000
1FF8000000
1FFC000000
0FFF000070
0FFFF00FF0
07FFFFFFF0
03FFFFFFF0
00FFFFFFF0
007FFFFFF8
001FFFFFF8
0007FFFFC0
0000FFFC00
ENDCHAR
STARTCHAR 0114
ENCODING 276
SWIDTH 562 0
DWIDTH 50 0
BBX 39 80 8 0
BITMAP
03E000F800
03E000F800
03F001F800
03F001F800
03F803F800
01FE0FF000
01FFFFF000
00FFFFE000
007FFFC000
003FFF8000
000FFF0000
0003F80000
0000000000
0000000000
0000000000
0000000000
0000000000
0000000000
FFFFFFFFF8
FFFFFFFFF8
FFFFFFFFF8
FFFFFFFFF8
FFFFFFFFF8
FFFFFFFFF8
FFFFFFFFF8
FFFFFFFFF8
FF00000000
FF00000000
FF00000000
FF00000000
FF00000000
FF00000000
FF00000000
FF00000000
FF00000000
FF00000000
FF00000000
FF00000000
FF00000000
FF00000000
FF00000000
FF00000000
FF00000000
FF00000000
FFFFFFFFC0
FFFFFFFFC0
FFFFFFFFC0
FFFFFFFFC0
FFFFFFFFC0
FFFFFFFFC0
FFFFFFFFC0
FF00000000
FF00000000
FF00000000
FF00000000
FF00000000
FF00000000
FF00000000
FF00000000
FF00000000
FF00000000
FF00000000
FF00000000
FF00000000
FF00000000
FF00000000
FF00000000
FF00000000
FF00000000
FF00000000
FF00000000
FF00000000
FF00000000
FFFFFFFFFE
FFFFFFFFFE
FFFFFFFFFE
FFFFFFFFFE
FFFFFFFFFE
FFFFFFFFFE
FFFFFFFFFE
ENDCHAR
STARTCHAR 0115
ENCODING 277
SWIDTH 551 0
DWIDTH 49 0
BBX 40 68 5 -1
BITMAP
00FC001F00
00FC003F00
00FC003F00
00FC003F00
007E007E00
007F00FE00
007FC3FE00
003FFFFC00
001FFFFC00
000FFFF800
0007FFE000
0003FFC000
00007E0000
0000000000
0000000000
0000000000
0000000000
0000000000
0000000000
0000000000
0001FFE000
000FFFFC00
003FFFFF00
00FFFFFF80
01FFFFFFC0
03FFFFFFE0
07FFFFFFF0
0FFF007FF0
0FFC001FF8
1FF8000FF8
1FF00007FC
3FE00007FC
3FE00003FE
7FC00003FE
7FC00001FE
7F800001FE
FF800001FE
FF800001FF
FF000001FF
FFFFFFFFFF
FFFFFFFFFF
FFFFFFFFFF
FFFFFFFFFF
FFFFFFFFFF
FFFFFFFFFF
FFFFFFFFFF
FF00000000
FF00000000
FF00000000
FF80000000
FF80000000
FF80000000
7F80000000
7FC0000000
7FC0000000
3FE0000000
3FF0000000
1FF8000000
1FFC000000
0FFF000070
0FFFF00FF0
07FFFFFFF0
03FFFFFFF0
00FFFFFFF0
007FFFFFF8
001FFFFFF8
0007FFFFC0
0000FFFC00
ENDCHAR
STARTCHAR 0116
ENCODING 278
SWIDTH 562 0
DWIDTH 50 0
BBX 39 79 8 0
BITMAP
0000F80000
0003FC0000
0003FE0000
0007FF0000
0007FF0000
0007FF0000
0007FF0000
0007FE0000
0003FE0000
0001FC0000
0000200000
0000000000
0000000000
0000000000
0000000000
0000000000
0000000000
FFFFFFFFF8
FFFFFFFFF8
FFFFFFFFF8
FFFFFFFFF8
FFFFFFFFF8
FFFFFFFFF8
FFFFFFFFF8
FFFFFFFFF8
FF00000000
FF00000000
FF00000000
FF00000000
FF00000000
FF00000000
FF00000000
FF00000000
FF00000000
FF00000000
FF00000000
FF00000000
FF00000000
FF00000000
FF00000000
FF00000000
FF00000000
FF00000000
FFFFFFFFC0
FFFFFFFFC0
FFFFFFFFC0
FFFFFFFFC0
FFFFFFFFC0
FFFFFFFFC0
FFFFFFFFC0
FF00000000
FF00000000
FF00000000
FF00000000
FF00000000
FF00000000
FF00000000
FF00000000
FF00000000
FF00000000
FF00000000
FF00000000
FF00000000
FF00000000
FF00000000
FF00000000
FF00000000
FF00000000
FF00000000
FF00000000
FF00000000
FF00000000
FFFFFFFFFE
FFFFFFFFFE
FFFFFFFFFE
FFFFFFFFFE
FFFFFFFFFE
FFFFFFFFFE
FFFFFFFFFE
ENDCHAR
STARTCHAR 0117
ENCODING 279
SWIDTH 551 0
DWIDTH 49 0
BBX 40 66 5 -1
BITMAP
00007F0000
0000FF8000
0000FF8000
0001FFC000
0001FFC000
0001FFC000
0001FFC000
0000FF8000
0000FF8000
00007F0000
0000000000
0000000000
0000000000
0000000000
0000000000
0000000000
0000000000
0000000000
0001FFE000
000FFFFC00
003FFFFF00
00FFFFFF80
01FFFFFFC0
03FFFFFFE0
07FFFFFFF0
0FFF007FF0
0FFC001FF8
1FF8000FF8
1FF00007FC
3FE00007FC
3FE00003FE
7FC00003FE
7FC00001FE
7F800001FE
FF800001FE
FF800001FF
FF000001FF
FFFFFFFFFF
FFFFFFFFFF
FFFFFFFFFF
FFFFFFFFFF
FFFFFFFFFF
FFFFFFFFFF
FFFFFFFFFF
FF00000000
FF00000000
FF00000000
FF80000000
FF80000000
FF80000000
7F80000000
7FC0000000
7FC0000000
3FE0000000
3FF0000000
1FF8000000
1FFC000000
0FFF000070
0FFFF00FF0
07FFFFFFF0
03FFFFFFF0
00FFFFFFF0
007FFFFFF8
001FFFFFF8
0007FFFFC0
0000FFFC00
ENDCHAR
STARTCHAR 0118
ENCODING 280
SWIDTH 562 0
DWIDTH 50 0
BBX 40 79 8 -17
BITMAP
FFFFFFFFF8
FFFFFFFFF8
FFFFFFFFF8
FFFFFFFFF8
FFFFFFFFF8
FFFFFFFFF8
FFFFFFFFF8
FFFFFFFFF8
FF00000000
FF00000000
FF00000000
FF00000000
FF00000000
FF00000000
FF00000000
FF00000000
FF00000000
FF00000000
FF00000000
FF00000000
FF00000000
FF00000000
FF00000000
FF00000000
FF00000000
FF00000000
FFFFFFFFC0
FFFFFFFFC0
FFFFFFFFC0
FFFFFFFFC0
FFFFFFFFC0
FFFFFFFFC0
FFFFFFFFC0
FF00000000
FF00000000
FF00000000
FF00000000
FF00000000
FF00000000
FF00000000
FF00000000
FF00000000
FF00000000
FF00000000
FF00000000
FF00000000
FF00000000
FF00000000
FF00000000
FF00000000
FF00000000
FF00000000
FF00000000
FF00000000
FF00000000
FFFFFFFFFE
FFFFFFFFFE
FFFFFFFFFE
FFFFFFFFFE
FFFFFFFFFE
FFFFFFFFFE
FFFFFFFFFE
00000003FC
00000007F8
0000000FF0
0000001FE0
0000003FC0
0000003F80
0000007F00
0000007F00
000000FF00
000000FF00
000000FFC2
000000FFFE
0000007FFE
0000007FFF
0000003FFF
0000000FFF
0000000070
ENDCHAR
STARTCHAR 0119
ENCODING 281
SWIDTH 551 0
DWIDTH 49 0
BBX 40 64 5 -17
BITMAP
0001FFE000
000FFFFC00
003FFFFF00
00FFFFFF80
01FFFFFFC0
03FFFFFFE0
07FFFFFFF0
0FFF007FF0
0FFC001FF8
1FF8000FF8
1FF00007FC
3FE00007FC
3FE00003FE
7FC00003FE
7FC00001FE
7F800001FE
FF800001FE
FF800001FF
FF000001FF
FFFFFFFFFF
FFFFFFFFFF
FFFFFFFFFF
FFFFFFFFFF
FFFFFFFFFF
FFFFFFFFFF
FFFFFFFFFF
FF00000000
FF00000000
FF00000000
FF80000000
FF80000000
FF80000000
7F80000000
7FC0000000
7FC0000000
3FE0000000
3FF0000000
1FF8000000
1FFC000000
0FFF000070
0FFFF00FF0
07FFFFFFF0
03FFFFFFF0
00FFFFFFF0
007FFFFFF8
001FFFFFF8
0007FFFFE0
0000FFFFC0
0000007F80
000000FF00
000001FE00
000003FC00
000003F800
000007F000
000007F000
00000FF000
00000FF000
00000FF820
00000FFFE0
000007FFE0
000007FFE0
000003FFF0
000000FFF0
0000000700
ENDCHAR
STARTCHAR 011A
ENCODING 282
SWIDTH 562 0
DWIDTH 50 0
BBX 39 82 8 1
BITMAP
00C0006000
01E000F000
03F001F800
03F803FC00
01FE07F800
00FF0FF000
007FBFE000
007FFFC000
003FFF8000
001FFF0000
000FFE0000
0007FC0000
0003F80000
0001F00000
0000E00000
0000400000
0000000000
0000000000
0000000000
0000000000
FFFFFFFFF8
FFFFFFFFF8
FFFFFFFFF8
FFFFFFFFF8
FFFFFFFFF8
FFFFFFFFF8
FFFFFFFFF8
FFFFFFFFF8
FF00000000
FF00000000
FF00000000
FF00000000
FF00000000
FF00000000
FF00000000
FF00000000
FF00000000
FF00000000
FF00000000
FF00000000
FF00000000
FF00000000
FF00000000
FF00000000
FF00000000
FF00000000
FFFFFFFFC0
FFFFFFFFC0
FFFFFFFFC0
FFFFFFFFC0
FFFFFFFFC0
FFFFFFFFC0
FFFFFFFFC0
FF00000000
FF00000000
FF00000000
FF00000000
FF00000000
FF00000000
FF00000000
FF00000000
FF00000000
FF00000000
FF00000000
FF00000000
FF00000000
FF00000000
FF00000000
FF00000000
FF00000000
FF00000000
FF00000000
FF00000000
FF00000000
FF00000000
FFFFFFFFFE
FFFFFFFFFE
FFFFFFFFFE
FFFFFFFFFE
FFFFFFFFFE
FFFFFFFFFE
FFFFFFFFFE
ENDCHAR
STARTCHAR 011B
ENCODING 283
SWIDTH 551 0
DWIDTH 49 0
BBX 40 69 5 0
BITMAP
0018000C00
003C001E00
007E007F00
007F00FF00
003FC1FE00
001FE3FC00
001FF7F800
000FFFF000
0007FFE000
0003FFE000
0001FFC000
0000FF8000
00007F0000
00003E0000
00001C0000
0000080000
0000000000
0000000000
0000000000
0000000000
0000000000
0001FFE000
000FFFFC00
003FFFFF00
00FFFFFF80
01FFFFFFC0
03FFFFFFE0
07FFFFFFF0
0FFF007FF0
0FFC001FF8
1FF8000FF8
1FF00007FC
3FE00007FC
3FE00003FE
7FC00003FE
7FC00001FE
7F800001FE
FF800001FE
FF800001FF
FF000001FF
FFFFFFFFFF
FFFFFFFFFF
FFFFFFFFFF
FFFFFFFFFF
FFFFFFFFFF
FFFFFFFFFF
FFFFFFFFFF
FF00000000
FF00000000
FF00000000
FF80000000
FF80000000
FF80000000
7F80000000
7FC0000000
7FC0000000
3FE0000000
3FF0000000
1FF8000000
1FFC000000
0FFF000070
0FFFF00FF0
07FFFFFFF0
03FFFFFFF0
00FFFFFFF0
007FFFFFF8
001FFFFFF8
0007FFFFC0
0000FFFC00
ENDCHAR
STARTCHAR 011C
ENCODING 284
SWIDTH 663 0
DWIDTH 59 0
BBX 49 83 5 -1
BITMAP
00000008000000
0000001C000000
0000003E000000
0000007F000000
000000FF800000
000001FFC00000
000003FFE00000
000007FFF00000
00000FFFF80000
00001FE7FC0000
00003FC3FE0000
00007F80FE0000
0000FF007F0000
00007E003F0000
00003C001E0000
000018000C0000
00000000000000
00000000000000
00000000000000
000000FFF80000
00000FFFFFC000
00007FFFFFF800
0001FFFFFFFE00
0003FFFFFFFF00
000FFFFFFFFF00
001FFFFFFFFF00
003FFFFFFFFE00
007FFF0003FE00
00FFF800003E00
01FFE000000C00
03FFC000000000
03FF8000000000
07FF0000000000
0FFE0000000000
0FFC0000000000
1FF80000000000
1FF80000000000
3FF00000000000
3FF00000000000
3FE00000000000
7FE00000000000
7FE00000000000
7FC00000000000
7FC00000000000
7FC00000000000
FFC00000000000
FFC00000000000
FF800000000000
FF800000000000
FF800000000000
FF800000000000
FF800000000000
FF80000000FF80
FF80000000FF80
FF80000000FF80
FFC0000000FF80
FFC0000000FF80
7FC0000000FF80
7FC0000000FF80
7FC0000000FF80
7FC0000000FF80
7FE0000000FF80
7FE0000000FF80
3FE0000000FF80
3FF0000000FF80
3FF0000000FF80
1FF8000000FF80
1FF8000000FF80
0FFC000000FF80
0FFE000000FF80
07FF000000FF80
07FF800000FF80
03FFC00000FF80
01FFF00000FF80
00FFFC0000FF80
007FFFE01FFF80
003FFFFFFFFF80
001FFFFFFFFF80
000FFFFFFFFF80
0003FFFFFFFF80
0000FFFFFFFF80
00003FFFFFF800
000003FFFE0000
ENDCHAR
STARTCHAR 011D
ENCODING 285
SWIDTH 573 0
DWIDTH 51 0
BBX 39 85 5 -17
BITMAP
0000060000
00000F0000
00001F8000
00003FC000
00007FE000
0000FFE000
0001FFF000
0003FFF800
0007FFFC00
0007F9FE00
000FF0FF00
001FE07F80
003F803FC0
001F001F80
000E000700
0004000200
0000000000
0000000000
0000000000
0000000000
0000000000
0000FFFE00
0007FFFFF0
003FFFFFFE
007FFFFFFE
01FFFFFFFE
03FFFFFFFE
07FFFFFFFE
0FFFC00FFE
0FFE0001FE
1FFC0001FE
3FF80001FE
3FF00001FE
7FE00001FE
7FC00001FE
7FC00001FE
FF800001FE
FF800001FE
FF800001FE
FF800001FE
FF000001FE
FF000001FE
FF000001FE
FF000001FE
FF000001FE
FF000001FE
FF000001FE
FF000001FE
FF800001FE
FF800001FE
FF800001FE
FF800001FE
7FC00001FE
7FC00001FE
7FE00001FE
3FF00001FE
3FF80003FE
1FFC0007FE
0FFF803FFE
0FFFFFFFFE
07FFFFFFFE
03FFFFFFFE
01FFFFFFFE
007FFFFFFE
001FFFF9FE
0007FFC1FE
00000001FE
00000001FE
00000001FE
00000001FE
00000003FE
00000003FE
00000003FC
00000007FC
0000000FFC
0800001FF8
1F00007FF8
1FFE1FFFF0
1FFFFFFFE0
1FFFFFFFC0
3FFFFFFF80
3FFFFFFF00
1FFFFFFC00
03FFFFE000
000FF80000
ENDCHAR
STARTCHAR 011E
ENCODING 286
SWIDTH 663 0
DWIDTH 59 0
BBX 49 81 5 -1
BITMAP
0000FC001F0000
00007C003F0000
00007E003F0000
00007E003F0000
00007F007E0000
00003FC1FE0000
00003FFFFE0000
00001FFFFC0000
00000FFFF80000
000007FFF00000
000003FFC00000
0000007F000000
00000000000000
00000000000000
00000000000000
00000000000000
00000000000000
000000FFF80000
00000FFFFFC000
00007FFFFFF800
0001FFFFFFFE00
0003FFFFFFFF00
000FFFFFFFFF00
001FFFFFFFFF00
003FFFFFFFFE00
007FFF0003FE00
00FFF800003E00
01FFE000000C00
03FFC000000000
03FF8000000000
07FF0000000000
0FFE0000000000
0FFC0000000000
1FF80000000000
1FF80000000000
3FF00000000000
3FF00000000000
3FE00000000000
7FE00000000000
7FE00000000000
7FC00000000000
7FC00000000000
7FC00000000000
FFC00000000000
FFC00000000000
FF800000000000
FF800000000000
FF800000000000
FF800000000000
FF800000000000
FF80000000FF80
FF80000000FF80
FF80000000FF80
FFC0000000FF80
FFC0000000FF80
7FC0000000FF80
7FC0000000FF80
7FC0000000FF80
7FC0000000FF80
7FE0000000FF80
7FE0000000FF80
3FE0000000FF80
3FF0000000FF80
3FF0000000FF80
1FF8000000FF80
1FF8000000FF80
0FFC000000FF80
0FFE000000FF80
07FF000000FF80
07FF800000FF80
03FFC00000FF80
01FFF00000FF80
00FFFC0000FF80
007FFFE01FFF80
003FFFFFFFFF80
001FFFFFFFFF80
000FFFFFFFFF80
0003FFFFFFFF80
0000FFFFFFFF80
00003FFFFFF800
000003FFFE0000
ENDCHAR
STARTCHAR 011F
ENCODING 287
SWIDTH 573 0
DWIDTH 51 0
BBX 39 84 5 -17
BITMAP
003E000FC0
003F000FC0
003F000FC0
003F000FC0
001F801F80
001FC03F80
001FF0FF80
000FFFFF00
000FFFFE00
0007FFFC00
0001FFF800
0000FFF000
00001F8000
0000000000
0000000000
0000000000
0000000000
0000000000
0000000000
0000000000
0000FFFE00
0007FFFFF0
003FFFFFFE
007FFFFFFE
01FFFFFFFE
03FFFFFFFE
07FFFFFFFE
0FFFC00FFE
0FFE0001FE
1FFC0001FE
3FF80001FE
3FF00001FE
7FE00001FE
7FC00001FE
7FC00001FE
FF800001FE
FF800001FE
FF800001FE
FF800001FE
FF000001FE
FF000001FE
FF000001FE
FF000001FE
FF000001FE
FF000001FE
FF000001FE
FF000001FE
FF800001FE
FF800001FE
FF800001FE
FF800001FE
7FC00001FE
7FC00001FE
7FE00001FE
3FF00001FE
3FF80003FE
1FFC0007FE
0FFF803FFE
0FFFFFFFFE
07FFFFFFFE
03FFFFFFFE
01FFFFFFFE
007FFFFFFE
001FFFF9FE
0007FFC1FE
00000001FE
00000001FE
00000001FE
00000001FE
00000003FE
00000003FE
00000003FC
00000007FC
0000000FFC
0800001FF8
1F00007FF8
1FFE1FFFF0
1FFFFFFFE0
1FFFFFFFC0
3FFFFFFF80
3FFFFFFF00
1FFFFFFC00
03FFFFE000
000FF80000
ENDCHAR
STARTCHAR 0120
ENCODING 288
SWIDTH 663 0
DWIDTH 59 0
BBX 49 80 5 -1
BITMAP
0000007E000000
000000FF000000
000000FF800000
000001FF800000
000001FFC00000
000001FFC00000
000001FFC00000
000001FF800000
000000FF800000
0000007F000000
00000008000000
00000000000000
00000000000000
00000000000000
00000000000000
00000000000000
000000FFF80000
00000FFFFFC000
00007FFFFFF800
0001FFFFFFFE00
0003FFFFFFFF00
000FFFFFFFFF00
001FFFFFFFFF00
003FFFFFFFFE00
007FFF0003FE00
00FFF800003E00
01FFE000000C00
03FFC000000000
03FF8000000000
07FF0000000000
0FFE0000000000
0FFC0000000000
1FF80000000000
1FF80000000000
3FF00000000000
3FF00000000000
3FE00000000000
7FE00000000000
7FE00000000000
7FC00000000000
7FC00000000000
7FC00000000000
FFC00000000000
FFC00000000000
FF800000000000
FF800000000000
FF800000000000
FF800000000000
FF800000000000
FF80000000FF80
FF80000000FF80
FF80000000FF80
FFC0000000FF80
FFC0000000FF80
7FC0000000FF80
7FC0000000FF80
7FC0000000FF80
7FC0000000FF80
7FE0000000FF80
7FE0000000FF80
3FE0000000FF80
3FF0000000FF80
3FF0000000FF80
1FF8000000FF80
1FF8000000FF80
0FFC000000FF80
0FFE000000FF80
07FF000000FF80
07FF800000FF80
03FFC00000FF80
01FFF00000FF80
00FFFC0000FF80
007FFFE01FFF80
003FFFFFFFFF80
001FFFFFFFFF80
000FFFFFFFFF80
0003FFFFFFFF80
0000FFFFFFFF80
00003FFFFFF800
000003FFFE0000
ENDCHAR
STARTCHAR 0121
ENCODING 289
SWIDTH 573 0
DWIDTH 51 0
BBX 39 82 5 -17
BITMAP
00001F8000
00003FC000
00007FE000
00007FE000
00007FE000
00007FE000
00007FE000
00007FE000
00003FC000
00001F8000
0000000000
0000000000
0000000000
0000000000
0000000000
0000000000
0000000000
0000000000
0000FFFE00
0007FFFFF0
003FFFFFFE
007FFFFFFE
01FFFFFFFE
03FFFFFFFE
07FFFFFFFE
0FFFC00FFE
0FFE0001FE
1FFC0001FE
3FF80001FE
3FF00001FE
7FE00001FE
7FC00001FE
7FC00001FE
FF800001FE
FF800001FE
FF800001FE
FF800001FE
FF000001FE
FF000001FE
FF000001FE
FF000001FE
FF000001FE
FF000001FE
FF000001FE
FF000001FE
FF800001FE
FF800001FE
FF800001FE
FF800001FE
7FC00001FE
7FC00001FE
7FE00001FE
3FF00001FE
3FF80003FE
1FFC0007FE
0FFF803FFE
0FFFFFFFFE
07FFFFFFFE
03FFFFFFFE
01FFFFFFFE
007FFFFFFE
001FFFF9FE
0007FFC1FE
00000001FE
00000001FE
00000001FE
00000001FE
00000003FE
00000003FE
00000003FC
00000007FC
0000000FFC
0800001FF8
1F00007FF8
1FFE1FFFF0
1FFFFFFFE0
1FFFFFFFC0
3FFFFFFF80
3FFFFFFF00
1FFFFFFC00
03FFFFE000
000FF80000
ENDCHAR
STARTCHAR 0122
ENCODING 290
SWIDTH 663 0
DWIDTH 59 0
BBX 49 80 5 -17
BITMAP
000000FFF80000
00000FFFFFC000
00007FFFFFF800
0001FFFFFFFE00
0003FFFFFFFF00
000FFFFFFFFF00
001FFFFFFFFF00
003FFFFFFFFE00
007FFF0003FE00
00FFF800003E00
01FFE000000C00
03FFC000000000
03FF8000000000
07FF0000000000
0FFE0000000000
0FFC0000000000
1FF80000000000
1FF80000000000
3FF00000000000
3FF00000000000
3FE00000000000
7FE00000000000
7FE00000000000
7FC00000000000
7FC00000000000
7FC00000000000
FFC00000000000
FFC00000000000
FF800000000000
FF800000000000
FF800000000000
FF800000000000
FF800000000000
FF80000000FF80
FF80000000FF80
FF80000000FF80
FFC0000000FF80
FFC0000000FF80
7FC0000000FF80
7FC0000000FF80
7FC0000000FF80
7FC0000000FF80
7FE0000000FF80
7FE0000000FF80
3FE0000000FF80
3FF0000000FF80
3FF0000000FF80
1FF8000000FF80
1FF8000000FF80
0FFC000000FF80
0FFE000000FF80
07FF000000FF80
07FF800000FF80
03FFC00000FF80
01FFF00000FF80
00FFFC0000FF80
007FFFE01FFF80
003FFFFFFFFF80
001FFFFFFFFF80
000FFFFFFFFF80
0003FFFFFFFF80
0000FFFFFFFF80
00003FFFFFF800
000003FFFE0000
00000000000000
00000000000000
00000000000000
0000007F800000
0000007F800000
0000007F800000
0000007F800000
000000FF800000
000000FF000000
000001FF000000
00001FFF000000
00001FFE000000
00001FFC000000
00001FF8000000
00001FF0000000
00000F80000000
ENDCHAR
STARTCHAR 0123
ENCODING 291
SWIDTH 573 0
DWIDTH 51 0
BBX 39 86 5 -17
BITMAP
0000007800
000001F800
000003FC00
000007FE00
00000FFC00
00000FF000
00001FF000
00001FE000
00003FE000
00003FC000
00003FC000
00003FC000
00003FC000
00003FC000
00003FC000
0000000000
0000000000
0000000000
0000000000
0000000000
0000000000
0000000000
0000FFFE00
0007FFFFF0
003FFFFFFE
007FFFFFFE
01FFFFFFFE
03FFFFFFFE
07FFFFFFFE
0FFFC00FFE
0FFE0001FE
1FFC0001FE
3FF80001FE
3FF00001FE
7FE00001FE
7FC00001FE
7FC00001FE
FF800001FE
FF800001FE
FF800001FE
FF800001FE
FF000001FE
FF000001FE
FF000001FE
FF000001FE
FF000001FE
FF000001FE
FF000001FE
FF000001FE
FF800001FE
FF800001FE
FF800001FE
FF800001FE
7FC00001FE
7FC00001FE
7FE00001FE
3FF00001FE
3FF80003FE
1FFC0007FE
0FFF803FFE
0FFFFFFFFE
07FFFFFFFE
03FFFFFFFE
01FFFFFFFE
007FFFFFFE
001FFFF9FE
0007FFC1FE
00000001FE
00000001FE
00000001FE
00000001FE
00000003FE
00000003FE
00000003FC
00000007FC
0000000FFC
0800001FF8
1F00007FF8
1FFE1FFFF0
1FFFFFFFE0
1FFFFFFFC0
3FFFFFFF80
3FFFFFFF00
1FFFFFFC00
03FFFFE000
000FF80000
ENDCHAR
STARTCHAR 0124
ENCODING 292
SWIDTH 697 0
DWIDTH 62 0
BBX 47 82 8 0
BITMAP
000001000000
000003800000
000007C00000
00000FE00000
00001FF00000
00003FF80000
00007FFC0000
0000FFFE0000
0001FFFF0000
0003FCFF8000
0007F87F8000
000FF03FC000
001FE00FE000
000FC007E000
00078003C000
000300018000
000000000000
000000000000
000000000000
000000000000
FF00000003FE
FF00000003FE
FF00000003FE
FF00000003FE
FF00000003FE
FF00000003FE
FF00000003FE
FF00000003FE
FF00000003FE
FF00000003FE
FF00000003FE
FF00000003FE
FF00000003FE
FF00000003FE
FF00000003FE
FF00000003FE
FF00000003FE
FF00000003FE
FF00000003FE
FF00000003FE
FF00000003FE
FF00000003FE
FF00000003FE
FF00000003FE
FF00000003FE
FF00000003FE
FFFFFFFFFFFE
FFFFFFFFFFFE
FFFFFFFFFFFE
FFFFFFFFFFFE
FFFFFFFFFFFE
FFFFFFFFFFFE
FFFFFFFFFFFE
FFFFFFFFFFFE
FF00000003FE
FF00000003FE
FF00000003FE
FF00000003FE
FF00000003FE
FF00000003FE
FF00000003FE
FF00000003FE
FF00000003FE
FF00000003FE
FF00000003FE
FF00000003FE
FF00000003FE
FF00000003FE
FF00000003FE
FF00000003FE
FF00000003FE
FF00000003FE
FF00000003FE
FF00000003FE
FF00000003FE
FF00000003FE
FF00000003FE
FF00000003FE
FF00000003FE
FF00000003FE
FF00000003FE
FF00000003FE
ENDCHAR
STARTCHAR 0125
ENCODING 293
SWIDTH 562 0
DWIDTH 50 0
BBX 39 85 5 1
BITMAP
0070000000
00F8000000
01FE000000
07FF000000
0FFF800000
1FFFC00000
3FFFF00000
FF8FF80000
FF03F80000
7C01F80000
7800700000
2000200000
0000000000
0000000000
0000000000
0000000000
00C0000000
3FC0000000
3FC0000000
3FC0000000
3FC0000000
3FC0000000
3FC0000000
3FC0000000
3FC0000000
3FC0000000
3FC0000000
3FC0000000
3FC0000000
3FC0000000
3FC0000000
3FC0000000
3FC0000000
3FC0000000
3FC0000000
3FC0000000
3FC0000000
3FC0000000
3FC3FFE000
3FDFFFFC00
3FFFFFFF00
3FFFFFFF80
3FFFFFFFC0
3FFFFFFFE0
3FFFFFFFF0
3FFE00FFF8
3FE0003FF8
3FC0000FFC
3FC00007FC
3FC00007FC
3FC00003FE
3FC00003FE
3FC00003FE
3FC00001FE
3FC00001FE
3FC00001FE
3FC00001FE
3FC00001FE
3FC00001FE
3FC00001FE
3FC00001FE
3FC00001FE
3FC00001FE
3FC00001FE
3FC00001FE
3FC00001FE
3FC00001FE
3FC00001FE
3FC00001FE
3FC00001FE
3FC00001FE
3FC00001FE
3FC00001FE
3FC00001FE
3FC00001FE
3FC00001FE
3FC00001FE
3FC00001FE
3FC00001FE
3FC00001FE
3FC00001FE
3FC00001FE
3FC00001FE
3FC00001FE
3FC00001FE
ENDCHAR
STARTCHAR 0126
ENCODING 294
SWIDTH 720 0
DWIDTH 64 0
BBX 61 62 2 0
BITMAP
01FE00000003FC00
01FE00000003FC00
01FE00000003FC00
01FE00000003FC00
01FE00000003FC00
01FE00000003FC00
01FE00000003FC00
01FE00000003FC00
01FE00000003FC00
FFFFFFFFFFFFFFF8
FFFFFFFFFFFFFFF8
FFFFFFFFFFFFFFF8
FFFFFFFFFFFFFFF8
FFFFFFFFFFFFFFF8
FFFFFFFFFFFFFFF8
FFFFFFFFFFFFFFF8
01FE00000003FC00
01FE00000003FC00
01FE00000003FC00
01FE00000003FC00
01FE00000003FC00
01FE00000003FC00
01FE00000003FC00
01FE00000003FC00
01FE00000003FC00
01FE00000003FC00
01FFFFFFFFFFFC00
01FFFFFFFFFFFC00
01FFFFFFFFFFFC00
01FFFFFFFFFFFC00
01FFFFFFFFFFFC00
01FFFFFFFFFFFC00
01FFFFFFFFFFFC00
01FFFFFFFFFFFC00
01FE00000003FC00
01FE00000003FC00
01FE00000003FC00
01FE00000003FC00
01FE00000003FC00
01FE00000003FC00
01FE00000003FC00
01FE00000003FC00
01FE00000003FC00
01FE00000003FC00
01FE00000003FC00
01FE00000003FC00
01FE00000003FC00
01FE00000003FC00
01FE00000003FC00
01FE00000003FC00
01FE00000003FC00
01FE00000003FC00
01FE00000003FC00
01FE00000003FC00
01FE00000003FC00
01FE00000003FC00
01FE00000003FC00
01FE00000003FC00
01FE00000003FC00
01FE00000003FC00
01FE00000003FC00
01FE00000003FC00
ENDCHAR
STARTCHAR 0127
ENCODING 295
SWIDTH 562 0
DWIDTH 50 0
BBX 43 69 1 0
BITMAP
000C00000000
03FC00000000
03FC00000000
03FC00000000
03FC00000000
03FC00000000
03FC00000000
03FC00000000
FFFFFFFC0000
FFFFFFFC0000
FFFFFFFC0000
FFFFFFFC0000
FFFFFFFC0000
FFFFFFFC0000
03FC00000000
03FC00000000
03FC00000000
03FC00000000
03FC00000000
03FC00000000
03FC00000000
03FC00000000
03FC07F80000
03FCFFFF8000
03FFFFFFE000
03FFFFFFF800
03FFFFFFFC00
03FFFFFFFE00
03FFFFFFFF00
03FFFEFFFF00
03FF0003FF80
03FC0001FF80
03FC0000FFC0
03FC00007FC0
03FC00003FC0
03FC00003FE0
03FC00003FE0
03FC00003FE0
03FC00001FE0
03FC00001FE0
03FC00001FE0
03FC00001FE0
03FC00001FE0
03FC00001FE0
03FC00001FE0
03FC00001FE0
03FC00001FE0
03FC00001FE0
03FC00001FE0
03FC00001FE0
03FC00001FE0
03FC00001FE0
03FC00001FE0
03FC00001FE0
03FC00001FE0
03FC00001FE0
03FC00001FE0
03FC00001FE0
03FC00001FE0
03FC00001FE0
03FC00001FE0
03FC00001FE0
03FC00001FE0
03FC00001FE0
03FC00001FE0
03FC00001FE0
03FC00001FE0
03FC00001FE0
03FC00001FE0
ENDCHAR
STARTCHAR 0128
ENCODING 296
SWIDTH 258 0
DWIDTH 23 0
BBX 28 79 -2 0
BITMAP
01C000C0
07F801F0
1FFE03F0
3FFFC7F0
7FFFFFE0
7FFFFFE0
FFFFFFC0
FC0FFF80
F803FF00
30007C00
00000000
00000000
00000000
00000000
00000000
00000000
00000000
003FC000
003FC000
003FC000
003FC000
003FC000
003FC000
003FC000
003FC000
003FC000
003FC000
003FC000
003FC000
003FC000
003FC000
003FC000
003FC000
003FC000
003FC000
003FC000
003FC000
003FC000
003FC000
003FC000
003FC000
003FC000
003FC000
003FC000
003FC000
003FC000
003FC000
003FC000
003FC000
003FC000
003FC000
003FC000
003FC000
003FC000
003FC000
003FC000
003FC000
003FC000
003FC000
003FC000
003FC000
003FC000
003FC000
003FC000
003FC000
003FC000
003FC000
003FC000
003FC000
003FC000
003FC000
003FC000
003FC000
003FC000
003FC000
003FC000
003FC000
003FC000
003FC000
ENDCHAR
STARTCHAR 0129
ENCODING 297
SWIDTH 247 0
DWIDTH 22 0
BBX 29 65 -3 0
BITMAP
01E000C0
07FC01F0
1FFF03F8
3FFFEFF0
3FFFFFF0
7FFFFFE0
FF7FFFC0
FC07FF80
F801FF00
30003C00
00000000
00000000
00000000
00000000
00000000
00000000
00000000
00000000
00000000
003FC000
003FC000
003FC000
003FC000
003FC000
003FC000
003FC000
003FC000
003FC000
003FC000
003FC000
003FC000
003FC000
003FC000
003FC000
003FC000
003FC000
003FC000
003FC000
003FC000
003FC000
003FC000
003FC000
003FC000
003FC000
003FC000
003FC000
003FC000
003FC000
003FC000
003FC000
003FC000
003FC000
003FC000
003FC000
003FC000
003FC000
003FC000
003FC000
003FC000
003FC000
003FC000
003FC000
003FC000
003FC000
003FC000
ENDCHAR
STARTCHAR 012A
ENCODING 298
SWIDTH 258 0
DWIDTH 23 0
BBX 26 77 -1 0
BITMAP
FFFFFFC0
FFFFFFC0
FFFFFFC0
FFFFFFC0
FFFFFFC0
FFFFFFC0
00000000
00000000
00000000
00000000
00000000
00000000
00000000
00000000
00000000
007F8000
007F8000
007F8000
007F8000
007F8000
007F8000
007F8000
007F8000
007F8000
007F8000
007F8000
007F8000
007F8000
007F8000
007F8000
007F8000
007F8000
007F8000
007F8000
007F8000
007F8000
007F8000
007F8000
007F8000
007F8000
007F8000
007F8000
007F8000
007F8000
007F8000
007F8000
007F8000
007F8000
007F8000
007F8000
007F8000
007F8000
007F8000
007F8000
007F8000
007F8000
007F8000
007F8000
007F8000
007F8000
007F8000
007F8000
007F8000
007F8000
007F8000
007F8000
007F8000
007F8000
007F8000
007F8000
007F8000
007F8000
007F8000
007F8000
007F8000
007F8000
007F8000
ENDCHAR
STARTCHAR 012B
ENCODING 299
SWIDTH 247 0
DWIDTH 22 0
BBX 25 63 -1 0
BITMAP
FFFFFF80
FFFFFF80
FFFFFF80
FFFFFF80
FFFFFF80
FFFFFF80
00000000
00000000
00000000
00000000
00000000
00000000
00000000
00000000
00000000
00000000
00000000
00FF0000
00FF0000
00FF0000
00FF0000
00FF0000
00FF0000
00FF0000
00FF0000
00FF0000
00FF0000
00FF0000
00FF0000
00FF0000
00FF0000
00FF0000
00FF0000
00FF0000
00FF0000
00FF0000
00FF0000
00FF0000
00FF0000
00FF0000
00FF0000
00FF0000
00FF0000
00FF0000
00FF0000
00FF0000
00FF0000
00FF0000
00FF0000
00FF0000
00FF0000
00FF0000
00FF0000
00FF0000
00FF0000
00FF0000
00FF0000
00FF0000
00FF0000
00FF0000
00FF0000
00FF0000
00FF0000
ENDCHAR
STARTCHAR 012C
ENCODING 300
SWIDTH 258 0
DWIDTH 23 0
BBX 24 80 0 0
BITMAP
FC003F
FC003F
FC003F
7E007E
7F00FE
7F81FE
3FFFFC
3FFFFC
1FFFF8
0FFFF0
03FFC0
007E00
000000
000000
000000
000000
000000
000000
00FF00
00FF00
00FF00
00FF00
00FF00
00FF00
00FF00
00FF00
00FF00
00FF00
00FF00
00FF00
00FF00
00FF00
00FF00
00FF00
00FF00
00FF00
00FF00
00FF00
00FF00
00FF00
00FF00
00FF00
00FF00
00FF00
00FF00
00FF00
00FF00
00FF00
00FF00
00FF00
00FF00
00FF00
00FF00
00FF00
00FF00
00FF00
00FF00
00FF00
00FF00
00FF00
00FF00
00FF00
00FF00
00FF00
00FF00
00FF00
00FF00
00FF00
00FF00
00FF00
00FF00
00FF00
00FF00
00FF00
00FF00
00FF00
00FF00
00FF00
00FF00
00FF00
ENDCHAR
ENDFONT
